<?xml version="1.0" encoding="utf-8" standalone="no"?>
<!DOCTYPE svg PUBLIC "-//W3C//DTD SVG 1.1//EN"
  "http://www.w3.org/Graphics/SVG/1.1/DTD/svg11.dtd">
<svg xmlns:xlink="http://www.w3.org/1999/xlink" width="1080pt" height="1080pt" viewBox="0 0 1080 1080" xmlns="http://www.w3.org/2000/svg" version="1.1">
 <metadata>
  <rdf:RDF xmlns:dc="http://purl.org/dc/elements/1.1/" xmlns:cc="http://creativecommons.org/ns#" xmlns:rdf="http://www.w3.org/1999/02/22-rdf-syntax-ns#">
   <cc:Work>
    <dc:type rdf:resource="http://purl.org/dc/dcmitype/StillImage"/>
    <dc:date>2023-08-24T21:36:41.173140</dc:date>
    <dc:format>image/svg+xml</dc:format>
    <dc:creator>
     <cc:Agent>
      <dc:title>Matplotlib v3.7.2, https://matplotlib.org/</dc:title>
     </cc:Agent>
    </dc:creator>
   </cc:Work>
  </rdf:RDF>
 </metadata>
 <defs>
  <style type="text/css">*{stroke-linejoin: round; stroke-linecap: butt}</style>
 </defs>
 <g id="figure_1">
  <g id="patch_1">
   <path d="M 0 1080 
L 1080 1080 
L 1080 0 
L 0 0 
z
" style="fill: #ffffff"/>
  </g>
  <g id="axes_1">
   <g id="patch_2">
    <path d="M 135 961.2 
L 972 961.2 
L 972 129.6 
L 135 129.6 
z
" style="fill: #ffffff"/>
   </g>
   <g id="matplotlib.axis_1">
    <g id="xtick_1">
     <g id="line2d_1">
      <defs>
       <path id="m169124cd0d" d="M 0 0 
L 0 3.5 
" style="stroke: #000000; stroke-width: 0.8"/>
      </defs>
      <g>
       <use xlink:href="#m169124cd0d" x="234.730491" y="961.2" style="stroke: #000000; stroke-width: 0.8"/>
      </g>
     </g>
     <g id="text_1">
      <!-- −400 -->
      <g transform="translate(220.996897 975.798437) scale(0.1 -0.1)">
       <defs>
        <path id="DejaVuSans-2212" d="M 678 2272 
L 4684 2272 
L 4684 1741 
L 678 1741 
L 678 2272 
z
" transform="scale(0.015625)"/>
        <path id="DejaVuSans-34" d="M 2419 4116 
L 825 1625 
L 2419 1625 
L 2419 4116 
z
M 2253 4666 
L 3047 4666 
L 3047 1625 
L 3713 1625 
L 3713 1100 
L 3047 1100 
L 3047 0 
L 2419 0 
L 2419 1100 
L 313 1100 
L 313 1709 
L 2253 4666 
z
" transform="scale(0.015625)"/>
        <path id="DejaVuSans-30" d="M 2034 4250 
Q 1547 4250 1301 3770 
Q 1056 3291 1056 2328 
Q 1056 1369 1301 889 
Q 1547 409 2034 409 
Q 2525 409 2770 889 
Q 3016 1369 3016 2328 
Q 3016 3291 2770 3770 
Q 2525 4250 2034 4250 
z
M 2034 4750 
Q 2819 4750 3233 4129 
Q 3647 3509 3647 2328 
Q 3647 1150 3233 529 
Q 2819 -91 2034 -91 
Q 1250 -91 836 529 
Q 422 1150 422 2328 
Q 422 3509 836 4129 
Q 1250 4750 2034 4750 
z
" transform="scale(0.015625)"/>
       </defs>
       <use xlink:href="#DejaVuSans-2212"/>
       <use xlink:href="#DejaVuSans-34" x="83.789062"/>
       <use xlink:href="#DejaVuSans-30" x="147.412109"/>
       <use xlink:href="#DejaVuSans-30" x="211.035156"/>
      </g>
     </g>
    </g>
    <g id="xtick_2">
     <g id="line2d_2">
      <g>
       <use xlink:href="#m169124cd0d" x="374.815814" y="961.2" style="stroke: #000000; stroke-width: 0.8"/>
      </g>
     </g>
     <g id="text_2">
      <!-- −200 -->
      <g transform="translate(361.08222 975.798437) scale(0.1 -0.1)">
       <defs>
        <path id="DejaVuSans-32" d="M 1228 531 
L 3431 531 
L 3431 0 
L 469 0 
L 469 531 
Q 828 903 1448 1529 
Q 2069 2156 2228 2338 
Q 2531 2678 2651 2914 
Q 2772 3150 2772 3378 
Q 2772 3750 2511 3984 
Q 2250 4219 1831 4219 
Q 1534 4219 1204 4116 
Q 875 4013 500 3803 
L 500 4441 
Q 881 4594 1212 4672 
Q 1544 4750 1819 4750 
Q 2544 4750 2975 4387 
Q 3406 4025 3406 3419 
Q 3406 3131 3298 2873 
Q 3191 2616 2906 2266 
Q 2828 2175 2409 1742 
Q 1991 1309 1228 531 
z
" transform="scale(0.015625)"/>
       </defs>
       <use xlink:href="#DejaVuSans-2212"/>
       <use xlink:href="#DejaVuSans-32" x="83.789062"/>
       <use xlink:href="#DejaVuSans-30" x="147.412109"/>
       <use xlink:href="#DejaVuSans-30" x="211.035156"/>
      </g>
     </g>
    </g>
    <g id="xtick_3">
     <g id="line2d_3">
      <g>
       <use xlink:href="#m169124cd0d" x="514.901137" y="961.2" style="stroke: #000000; stroke-width: 0.8"/>
      </g>
     </g>
     <g id="text_3">
      <!-- 0 -->
      <g transform="translate(511.719887 975.798437) scale(0.1 -0.1)">
       <use xlink:href="#DejaVuSans-30"/>
      </g>
     </g>
    </g>
    <g id="xtick_4">
     <g id="line2d_4">
      <g>
       <use xlink:href="#m169124cd0d" x="654.98646" y="961.2" style="stroke: #000000; stroke-width: 0.8"/>
      </g>
     </g>
     <g id="text_4">
      <!-- 200 -->
      <g transform="translate(645.44271 975.798437) scale(0.1 -0.1)">
       <use xlink:href="#DejaVuSans-32"/>
       <use xlink:href="#DejaVuSans-30" x="63.623047"/>
       <use xlink:href="#DejaVuSans-30" x="127.246094"/>
      </g>
     </g>
    </g>
    <g id="xtick_5">
     <g id="line2d_5">
      <g>
       <use xlink:href="#m169124cd0d" x="795.071783" y="961.2" style="stroke: #000000; stroke-width: 0.8"/>
      </g>
     </g>
     <g id="text_5">
      <!-- 400 -->
      <g transform="translate(785.528033 975.798437) scale(0.1 -0.1)">
       <use xlink:href="#DejaVuSans-34"/>
       <use xlink:href="#DejaVuSans-30" x="63.623047"/>
       <use xlink:href="#DejaVuSans-30" x="127.246094"/>
      </g>
     </g>
    </g>
    <g id="xtick_6">
     <g id="line2d_6">
      <g>
       <use xlink:href="#m169124cd0d" x="935.157106" y="961.2" style="stroke: #000000; stroke-width: 0.8"/>
      </g>
     </g>
     <g id="text_6">
      <!-- 600 -->
      <g transform="translate(925.613356 975.798437) scale(0.1 -0.1)">
       <defs>
        <path id="DejaVuSans-36" d="M 2113 2584 
Q 1688 2584 1439 2293 
Q 1191 2003 1191 1497 
Q 1191 994 1439 701 
Q 1688 409 2113 409 
Q 2538 409 2786 701 
Q 3034 994 3034 1497 
Q 3034 2003 2786 2293 
Q 2538 2584 2113 2584 
z
M 3366 4563 
L 3366 3988 
Q 3128 4100 2886 4159 
Q 2644 4219 2406 4219 
Q 1781 4219 1451 3797 
Q 1122 3375 1075 2522 
Q 1259 2794 1537 2939 
Q 1816 3084 2150 3084 
Q 2853 3084 3261 2657 
Q 3669 2231 3669 1497 
Q 3669 778 3244 343 
Q 2819 -91 2113 -91 
Q 1303 -91 875 529 
Q 447 1150 447 2328 
Q 447 3434 972 4092 
Q 1497 4750 2381 4750 
Q 2619 4750 2861 4703 
Q 3103 4656 3366 4563 
z
" transform="scale(0.015625)"/>
       </defs>
       <use xlink:href="#DejaVuSans-36"/>
       <use xlink:href="#DejaVuSans-30" x="63.623047"/>
       <use xlink:href="#DejaVuSans-30" x="127.246094"/>
      </g>
     </g>
    </g>
   </g>
   <g id="matplotlib.axis_2">
    <g id="ytick_1">
     <g id="line2d_7">
      <defs>
       <path id="mc44843086e" d="M 0 0 
L -3.5 0 
" style="stroke: #000000; stroke-width: 0.8"/>
      </defs>
      <g>
       <use xlink:href="#mc44843086e" x="135" y="838.036822" style="stroke: #000000; stroke-width: 0.8"/>
      </g>
     </g>
     <g id="text_7">
      <!-- 0 -->
      <g transform="translate(121.6375 841.83604) scale(0.1 -0.1)">
       <use xlink:href="#DejaVuSans-30"/>
      </g>
     </g>
    </g>
    <g id="ytick_2">
     <g id="line2d_8">
      <g>
       <use xlink:href="#mc44843086e" x="135" y="714.129713" style="stroke: #000000; stroke-width: 0.8"/>
      </g>
     </g>
     <g id="text_8">
      <!-- 200 -->
      <g transform="translate(108.9125 717.928931) scale(0.1 -0.1)">
       <use xlink:href="#DejaVuSans-32"/>
       <use xlink:href="#DejaVuSans-30" x="63.623047"/>
       <use xlink:href="#DejaVuSans-30" x="127.246094"/>
      </g>
     </g>
    </g>
    <g id="ytick_3">
     <g id="line2d_9">
      <g>
       <use xlink:href="#mc44843086e" x="135" y="590.222604" style="stroke: #000000; stroke-width: 0.8"/>
      </g>
     </g>
     <g id="text_9">
      <!-- 400 -->
      <g transform="translate(108.9125 594.021822) scale(0.1 -0.1)">
       <use xlink:href="#DejaVuSans-34"/>
       <use xlink:href="#DejaVuSans-30" x="63.623047"/>
       <use xlink:href="#DejaVuSans-30" x="127.246094"/>
      </g>
     </g>
    </g>
    <g id="ytick_4">
     <g id="line2d_10">
      <g>
       <use xlink:href="#mc44843086e" x="135" y="466.315495" style="stroke: #000000; stroke-width: 0.8"/>
      </g>
     </g>
     <g id="text_10">
      <!-- 600 -->
      <g transform="translate(108.9125 470.114714) scale(0.1 -0.1)">
       <use xlink:href="#DejaVuSans-36"/>
       <use xlink:href="#DejaVuSans-30" x="63.623047"/>
       <use xlink:href="#DejaVuSans-30" x="127.246094"/>
      </g>
     </g>
    </g>
    <g id="ytick_5">
     <g id="line2d_11">
      <g>
       <use xlink:href="#mc44843086e" x="135" y="342.408386" style="stroke: #000000; stroke-width: 0.8"/>
      </g>
     </g>
     <g id="text_11">
      <!-- 800 -->
      <g transform="translate(108.9125 346.207605) scale(0.1 -0.1)">
       <defs>
        <path id="DejaVuSans-38" d="M 2034 2216 
Q 1584 2216 1326 1975 
Q 1069 1734 1069 1313 
Q 1069 891 1326 650 
Q 1584 409 2034 409 
Q 2484 409 2743 651 
Q 3003 894 3003 1313 
Q 3003 1734 2745 1975 
Q 2488 2216 2034 2216 
z
M 1403 2484 
Q 997 2584 770 2862 
Q 544 3141 544 3541 
Q 544 4100 942 4425 
Q 1341 4750 2034 4750 
Q 2731 4750 3128 4425 
Q 3525 4100 3525 3541 
Q 3525 3141 3298 2862 
Q 3072 2584 2669 2484 
Q 3125 2378 3379 2068 
Q 3634 1759 3634 1313 
Q 3634 634 3220 271 
Q 2806 -91 2034 -91 
Q 1263 -91 848 271 
Q 434 634 434 1313 
Q 434 1759 690 2068 
Q 947 2378 1403 2484 
z
M 1172 3481 
Q 1172 3119 1398 2916 
Q 1625 2713 2034 2713 
Q 2441 2713 2670 2916 
Q 2900 3119 2900 3481 
Q 2900 3844 2670 4047 
Q 2441 4250 2034 4250 
Q 1625 4250 1398 4047 
Q 1172 3844 1172 3481 
z
" transform="scale(0.015625)"/>
       </defs>
       <use xlink:href="#DejaVuSans-38"/>
       <use xlink:href="#DejaVuSans-30" x="63.623047"/>
       <use xlink:href="#DejaVuSans-30" x="127.246094"/>
      </g>
     </g>
    </g>
    <g id="ytick_6">
     <g id="line2d_12">
      <g>
       <use xlink:href="#mc44843086e" x="135" y="218.501277" style="stroke: #000000; stroke-width: 0.8"/>
      </g>
     </g>
     <g id="text_12">
      <!-- 1000 -->
      <g transform="translate(102.55 222.300496) scale(0.1 -0.1)">
       <defs>
        <path id="DejaVuSans-31" d="M 794 531 
L 1825 531 
L 1825 4091 
L 703 3866 
L 703 4441 
L 1819 4666 
L 2450 4666 
L 2450 531 
L 3481 531 
L 3481 0 
L 794 0 
L 794 531 
z
" transform="scale(0.015625)"/>
       </defs>
       <use xlink:href="#DejaVuSans-31"/>
       <use xlink:href="#DejaVuSans-30" x="63.623047"/>
       <use xlink:href="#DejaVuSans-30" x="127.246094"/>
       <use xlink:href="#DejaVuSans-30" x="190.869141"/>
      </g>
     </g>
    </g>
   </g>
   <g id="line2d_13">
    <path d="M 510.645413 840.675606 
L 313.935344 696.410993 
L 259.806657 657.139002 
L 213.653771 623.91318 
L 200.094534 614.125485 
L 197.475424 612.071433 
L 194.94509 609.932245 
L 192.535234 607.687065 
L 190.281867 605.31841 
L 188.22611 602.813376 
L 186.414853 600.165129 
L 184.900899 597.375001 
L 183.747211 594.453756 
L 183.02823 591.426051 
L 182.819551 588.33776 
L 183.192233 585.26168 
L 184.167602 582.294252 
L 185.717739 579.53365 
L 187.795767 577.041992 
L 190.283906 574.863193 
L 193.09297 573.020525 
L 196.142412 571.50208 
L 199.363256 570.291516 
L 202.701944 569.362975 
L 206.117326 568.687045 
L 209.580068 568.23503 
L 213.06847 567.979522 
L 216.567435 567.892721 
L 220.066993 567.947136 
L 227.050264 568.36822 
L 234.003948 569.082299 
L 240.917687 570.053661 
L 247.781642 571.27043 
L 254.587284 572.721119 
L 261.327321 574.394461 
L 267.995603 576.279431 
L 274.587031 578.36525 
L 281.097038 580.642402 
L 287.520434 583.104488 
L 293.85207 585.746043 
L 300.087214 588.561464 
L 306.224183 591.540954 
L 312.263761 594.672261 
L 318.207652 597.943733 
L 326.951918 603.086454 
L 335.507576 608.471848 
L 343.898082 614.056996 
L 352.150265 619.801237 
L 362.986718 627.643674 
L 376.338492 637.652793 
L 397.481265 653.894666 
L 416.036612 668.049523 
L 424.081711 674.019084 
L 429.558653 677.875493 
L 435.230571 681.504836 
L 438.160422 683.199137 
L 441.161739 684.792537 
L 444.23891 686.268046 
L 447.39401 687.607923 
L 450.627781 688.792089 
L 453.939335 689.794872 
L 457.323198 690.585735 
L 460.767771 691.131176 
L 464.253332 691.4044 
L 467.751944 691.388501 
L 471.231465 691.066571 
L 474.655742 690.430683 
L 477.98547 689.481003 
L 481.179676 688.219161 
L 484.190556 686.643193 
L 486.956018 684.747616 
L 489.4052 682.539919 
L 491.503286 680.064458 
L 493.255389 677.385528 
L 494.677152 674.557983 
L 495.787507 671.62333 
L 496.599999 668.612869 
L 497.126221 665.552764 
L 497.379836 662.465426 
L 497.374442 659.369953 
L 497.121123 656.282305 
L 496.629302 653.21712 
L 495.920932 650.185314 
L 495.026892 647.19213 
L 493.976199 644.239026 
L 492.793125 641.325295 
L 490.099483 635.610586 
L 487.074374 630.026507 
L 483.837088 624.535861 
L 473.924727 608.158116 
L 470.902369 602.573243 
L 468.217724 596.85568 
L 467.045775 593.938551 
L 466.016286 590.979651 
L 465.153719 587.979333 
L 464.482089 584.941134 
L 464.024443 581.872031 
L 463.802249 578.782706 
L 463.830929 575.687343 
L 464.091648 572.600169 
L 464.545168 569.530393 
L 465.164781 566.483438 
L 465.931575 563.462701 
L 466.832577 560.471013 
L 467.855407 557.510102 
L 470.217209 551.681666 
L 472.921319 545.970411 
L 475.881288 540.359038 
L 480.639278 532.079024 
L 524.530654 458.043641 
L 532.89244 444.443885 
L 541.460559 430.944993 
L 550.254995 417.5605 
L 557.471687 406.947611 
L 564.864131 396.429819 
L 572.46498 386.029 
L 578.346332 378.334038 
L 584.401283 370.745144 
L 590.618221 363.259413 
L 596.992253 355.877795 
L 605.563193 346.085341 
L 609.60655 341.030297 
L 613.369123 335.809152 
L 615.103074 333.119602 
L 616.703728 330.366415 
L 618.142536 327.544187 
L 619.400777 324.655453 
L 620.466027 321.707355 
L 621.318005 318.705305 
L 621.951407 315.660591 
L 622.380533 312.588098 
L 622.620095 309.499564 
L 622.683756 306.404179 
L 622.584998 303.30935 
L 622.338163 300.221012 
L 621.956908 297.143317 
L 621.450375 294.079636 
L 620.824059 291.033439 
L 619.238881 285.002932 
L 617.298584 279.053667 
L 615.097289 273.17568 
L 611.480802 264.455678 
L 604.075068 247.072468 
L 601.835846 241.205654 
L 599.835602 235.271881 
L 598.147104 229.263033 
L 597.444337 226.229948 
L 596.855482 223.177984 
L 596.397176 220.108612 
L 596.086157 217.024869 
L 595.939354 213.931654 
L 595.973625 210.835956 
L 596.205545 207.746971 
L 596.652132 204.676503 
L 597.331438 201.639671 
L 598.262476 198.655702 
L 599.461441 195.74776 
L 600.93431 192.940277 
L 602.678095 190.256969 
L 604.675635 187.715612 
L 606.903728 185.32892 
L 609.341471 183.108193 
L 611.96882 181.06355 
L 614.766619 179.20419 
L 617.716426 177.538726 
L 620.800241 176.075442 
L 624.000446 174.822799 
L 627.299585 173.79028 
L 630.67958 172.988142 
L 634.120346 172.424178 
L 637.599625 172.092937 
L 641.096872 171.978486 
L 644.595123 172.072314 
L 648.079226 172.367725 
L 651.536014 172.853797 
L 654.954289 173.51906 
L 658.32559 174.35106 
L 661.644521 175.334553 
L 664.908083 176.453565 
L 668.115021 177.693887 
L 671.26432 179.04507 
L 677.385827 182.047417 
L 683.271859 185.398567 
L 688.929307 189.044842 
L 694.38235 192.927611 
L 699.655917 196.999893 
L 704.766105 201.232107 
L 709.731709 205.596996 
L 716.96163 212.333117 
L 724.006555 219.22117 
L 758.916659 253.910728 
L 768.263945 263.129369 
L 770.454194 265.545044 
L 772.507502 268.053518 
L 774.380227 270.6698 
L 776.023129 273.402758 
L 777.378642 276.255816 
L 778.373589 279.224358 
L 778.917508 282.279778 
L 778.909314 285.367845 
L 778.313468 288.412343 
L 777.228352 291.353556 
L 775.797155 294.17975 
L 770.841653 302.376765 
L 769.465581 305.223695 
L 768.483397 308.185905 
L 767.889883 311.234556 
L 767.621787 314.319265 
L 767.641527 317.414875 
L 767.903248 320.503359 
L 768.365399 323.573981 
L 768.99402 326.620306 
L 770.549487 332.656793 
L 781.203979 371.787657 
L 783.081758 377.752998 
L 785.232205 383.64541 
L 786.444142 386.550002 
L 787.768674 389.415828 
L 789.221422 392.232543 
L 790.817126 394.988051 
L 792.569952 397.667934 
L 794.493054 400.254684 
L 796.597713 402.728135 
L 798.888169 405.069097 
L 801.361977 407.259045 
L 804.014477 409.278213 
L 806.84106 411.101946 
L 809.835884 412.701441 
L 812.982143 414.056302 
L 816.24683 415.172358 
L 819.592157 416.082692 
L 822.988937 416.827618 
L 829.865486 417.976549 
L 836.79971 418.830461 
L 850.700358 420.321183 
L 857.59917 421.371417 
L 861.011101 422.062926 
L 864.381247 422.898969 
L 867.691444 423.904563 
L 870.917939 425.103728 
L 874.030423 426.518647 
L 876.99203 428.167159 
L 879.76243 430.057075 
L 882.301422 432.18552 
L 884.57766 434.534886 
L 886.56517 437.081299 
L 888.25173 439.793097 
L 889.641425 442.634 
L 890.744961 445.571615 
L 891.575599 448.578763 
L 892.151806 451.632234 
L 892.497458 454.712917 
L 892.638022 457.806293 
L 892.599632 460.90205 
L 892.408616 463.993457 
L 891.674346 470.150831 
L 890.622551 476.272538 
L 889.37444 482.365614 
L 887.257161 491.463337 
L 882.089933 512.648911 
L 880.808834 518.736518 
L 879.722201 524.853478 
L 878.892893 531.001673 
L 878.38926 537.177192 
L 878.285748 540.271893 
L 878.29592 543.367912 
L 878.430871 546.461622 
L 878.701644 549.548343 
L 879.118998 552.622218 
L 879.691519 555.676437 
L 880.424366 558.703678 
L 881.320924 561.696262 
L 882.37425 564.648692 
L 883.571057 567.558074 
L 884.897617 570.423127 
L 886.34072 573.243792 
L 889.52244 578.758768 
L 893.00921 584.127965 
L 896.700445 589.389464 
L 904.352497 599.76099 
L 910.058104 607.5588 
L 913.719179 612.836754 
L 917.184244 618.217017 
L 920.379208 623.726225 
L 923.220876 629.384438 
L 924.477049 632.274199 
L 925.603313 635.205512 
L 926.583743 638.177505 
L 927.401805 641.187662 
L 928.040278 644.231519 
L 928.483966 647.302271 
L 928.72481 650.390629 
L 928.753801 653.486167 
L 928.557979 656.576944 
L 928.133816 659.649742 
L 927.496425 662.693639 
L 926.665735 665.700876 
L 925.656031 668.665091 
L 924.478166 671.58048 
L 923.143467 674.442499 
L 921.662367 677.247593 
L 920.047067 679.994186 
L 918.312525 682.683389 
L 914.543249 687.90043 
L 910.446237 692.920916 
L 906.091611 697.769112 
L 901.543355 702.476423 
L 894.479896 709.349321 
L 872.865875 729.622431 
L 827.206705 772.396535 
L 808.177947 790.568934 
L 777.470273 820.273415 
L 768.007659 829.401122 
L 763.057214 833.778399 
L 760.439635 835.834072 
L 757.699327 837.760161 
L 754.821205 839.521023 
L 751.79516 841.075575 
L 748.615878 842.370654 
L 745.293209 843.342208 
L 741.856458 843.914228 
L 738.36224 844.038321 
L 734.881782 843.748592 
L 731.46471 843.094232 
L 728.150561 842.102201 
L 724.965329 840.820198 
L 721.919021 839.296524 
L 719.011339 837.573773 
L 716.238101 835.684275 
L 713.594173 833.654387 
L 711.071464 831.507317 
L 708.660581 829.262478 
L 704.105769 824.561492 
L 699.749934 819.713886 
L 693.418607 812.303674 
L 680.890877 797.393701 
L 676.573294 792.519366 
L 672.097839 787.757903 
L 667.41538 783.155195 
L 662.485991 778.758969 
L 657.293704 774.606347 
L 651.82467 770.742132 
L 648.97206 768.948026 
L 646.035173 767.263431 
L 643.011613 765.703113 
L 639.90034 764.284905 
L 636.702706 763.026482 
L 633.42229 761.946116 
L 630.067176 761.065538 
L 626.646186 760.418715 
L 623.173345 760.03625 
L 619.676002 759.9244 
L 616.18223 760.08449 
L 612.719801 760.52706 
L 609.325117 761.276579 
L 606.048806 762.362236 
L 602.953165 763.803959 
L 600.10878 765.604911 
L 597.592767 767.753093 
L 595.469105 770.210641 
L 593.779606 772.919054 
L 592.558496 775.816809 
L 591.833928 778.841486 
L 591.599007 781.927825 
L 591.811563 785.016525 
L 592.425853 788.063433 
L 593.400681 791.036314 
L 594.69781 793.911451 
L 596.281583 796.67191 
L 598.11651 799.307983 
L 600.166072 801.817528 
L 602.395785 804.203865 
L 604.774634 806.474794 
L 607.274632 808.641706 
L 612.538761 812.722242 
L 618.030025 816.562681 
L 623.668463 820.233175 
L 632.295906 825.528971 
L 646.735107 834.277523 
L 652.379008 837.940932 
L 657.858244 841.794175 
L 663.102928 845.894105 
L 665.610457 848.053985 
L 668.024799 850.294982 
L 670.33161 852.623101 
L 672.510036 855.046426 
L 674.533726 857.572727 
L 676.371571 860.207478 
L 677.995088 862.949934 
L 679.392692 865.78825 
L 680.55865 868.706856 
L 681.479622 871.692935 
L 682.133261 874.733622 
L 682.511382 877.810812 
L 682.614365 880.90484 
L 682.442133 883.996503 
L 681.994437 887.066471 
L 681.271346 890.095053 
L 680.273807 893.062005 
L 679.003476 895.946173 
L 677.462277 898.725038 
L 675.653559 901.374721 
L 673.588412 903.873455 
L 671.282775 906.201788 
L 668.753811 908.341001 
L 666.019371 910.272277 
L 663.098103 911.976137 
L 660.01132 913.433559 
L 656.786591 914.634664 
L 653.456027 915.584074 
L 650.048491 916.289025 
L 646.589321 916.75853 
L 643.100432 917.002592 
L 639.600695 917.032091 
L 636.106252 916.858294 
L 632.630796 916.492325 
L 629.185838 915.945258 
L 625.780654 915.229227 
L 622.42239 914.356775 
L 619.116313 913.340193 
L 615.86598 912.191471 
L 612.673433 910.922219 
L 609.539338 909.543638 
L 603.4431 906.501276 
L 597.559682 903.146371 
L 591.856755 899.555368 
L 586.290834 895.799564 
L 578.100071 889.986928 
L 548.374664 868.338548 
L 513.339171 842.652798 
L 513.339171 842.652798 
" clip-path="url(#p700c7ddcde)" style="fill: none; stroke: #ff0000; stroke-width: 1.5; stroke-linecap: square"/>
   </g>
   <g id="line2d_14">
    <path d="M 510.299938 841.053664 
L 342.916351 718.749104 
L 245.492587 647.935068 
L 202.33321 616.413 
L 191.33335 608.456283 
L 188.611876 606.320821 
L 185.94582 604.085012 
L 183.107509 601.920945 
L 180.748311 599.230939 
L 175.962861 593.204698 
L 173.923595 589.558968 
L 173.045455 585.410296 
L 173.468907 581.039354 
L 175.274915 576.752618 
L 178.222547 573.187584 
L 182.009491 570.964719 
L 185.820207 569.171947 
L 189.867946 568.491966 
L 197.509627 568.040007 
L 204.670635 567.217576 
L 208.251352 567.060222 
L 215.417128 567.197762 
L 226.110778 567.834224 
L 243.825042 569.188856 
L 250.875174 569.982779 
L 254.381123 570.494092 
L 261.328798 571.818485 
L 264.780825 572.565373 
L 271.742221 573.857626 
L 275.21201 574.577104 
L 282.093644 576.30405 
L 288.920431 578.27488 
L 295.637264 580.568482 
L 299.095535 581.531214 
L 302.400381 582.812739 
L 308.86153 585.628714 
L 315.281303 588.512522 
L 321.252536 592.026889 
L 327.0867 595.654117 
L 338.444889 603.17438 
L 346.612377 609.139579 
L 376.088933 631.108032 
L 432.6852 672.664881 
L 443.346356 680.531134 
L 448.664495 684.390728 
L 451.415477 686.118617 
L 456.946994 688.712499 
L 459.579354 689.780823 
L 462.385474 690.690255 
L 465.417963 690.996543 
L 468.502985 690.861624 
L 477.694482 688.698709 
L 480.682526 687.490206 
L 483.496306 686.186979 
L 488.246867 683.149971 
L 490.004228 681.064772 
L 491.596631 678.689556 
L 493.04488 676.085756 
L 494.352061 673.380598 
L 495.315883 670.644938 
L 496.142594 667.919641 
L 496.621225 665.137448 
L 496.829241 662.317507 
L 496.857793 659.51013 
L 496.662485 656.751499 
L 495.973089 654.07091 
L 495.112294 651.328386 
L 493.944325 648.559897 
L 490.853045 643.095215 
L 485.927068 634.936022 
L 475.918419 618.561655 
L 462.785199 596.561247 
L 459.906514 590.600148 
L 458.226814 587.523845 
L 457.072103 584.153508 
L 456.279106 580.585813 
L 456.115205 576.876915 
L 456.617813 573.313456 
L 457.824878 570.075798 
L 459.193475 567.046329 
L 461.028067 564.280676 
L 464.276809 558.661604 
L 469.146862 550.372266 
L 483.797553 525.734415 
L 524.43632 457.104093 
L 555.357568 405.019133 
L 563.313094 391.206714 
L 568.210531 382.862817 
L 569.931543 380.100542 
L 573.732641 374.763477 
L 583.603585 361.750548 
L 587.71695 356.662085 
L 592.071417 351.700066 
L 598.863247 344.37732 
L 603.6917 339.666493 
L 613.766564 331.330576 
L 615.816372 329.333858 
L 617.515062 327.104718 
L 618.768133 324.657464 
L 619.81639 322.149741 
L 620.511707 319.53474 
L 620.667529 316.785401 
L 620.450306 313.945247 
L 620.078497 311.027682 
L 618.482568 305.162731 
L 615.107839 293.086347 
L 610.16035 275.049971 
L 602.685001 247.938042 
L 598.604317 232.924476 
L 594.234042 217.781477 
L 593.452344 214.655554 
L 592.843088 211.468292 
L 592.336656 208.21536 
L 592.279588 204.876859 
L 592.622891 201.517934 
L 593.435196 198.213911 
L 594.024749 194.821838 
L 595.187965 191.565177 
L 597.024423 188.612899 
L 599.445247 186.060774 
L 604.446301 181.224934 
L 607.25896 179.124804 
L 609.993329 176.925717 
L 612.968612 174.983276 
L 616.127038 173.277626 
L 622.880782 170.579669 
L 626.343371 169.359732 
L 629.900789 168.329506 
L 633.567821 167.655672 
L 637.29751 167.4 
L 641.034705 167.438038 
L 644.764725 167.672885 
L 652.196293 168.711756 
L 659.047312 171.257324 
L 662.31428 172.65885 
L 668.419837 175.894078 
L 674.384298 179.290867 
L 680.239027 182.83719 
L 685.996494 186.508176 
L 691.630541 190.327742 
L 697.124472 194.305275 
L 702.398641 198.508496 
L 707.477469 202.886968 
L 712.424867 207.360082 
L 722.006771 216.526274 
L 731.321717 225.847978 
L 745.20402 239.765936 
L 763.965267 258.121138 
L 775.746781 269.745554 
L 778.070779 272.195622 
L 780.402338 274.839639 
L 782.61845 277.79314 
L 783.835709 281.275388 
L 784.117833 284.872053 
L 783.500162 288.43871 
L 782.19652 291.904193 
L 780.283535 295.093156 
L 777.970582 297.732622 
L 775.530809 299.934175 
L 773.111614 301.893083 
L 771.10908 303.860788 
L 769.600517 305.702748 
L 769.211757 308.050361 
L 769.550699 310.833392 
L 770.137931 313.732969 
L 775.337194 331.837587 
L 780.159555 349.874318 
L 787.615443 377.009098 
L 790.750829 388.987538 
L 791.650331 391.871987 
L 792.691843 394.672378 
L 794.017808 397.312741 
L 795.517293 399.812319 
L 799.338388 404.365455 
L 801.639513 406.420205 
L 806.502217 410.26756 
L 809.087089 411.840551 
L 811.855786 412.915094 
L 814.861108 413.509503 
L 818.130793 413.936905 
L 828.899387 414.837121 
L 839.21246 416.141597 
L 860.169554 418.299592 
L 871.045333 420.500475 
L 874.660183 421.49892 
L 877.976934 423.103641 
L 881.142191 424.930997 
L 884.115827 427.01546 
L 886.724657 429.449907 
L 889.129958 432.075634 
L 891.181933 434.953059 
L 892.703968 438.078601 
L 893.802651 441.328822 
L 894.642065 444.621215 
L 895.177722 447.920899 
L 895.341941 451.187147 
L 895.137881 454.403127 
L 894.767115 457.575288 
L 893.630022 463.790948 
L 891.765914 472.920686 
L 889.025799 488.2123 
L 886.140549 503.493946 
L 882.059335 524.837694 
L 880.482901 533.995084 
L 880.039264 537.024695 
L 879.715596 540.036551 
L 879.508675 543.021992 
L 879.449007 545.9758 
L 879.64251 551.801438 
L 880.642052 557.602281 
L 881.519027 560.464193 
L 884.890535 568.933835 
L 888.067052 574.244739 
L 891.484535 579.493262 
L 915.809203 613.475622 
L 923.385258 623.967615 
L 927.086322 629.42949 
L 928.735776 632.306443 
L 930.287581 635.247146 
L 931.579688 638.303938 
L 933.240608 644.719372 
L 933.690114 647.999655 
L 933.945051 651.296521 
L 933.954545 654.578818 
L 933.624042 657.814048 
L 932.283782 664.158574 
L 931.381969 667.30309 
L 930.169346 670.38672 
L 928.796748 673.441054 
L 927.185881 676.414883 
L 925.246049 679.202672 
L 923.043931 681.764021 
L 921.004384 684.384282 
L 918.805601 686.856834 
L 916.52267 689.255523 
L 911.748494 693.867734 
L 822.800073 777.253744 
L 789.724462 809.216303 
L 765.950556 832.046291 
L 756.324194 841.158988 
L 753.635906 843.409517 
L 750.692649 845.680266 
L 747.319245 847.731116 
L 743.424368 849.19283 
L 739.191754 850.112498 
L 734.837196 849.782295 
L 730.781127 848.478529 
L 727.125957 846.87041 
L 723.873373 844.989999 
L 721.091711 842.811301 
L 718.614878 840.496637 
L 713.953573 835.754931 
L 696.035072 816.680651 
L 682.543959 802.483066 
L 675.701959 795.518875 
L 670.862473 791.178764 
L 668.519206 788.961977 
L 666.054123 786.866827 
L 660.855244 782.8964 
L 644.41639 771.099786 
L 639.259653 767.090039 
L 634.189405 763.352109 
L 631.474707 761.958226 
L 628.626351 761.225524 
L 625.68381 760.773582 
L 622.5023 760.525184 
L 619.159909 760.837313 
L 615.706833 760.866569 
L 612.40733 761.151246 
L 609.366935 761.867598 
L 606.578231 762.914932 
L 603.828453 764.129953 
L 598.599537 767.360564 
L 594.996853 771.933478 
L 593.712981 774.365231 
L 592.767804 776.859988 
L 592.324474 779.471527 
L 592.204247 782.17871 
L 592.688437 784.90364 
L 593.468427 787.634823 
L 596.239123 792.763948 
L 597.94937 795.18437 
L 600.157431 797.273356 
L 602.533019 799.274393 
L 605.057713 801.224835 
L 610.526581 804.982671 
L 616.218284 808.774367 
L 624.462769 814.652356 
L 637.910213 824.450656 
L 670.709236 847.74171 
L 673.511803 849.759472 
L 676.307184 851.954687 
L 679.087422 854.318216 
L 683.402979 859.994922 
L 684.904559 863.072114 
L 686.268979 866.173011 
L 687.342203 869.358785 
L 688.179224 872.603149 
L 688.649205 875.90143 
L 689.007188 879.218249 
L 688.913775 882.544172 
L 688.52646 885.849075 
L 687.929677 889.127941 
L 687.052643 892.353774 
L 686.009559 895.547897 
L 683.243288 901.776851 
L 678.882897 907.250375 
L 676.538272 909.903214 
L 670.778484 914.280214 
L 667.778445 916.358581 
L 664.638223 918.320653 
L 661.207628 919.857018 
L 657.668911 921.25589 
L 650.170978 922.854078 
L 646.346777 923.27562 
L 642.496408 923.4 
L 638.677434 923.064022 
L 634.953752 922.322301 
L 627.485112 921.067864 
L 623.927599 919.993271 
L 620.477043 918.726742 
L 617.140317 917.281071 
L 607.772224 912.15164 
L 602.000273 908.312635 
L 596.493587 904.316511 
L 577.815966 890.381623 
L 545.345951 866.74607 
L 512.998305 843.027255 
L 512.998305 843.027255 
" clip-path="url(#p700c7ddcde)" style="fill: none; stroke: #000000; stroke-linecap: square"/>
   </g>
   <g id="line2d_15">
    <path d="M 515.944268 835.002052 
L 351.159812 714.742115 
L 267.090226 654.011694 
L 229.299848 626.396713 
L 210.304629 612.623138 
L 196.856182 602.955201 
L 191.904615 598.966419 
L 189.622377 596.857403 
L 188.000378 594.383192 
L 186.672953 592.05421 
L 185.329586 590.057911 
L 184.365227 588.070089 
L 184.007974 585.933842 
L 184.162961 583.957574 
L 184.543834 582.413143 
L 185.289936 580.961006 
L 186.97595 579.608196 
L 189.264184 578.068819 
L 192.160336 577.06461 
L 198.365856 575.669261 
L 201.642165 575.120779 
L 205.007564 574.818393 
L 211.817684 574.64759 
L 218.682775 574.758889 
L 229.022645 575.253573 
L 246.20433 576.482798 
L 253.023873 577.331395 
L 259.746438 578.641225 
L 263.08141 579.39016 
L 269.833557 580.579611 
L 273.195965 581.247588 
L 279.805979 582.923766 
L 286.285691 584.869128 
L 292.622355 587.045455 
L 295.87124 587.951855 
L 298.964288 589.190801 
L 301.968124 590.594879 
L 308.124127 593.177231 
L 311.157214 594.566786 
L 316.854997 597.894509 
L 322.443801 601.381096 
L 330.663564 606.888484 
L 344.241122 616.475053 
L 428.016485 677.548418 
L 436.146242 683.542352 
L 441.653664 687.559094 
L 444.389691 689.64446 
L 447.360303 691.575929 
L 450.686905 693.212589 
L 454.174448 694.736326 
L 457.865397 696.02844 
L 461.704307 697.056032 
L 465.681251 697.527253 
L 469.628823 697.174069 
L 473.41668 696.43038 
L 480.705831 694.594794 
L 487.526039 691.584927 
L 490.760791 689.55008 
L 493.98195 687.31567 
L 496.426288 684.510726 
L 498.281288 681.475429 
L 499.870763 678.407417 
L 501.306661 675.340759 
L 503.359184 668.990063 
L 503.923103 665.682811 
L 504.142998 662.284068 
L 504.069689 658.834647 
L 503.586659 655.387079 
L 502.765228 652.038537 
L 501.593347 648.882557 
L 500.187008 645.898399 
L 497.02206 640.267379 
L 492.067797 632.009139 
L 482.14357 615.672271 
L 469.093376 593.861571 
L 466.426063 588.518238 
L 465.235703 585.852195 
L 464.662272 583.124674 
L 464.476017 580.537483 
L 464.676239 578.138234 
L 465.312958 575.710414 
L 467.137842 570.201364 
L 468.317566 567.316315 
L 469.631211 564.478106 
L 474.270594 556.228805 
L 498.258965 514.903077 
L 509.528082 495.655771 
L 532.408258 457.318865 
L 563.481169 405.240021 
L 568.256954 396.958815 
L 572.929871 388.726475 
L 576.180339 383.359783 
L 579.839164 378.219236 
L 587.601791 368.091805 
L 593.629311 360.566301 
L 597.808129 355.702929 
L 604.227224 348.590671 
L 608.744734 344.064306 
L 613.786049 339.974823 
L 619.169654 335.487673 
L 621.706898 332.821342 
L 623.80895 329.835993 
L 625.478778 326.633959 
L 626.720281 323.269372 
L 627.415476 319.816417 
L 627.581097 316.40093 
L 627.304399 313.065897 
L 625.101085 303.639242 
L 621.647115 291.677738 
L 616.528323 273.62752 
L 608.832063 246.623561 
L 604.590289 231.538826 
L 599.288715 213.83975 
L 598.644823 210.927567 
L 598.274638 207.996835 
L 598.199138 205.084627 
L 598.62212 202.275704 
L 599.309109 199.627383 
L 599.806452 196.927693 
L 600.737485 194.239941 
L 602.303333 191.748026 
L 606.26871 187.169796 
L 608.471254 185.03687 
L 610.795657 182.985885 
L 613.315696 181.103825 
L 615.95595 179.320766 
L 618.839648 177.850887 
L 624.904566 175.448396 
L 627.945345 174.278299 
L 631.087295 173.42289 
L 634.274092 172.843357 
L 637.474277 172.608567 
L 640.648667 172.584977 
L 643.831933 172.681863 
L 650.2813 173.517021 
L 653.334826 174.593135 
L 659.272222 177.301233 
L 665.196866 180.419464 
L 671.030032 183.720115 
L 676.752344 187.163655 
L 682.388856 190.710542 
L 687.894125 194.408494 
L 693.195483 198.322611 
L 698.30352 202.421764 
L 708.205085 210.93751 
L 713.033866 215.348386 
L 720.078312 222.18524 
L 752.731189 254.580769 
L 771.461112 272.916377 
L 775.716667 277.513344 
L 777.537954 279.657659 
L 778.371915 281.892475 
L 778.382223 284.210818 
L 778.256938 286.847718 
L 777.236587 289.485738 
L 775.848774 292.021254 
L 773.956827 294.324097 
L 771.665637 296.537386 
L 768.947661 298.714196 
L 766.266554 301.436815 
L 763.97801 304.836949 
L 763.382623 308.448206 
L 764.037001 311.750863 
L 764.874838 314.903455 
L 767.617951 323.935194 
L 770.077477 332.93663 
L 774.885457 351.036531 
L 782.277266 378.110706 
L 785.452257 390.302732 
L 786.417616 393.393365 
L 787.548455 396.48563 
L 788.929432 399.542024 
L 792.725693 405.304458 
L 795.026081 407.968318 
L 800.558659 412.493052 
L 803.466618 414.679155 
L 806.705347 416.551035 
L 810.36014 417.685776 
L 814.025781 418.471798 
L 817.641981 418.94581 
L 828.055782 419.839665 
L 838.546193 421.196847 
L 859.138117 423.37086 
L 862.503757 423.965117 
L 865.769342 424.772939 
L 869.064898 425.32319 
L 872.220663 426.123392 
L 874.94284 427.554434 
L 879.855494 430.692153 
L 884.126092 434.722426 
L 885.911944 437.112311 
L 887.272188 439.740879 
L 888.249218 442.500286 
L 888.990552 445.296678 
L 889.36316 448.125129 
L 889.515788 453.897832 
L 888.600106 459.829484 
L 884.953525 478.241428 
L 881.604014 496.534501 
L 875.729097 527.11469 
L 874.670216 533.315306 
L 874.216833 536.45725 
L 873.573031 542.813601 
L 873.476709 546.023117 
L 873.627581 549.24287 
L 873.923573 552.465549 
L 874.942634 558.884129 
L 875.872735 562.021421 
L 878.200224 568.16616 
L 879.461326 571.208673 
L 886.55746 582.219045 
L 912.811734 618.850156 
L 918.421744 626.650693 
L 921.963468 631.867016 
L 925.164207 637.069611 
L 926.256222 639.786193 
L 927.62347 645.299077 
L 928.047854 648.167206 
L 928.22204 651.13324 
L 928.208871 654.151896 
L 927.983886 657.147569 
L 927.470532 660.05344 
L 926.854416 662.900715 
L 926.04356 665.695996 
L 924.912174 668.423808 
L 923.655439 671.135118 
L 922.225046 673.791356 
L 920.519659 676.319532 
L 912.033147 685.751774 
L 907.428958 690.343447 
L 900.294721 697.138086 
L 811.427585 780.56868 
L 756.212431 832.445339 
L 748.980394 839.00628 
L 746.582352 840.619502 
L 744.583014 842.185204 
L 742.297973 842.957621 
L 739.612451 843.68815 
L 736.668327 843.524897 
L 731.289544 841.70929 
L 728.686444 840.302379 
L 726.187608 838.454135 
L 723.804648 836.310256 
L 719.177839 831.767228 
L 700.897427 812.992473 
L 687.065488 798.9496 
L 679.974638 791.987279 
L 669.824945 783.133995 
L 664.432543 779.003825 
L 648.22048 767.338413 
L 642.861098 763.162933 
L 639.988791 761.115227 
L 636.844774 759.251978 
L 633.522233 757.473378 
L 629.863646 756.132098 
L 626.031346 755.543195 
L 622.222885 755.304008 
L 614.800156 755.743446 
L 611.164958 756.386325 
L 607.52455 757.177041 
L 603.964041 758.356015 
L 600.591398 759.967277 
L 594.058557 763.874014 
L 589.529953 769.620565 
L 587.936189 772.814493 
L 586.85552 776.151912 
L 586.257345 779.551075 
L 586.321279 782.967199 
L 587.98561 789.617918 
L 591.321458 795.753136 
L 593.365483 798.608497 
L 596.081391 800.864779 
L 598.498259 803.309488 
L 601.200962 805.443406 
L 606.776959 809.372033 
L 612.2841 813.134997 
L 617.65471 817.02032 
L 639.163678 832.957375 
L 655.382054 844.711839 
L 668.801197 854.57053 
L 671.390245 856.364315 
L 673.756368 858.186935 
L 675.592461 860.298172 
L 677.123572 862.644561 
L 678.462738 865.17971 
L 679.667018 867.85313 
L 680.617239 870.623918 
L 681.383932 873.443449 
L 681.855964 876.308962 
L 681.714998 884.91871 
L 681.13817 887.722725 
L 679.515142 893.235742 
L 678.359644 895.898545 
L 677.076748 898.52851 
L 675.306228 900.910138 
L 671.336954 905.378117 
L 668.822574 907.146605 
L 666.488234 909.082295 
L 661.272377 912.322962 
L 658.454828 913.604845 
L 655.466939 914.446425 
L 649.337827 915.532849 
L 646.195695 915.862223 
L 643.013322 915.857991 
L 633.549319 914.593425 
L 630.458624 913.856469 
L 627.416876 912.921731 
L 624.425024 911.803458 
L 621.490469 910.508346 
L 613.035449 905.767895 
L 607.601221 902.161805 
L 602.270792 898.298639 
L 583.453925 884.275691 
L 551.017614 860.68872 
L 518.644477 836.975381 
L 518.644477 836.975381 
" clip-path="url(#p700c7ddcde)" style="fill: none; stroke: #000000; stroke-linecap: square"/>
   </g>
   <g id="patch_3">
    <path d="M 135 961.2 
L 135 129.6 
" style="fill: none; stroke: #000000; stroke-width: 0.8; stroke-linejoin: miter; stroke-linecap: square"/>
   </g>
   <g id="patch_4">
    <path d="M 972 961.2 
L 972 129.6 
" style="fill: none; stroke: #000000; stroke-width: 0.8; stroke-linejoin: miter; stroke-linecap: square"/>
   </g>
   <g id="patch_5">
    <path d="M 135 961.2 
L 972 961.2 
" style="fill: none; stroke: #000000; stroke-width: 0.8; stroke-linejoin: miter; stroke-linecap: square"/>
   </g>
   <g id="patch_6">
    <path d="M 135 129.6 
L 972 129.6 
" style="fill: none; stroke: #000000; stroke-width: 0.8; stroke-linejoin: miter; stroke-linecap: square"/>
   </g>
  </g>
 </g>
 <defs>
  <clipPath id="p700c7ddcde">
   <rect x="135" y="129.6" width="837" height="831.6"/>
  </clipPath>
 </defs>
</svg>
