<?xml version="1.0" encoding="utf-8" standalone="no"?>
<!DOCTYPE svg PUBLIC "-//W3C//DTD SVG 1.1//EN"
  "http://www.w3.org/Graphics/SVG/1.1/DTD/svg11.dtd">
<svg xmlns:xlink="http://www.w3.org/1999/xlink" width="1440pt" height="1440pt" viewBox="0 0 1440 1440" xmlns="http://www.w3.org/2000/svg" version="1.1">
 <metadata>
  <rdf:RDF xmlns:dc="http://purl.org/dc/elements/1.1/" xmlns:cc="http://creativecommons.org/ns#" xmlns:rdf="http://www.w3.org/1999/02/22-rdf-syntax-ns#">
   <cc:Work>
    <dc:type rdf:resource="http://purl.org/dc/dcmitype/StillImage"/>
    <dc:date>2023-08-20T22:06:32.218140</dc:date>
    <dc:format>image/svg+xml</dc:format>
    <dc:creator>
     <cc:Agent>
      <dc:title>Matplotlib v3.7.2, https://matplotlib.org/</dc:title>
     </cc:Agent>
    </dc:creator>
   </cc:Work>
  </rdf:RDF>
 </metadata>
 <defs>
  <style type="text/css">*{stroke-linejoin: round; stroke-linecap: butt}</style>
 </defs>
 <g id="figure_1">
  <g id="patch_1">
   <path d="M 0 1440 
L 1440 1440 
L 1440 0 
L 0 0 
z
" style="fill: #ffffff"/>
  </g>
  <g id="axes_1">
   <g id="patch_2">
    <path d="M 180 1281.6 
L 1296 1281.6 
L 1296 172.8 
L 180 172.8 
z
" style="fill: #ffffff"/>
   </g>
   <g id="matplotlib.axis_1">
    <g id="xtick_1">
     <g id="line2d_1">
      <defs>
       <path id="m2704fd405b" d="M 0 0 
L 0 3.5 
" style="stroke: #000000; stroke-width: 0.8"/>
      </defs>
      <g>
       <use xlink:href="#m2704fd405b" x="312.973988" y="1281.6" style="stroke: #000000; stroke-width: 0.8"/>
      </g>
     </g>
     <g id="text_1">
      <!-- −400 -->
      <g transform="translate(299.240394 1296.198437) scale(0.1 -0.1)">
       <defs>
        <path id="DejaVuSans-2212" d="M 678 2272 
L 4684 2272 
L 4684 1741 
L 678 1741 
L 678 2272 
z
" transform="scale(0.015625)"/>
        <path id="DejaVuSans-34" d="M 2419 4116 
L 825 1625 
L 2419 1625 
L 2419 4116 
z
M 2253 4666 
L 3047 4666 
L 3047 1625 
L 3713 1625 
L 3713 1100 
L 3047 1100 
L 3047 0 
L 2419 0 
L 2419 1100 
L 313 1100 
L 313 1709 
L 2253 4666 
z
" transform="scale(0.015625)"/>
        <path id="DejaVuSans-30" d="M 2034 4250 
Q 1547 4250 1301 3770 
Q 1056 3291 1056 2328 
Q 1056 1369 1301 889 
Q 1547 409 2034 409 
Q 2525 409 2770 889 
Q 3016 1369 3016 2328 
Q 3016 3291 2770 3770 
Q 2525 4250 2034 4250 
z
M 2034 4750 
Q 2819 4750 3233 4129 
Q 3647 3509 3647 2328 
Q 3647 1150 3233 529 
Q 2819 -91 2034 -91 
Q 1250 -91 836 529 
Q 422 1150 422 2328 
Q 422 3509 836 4129 
Q 1250 4750 2034 4750 
z
" transform="scale(0.015625)"/>
       </defs>
       <use xlink:href="#DejaVuSans-2212"/>
       <use xlink:href="#DejaVuSans-34" x="83.789062"/>
       <use xlink:href="#DejaVuSans-30" x="147.412109"/>
       <use xlink:href="#DejaVuSans-30" x="211.035156"/>
      </g>
     </g>
    </g>
    <g id="xtick_2">
     <g id="line2d_2">
      <g>
       <use xlink:href="#m2704fd405b" x="499.754418" y="1281.6" style="stroke: #000000; stroke-width: 0.8"/>
      </g>
     </g>
     <g id="text_2">
      <!-- −200 -->
      <g transform="translate(486.020825 1296.198437) scale(0.1 -0.1)">
       <defs>
        <path id="DejaVuSans-32" d="M 1228 531 
L 3431 531 
L 3431 0 
L 469 0 
L 469 531 
Q 828 903 1448 1529 
Q 2069 2156 2228 2338 
Q 2531 2678 2651 2914 
Q 2772 3150 2772 3378 
Q 2772 3750 2511 3984 
Q 2250 4219 1831 4219 
Q 1534 4219 1204 4116 
Q 875 4013 500 3803 
L 500 4441 
Q 881 4594 1212 4672 
Q 1544 4750 1819 4750 
Q 2544 4750 2975 4387 
Q 3406 4025 3406 3419 
Q 3406 3131 3298 2873 
Q 3191 2616 2906 2266 
Q 2828 2175 2409 1742 
Q 1991 1309 1228 531 
z
" transform="scale(0.015625)"/>
       </defs>
       <use xlink:href="#DejaVuSans-2212"/>
       <use xlink:href="#DejaVuSans-32" x="83.789062"/>
       <use xlink:href="#DejaVuSans-30" x="147.412109"/>
       <use xlink:href="#DejaVuSans-30" x="211.035156"/>
      </g>
     </g>
    </g>
    <g id="xtick_3">
     <g id="line2d_3">
      <g>
       <use xlink:href="#m2704fd405b" x="686.534849" y="1281.6" style="stroke: #000000; stroke-width: 0.8"/>
      </g>
     </g>
     <g id="text_3">
      <!-- 0 -->
      <g transform="translate(683.353599 1296.198437) scale(0.1 -0.1)">
       <use xlink:href="#DejaVuSans-30"/>
      </g>
     </g>
    </g>
    <g id="xtick_4">
     <g id="line2d_4">
      <g>
       <use xlink:href="#m2704fd405b" x="873.31528" y="1281.6" style="stroke: #000000; stroke-width: 0.8"/>
      </g>
     </g>
     <g id="text_4">
      <!-- 200 -->
      <g transform="translate(863.77153 1296.198437) scale(0.1 -0.1)">
       <use xlink:href="#DejaVuSans-32"/>
       <use xlink:href="#DejaVuSans-30" x="63.623047"/>
       <use xlink:href="#DejaVuSans-30" x="127.246094"/>
      </g>
     </g>
    </g>
    <g id="xtick_5">
     <g id="line2d_5">
      <g>
       <use xlink:href="#m2704fd405b" x="1060.095711" y="1281.6" style="stroke: #000000; stroke-width: 0.8"/>
      </g>
     </g>
     <g id="text_5">
      <!-- 400 -->
      <g transform="translate(1050.551961 1296.198437) scale(0.1 -0.1)">
       <use xlink:href="#DejaVuSans-34"/>
       <use xlink:href="#DejaVuSans-30" x="63.623047"/>
       <use xlink:href="#DejaVuSans-30" x="127.246094"/>
      </g>
     </g>
    </g>
    <g id="xtick_6">
     <g id="line2d_6">
      <g>
       <use xlink:href="#m2704fd405b" x="1246.876141" y="1281.6" style="stroke: #000000; stroke-width: 0.8"/>
      </g>
     </g>
     <g id="text_6">
      <!-- 600 -->
      <g transform="translate(1237.332391 1296.198437) scale(0.1 -0.1)">
       <defs>
        <path id="DejaVuSans-36" d="M 2113 2584 
Q 1688 2584 1439 2293 
Q 1191 2003 1191 1497 
Q 1191 994 1439 701 
Q 1688 409 2113 409 
Q 2538 409 2786 701 
Q 3034 994 3034 1497 
Q 3034 2003 2786 2293 
Q 2538 2584 2113 2584 
z
M 3366 4563 
L 3366 3988 
Q 3128 4100 2886 4159 
Q 2644 4219 2406 4219 
Q 1781 4219 1451 3797 
Q 1122 3375 1075 2522 
Q 1259 2794 1537 2939 
Q 1816 3084 2150 3084 
Q 2853 3084 3261 2657 
Q 3669 2231 3669 1497 
Q 3669 778 3244 343 
Q 2819 -91 2113 -91 
Q 1303 -91 875 529 
Q 447 1150 447 2328 
Q 447 3434 972 4092 
Q 1497 4750 2381 4750 
Q 2619 4750 2861 4703 
Q 3103 4656 3366 4563 
z
" transform="scale(0.015625)"/>
       </defs>
       <use xlink:href="#DejaVuSans-36"/>
       <use xlink:href="#DejaVuSans-30" x="63.623047"/>
       <use xlink:href="#DejaVuSans-30" x="127.246094"/>
      </g>
     </g>
    </g>
   </g>
   <g id="matplotlib.axis_2">
    <g id="ytick_1">
     <g id="line2d_7">
      <defs>
       <path id="m92392d43d6" d="M 0 0 
L -3.5 0 
" style="stroke: #000000; stroke-width: 0.8"/>
      </defs>
      <g>
       <use xlink:href="#m92392d43d6" x="180" y="1117.382429" style="stroke: #000000; stroke-width: 0.8"/>
      </g>
     </g>
     <g id="text_7">
      <!-- 0 -->
      <g transform="translate(166.6375 1121.181647) scale(0.1 -0.1)">
       <use xlink:href="#DejaVuSans-30"/>
      </g>
     </g>
    </g>
    <g id="ytick_2">
     <g id="line2d_8">
      <g>
       <use xlink:href="#m92392d43d6" x="180" y="952.17295" style="stroke: #000000; stroke-width: 0.8"/>
      </g>
     </g>
     <g id="text_8">
      <!-- 200 -->
      <g transform="translate(153.9125 955.972169) scale(0.1 -0.1)">
       <use xlink:href="#DejaVuSans-32"/>
       <use xlink:href="#DejaVuSans-30" x="63.623047"/>
       <use xlink:href="#DejaVuSans-30" x="127.246094"/>
      </g>
     </g>
    </g>
    <g id="ytick_3">
     <g id="line2d_9">
      <g>
       <use xlink:href="#m92392d43d6" x="180" y="786.963472" style="stroke: #000000; stroke-width: 0.8"/>
      </g>
     </g>
     <g id="text_9">
      <!-- 400 -->
      <g transform="translate(153.9125 790.76269) scale(0.1 -0.1)">
       <use xlink:href="#DejaVuSans-34"/>
       <use xlink:href="#DejaVuSans-30" x="63.623047"/>
       <use xlink:href="#DejaVuSans-30" x="127.246094"/>
      </g>
     </g>
    </g>
    <g id="ytick_4">
     <g id="line2d_10">
      <g>
       <use xlink:href="#m92392d43d6" x="180" y="621.753993" style="stroke: #000000; stroke-width: 0.8"/>
      </g>
     </g>
     <g id="text_10">
      <!-- 600 -->
      <g transform="translate(153.9125 625.553212) scale(0.1 -0.1)">
       <use xlink:href="#DejaVuSans-36"/>
       <use xlink:href="#DejaVuSans-30" x="63.623047"/>
       <use xlink:href="#DejaVuSans-30" x="127.246094"/>
      </g>
     </g>
    </g>
    <g id="ytick_5">
     <g id="line2d_11">
      <g>
       <use xlink:href="#m92392d43d6" x="180" y="456.544515" style="stroke: #000000; stroke-width: 0.8"/>
      </g>
     </g>
     <g id="text_11">
      <!-- 800 -->
      <g transform="translate(153.9125 460.343733) scale(0.1 -0.1)">
       <defs>
        <path id="DejaVuSans-38" d="M 2034 2216 
Q 1584 2216 1326 1975 
Q 1069 1734 1069 1313 
Q 1069 891 1326 650 
Q 1584 409 2034 409 
Q 2484 409 2743 651 
Q 3003 894 3003 1313 
Q 3003 1734 2745 1975 
Q 2488 2216 2034 2216 
z
M 1403 2484 
Q 997 2584 770 2862 
Q 544 3141 544 3541 
Q 544 4100 942 4425 
Q 1341 4750 2034 4750 
Q 2731 4750 3128 4425 
Q 3525 4100 3525 3541 
Q 3525 3141 3298 2862 
Q 3072 2584 2669 2484 
Q 3125 2378 3379 2068 
Q 3634 1759 3634 1313 
Q 3634 634 3220 271 
Q 2806 -91 2034 -91 
Q 1263 -91 848 271 
Q 434 634 434 1313 
Q 434 1759 690 2068 
Q 947 2378 1403 2484 
z
M 1172 3481 
Q 1172 3119 1398 2916 
Q 1625 2713 2034 2713 
Q 2441 2713 2670 2916 
Q 2900 3119 2900 3481 
Q 2900 3844 2670 4047 
Q 2441 4250 2034 4250 
Q 1625 4250 1398 4047 
Q 1172 3844 1172 3481 
z
" transform="scale(0.015625)"/>
       </defs>
       <use xlink:href="#DejaVuSans-38"/>
       <use xlink:href="#DejaVuSans-30" x="63.623047"/>
       <use xlink:href="#DejaVuSans-30" x="127.246094"/>
      </g>
     </g>
    </g>
    <g id="ytick_6">
     <g id="line2d_12">
      <g>
       <use xlink:href="#m92392d43d6" x="180" y="291.335036" style="stroke: #000000; stroke-width: 0.8"/>
      </g>
     </g>
     <g id="text_12">
      <!-- 1000 -->
      <g transform="translate(147.55 295.134255) scale(0.1 -0.1)">
       <defs>
        <path id="DejaVuSans-31" d="M 794 531 
L 1825 531 
L 1825 4091 
L 703 3866 
L 703 4441 
L 1819 4666 
L 2450 4666 
L 2450 531 
L 3481 531 
L 3481 0 
L 794 0 
L 794 531 
z
" transform="scale(0.015625)"/>
       </defs>
       <use xlink:href="#DejaVuSans-31"/>
       <use xlink:href="#DejaVuSans-30" x="63.623047"/>
       <use xlink:href="#DejaVuSans-30" x="127.246094"/>
       <use xlink:href="#DejaVuSans-30" x="190.869141"/>
      </g>
     </g>
    </g>
   </g>
   <g id="line2d_13">
    <path d="M 680.86055 1120.900808 
L 429.388491 936.421453 
L 368.083068 891.869623 
L 310.238031 850.095972 
L 266.792712 818.83398 
L 263.300565 816.095244 
L 259.926786 813.242993 
L 256.713646 810.24942 
L 253.709156 807.091213 
L 250.968146 803.751168 
L 248.553137 800.220172 
L 246.534532 796.500001 
L 244.996281 792.605008 
L 244.03764 788.568068 
L 243.759401 784.450346 
L 244.256311 780.348906 
L 245.556803 776.392336 
L 247.623652 772.711534 
L 250.394356 769.389323 
L 253.711874 766.484257 
L 257.457293 764.027367 
L 261.523217 762.002774 
L 265.817675 760.388689 
L 270.269259 759.150634 
L 274.823101 758.249394 
L 279.44009 757.646707 
L 284.091294 757.306029 
L 288.75658 757.190294 
L 293.422657 757.262848 
L 298.082418 757.48617 
L 307.375251 758.256392 
L 316.621944 759.382104 
L 325.808601 760.842789 
L 334.922981 762.622991 
L 343.954552 764.707537 
L 352.894366 767.081562 
L 361.734933 769.730529 
L 370.470041 772.640476 
L 379.093185 775.800905 
L 387.597391 779.20421 
L 395.975873 782.843312 
L 404.223936 786.708633 
L 412.341401 790.784514 
L 420.330035 795.054921 
L 428.192863 799.504347 
L 435.935891 804.115272 
L 443.567034 808.869936 
L 451.095333 813.751227 
L 462.217027 821.274688 
L 473.16704 828.992761 
L 483.98229 836.858232 
L 498.241753 847.516329 
L 515.899698 861.011381 
L 551.162136 888.056101 
L 565.442282 898.692113 
L 572.74487 903.83399 
L 576.487803 906.30049 
L 580.307428 908.673115 
L 584.213896 910.932182 
L 588.215652 913.056716 
L 592.318547 915.024061 
L 596.525346 916.810563 
L 600.837041 918.389451 
L 605.252446 919.726496 
L 609.764264 920.78098 
L 614.357028 921.508235 
L 619.004442 921.872534 
L 623.669259 921.851335 
L 628.30862 921.422094 
L 632.874323 920.574244 
L 637.31396 919.308004 
L 641.572901 917.625548 
L 645.587409 915.524257 
L 649.274691 912.996822 
L 652.540266 910.053226 
L 655.337715 906.752611 
L 657.673852 903.180704 
L 659.569536 899.410643 
L 661.050009 895.497773 
L 662.133332 891.483826 
L 662.834962 887.403686 
L 663.173115 883.287234 
L 663.165923 879.159938 
L 662.828164 875.043074 
L 662.172402 870.956161 
L 661.22791 866.913752 
L 660.035855 862.92284 
L 658.634932 858.985368 
L 657.0575 855.100394 
L 655.32736 851.266444 
L 653.465977 847.480782 
L 649.432499 840.035342 
L 645.116118 832.714482 
L 631.899636 810.877487 
L 627.869826 803.430991 
L 626.012636 799.643972 
L 624.290299 795.807573 
L 622.7277 791.918068 
L 621.355048 787.972869 
L 620.204958 783.972444 
L 619.309452 779.921513 
L 618.699258 775.829375 
L 618.402999 771.710274 
L 618.441238 767.583124 
L 618.788864 763.466891 
L 619.393557 759.373858 
L 620.219708 755.31125 
L 621.2421 751.283601 
L 622.443436 747.294683 
L 623.80721 743.346803 
L 625.316874 739.440636 
L 626.956279 735.575554 
L 630.561759 727.960549 
L 634.508384 720.478718 
L 638.699799 713.101639 
L 658.170617 680.18006 
L 699.374205 610.724854 
L 708.271872 596.20804 
L 717.343554 581.775732 
L 726.599536 567.435291 
L 736.057907 553.198569 
L 745.737052 539.078445 
L 755.656253 525.089321 
L 763.286639 514.705333 
L 771.128443 504.445384 
L 779.201711 494.326858 
L 787.490962 484.345884 
L 795.989671 474.503727 
L 807.417591 461.447121 
L 812.808733 454.707063 
L 815.372244 451.25744 
L 817.825497 447.745536 
L 820.137431 444.15947 
L 822.271637 440.488553 
L 824.190049 436.725582 
L 825.867703 432.873937 
L 827.288035 428.94314 
L 828.424007 424.940407 
L 829.268542 420.880788 
L 829.840711 416.78413 
L 830.160126 412.666085 
L 830.245008 408.538906 
L 830.11333 404.412467 
L 829.784218 400.294683 
L 829.275878 396.191089 
L 828.6005 392.106181 
L 827.765412 388.044585 
L 826.777805 384.010048 
L 825.651842 380.003909 
L 823.064779 372.071556 
L 820.129718 364.23424 
L 816.953575 356.470595 
L 805.433424 329.429957 
L 802.447794 321.607538 
L 799.780803 313.695842 
L 798.597447 309.702638 
L 797.529472 305.684044 
L 796.592449 301.63993 
L 795.80731 297.570646 
L 795.196234 293.47815 
L 794.781543 289.366492 
L 794.585805 285.242205 
L 794.6315 281.114609 
L 794.940726 276.995962 
L 795.536177 272.902004 
L 796.441918 268.852894 
L 797.683301 264.87427 
L 799.281922 260.997013 
L 801.245747 257.253703 
L 803.570793 253.675958 
L 806.23418 250.287483 
L 809.204971 247.105227 
L 812.455294 244.144258 
L 815.958427 241.418067 
L 819.688826 238.93892 
L 823.621901 236.718302 
L 827.733655 234.767256 
L 832.000594 233.097065 
L 836.399446 231.720374 
L 840.906106 230.650855 
L 845.493795 229.898904 
L 850.132833 229.457249 
L 854.795829 229.304648 
L 859.460163 229.429753 
L 864.105635 229.823633 
L 868.714685 230.471729 
L 873.272386 231.358747 
L 877.767453 232.46808 
L 882.192695 233.779403 
L 886.544111 235.27142 
L 890.820028 236.925183 
L 895.019094 238.726761 
L 899.139649 240.665216 
L 903.181103 242.72989 
L 907.143967 244.910607 
L 911.029146 247.198089 
L 914.837685 249.584149 
L 922.239114 254.613843 
L 929.387448 259.922688 
L 936.307151 265.463621 
L 943.020791 271.1996 
L 949.556779 277.094049 
L 955.94884 283.110823 
L 965.342073 292.294893 
L 1008.748945 335.493307 
L 1021.301156 347.71563 
L 1024.351927 350.839159 
L 1027.272259 354.060059 
L 1030.010003 357.40469 
L 1032.50697 360.893066 
L 1034.697506 364.537011 
L 1036.504856 368.341088 
L 1037.831451 372.299144 
L 1038.556678 376.373038 
L 1038.545752 380.49046 
L 1037.751291 384.549791 
L 1036.304469 388.471408 
L 1034.396207 392.239667 
L 1027.788871 403.16902 
L 1025.954108 406.964926 
L 1024.64453 410.91454 
L 1023.853178 414.979407 
L 1023.495715 419.092353 
L 1023.522036 423.219833 
L 1023.870997 427.337812 
L 1024.487198 431.431975 
L 1025.325359 435.493742 
L 1027.399316 443.542391 
L 1040.448092 491.717604 
L 1042.820183 499.702863 
L 1045.488599 507.614436 
L 1046.976274 511.527214 
L 1048.592189 515.400002 
L 1050.358232 519.221103 
L 1052.295229 522.976725 
L 1054.422835 526.650735 
L 1056.759936 530.223913 
L 1059.324072 533.672912 
L 1062.130284 536.970846 
L 1065.184226 540.092129 
L 1068.482637 543.01206 
L 1072.019303 545.704284 
L 1075.78808 548.135928 
L 1079.781179 550.268589 
L 1083.976191 552.07507 
L 1088.329106 553.563144 
L 1092.789542 554.776922 
L 1097.318583 555.770158 
L 1101.889472 556.597709 
L 1111.103976 557.909155 
L 1120.368623 558.923576 
L 1134.267144 560.428244 
L 1138.878627 561.06566 
L 1143.46556 561.828556 
L 1148.014801 562.750568 
L 1152.508329 563.865292 
L 1156.921925 565.206085 
L 1161.223919 566.80497 
L 1165.373897 568.691529 
L 1169.322706 570.889546 
L 1173.016573 573.409433 
L 1176.401897 576.24736 
L 1179.436881 579.379848 
L 1182.086893 582.775065 
L 1184.33564 586.390796 
L 1186.188566 590.178666 
L 1187.659948 594.095487 
L 1188.767465 598.105018 
L 1189.535742 602.176312 
L 1189.996611 606.283889 
L 1190.184029 610.408391 
L 1190.132842 614.536067 
L 1189.878154 618.657943 
L 1189.455473 622.769063 
L 1188.237967 630.954298 
L 1186.69176 639.096418 
L 1184.927206 647.204026 
L 1182.014355 659.317795 
L 1177.04614 679.485768 
L 1175.238513 687.585799 
L 1173.64979 695.72145 
L 1172.361844 703.898377 
L 1171.460469 712.115338 
L 1171.18568 716.236256 
L 1171.047665 720.362524 
L 1171.061227 724.490549 
L 1171.241162 728.615496 
L 1171.602191 732.731124 
L 1172.158664 736.829624 
L 1172.922025 740.901916 
L 1173.899155 744.938237 
L 1175.094565 748.928349 
L 1176.499 752.864923 
L 1178.094743 756.744098 
L 1179.863489 760.564169 
L 1181.787627 764.325056 
L 1183.849199 768.028575 
L 1186.029921 771.678357 
L 1190.678946 778.837287 
L 1195.600593 785.852619 
L 1203.236994 796.233166 
L 1213.410806 810.078401 
L 1218.292239 817.115672 
L 1222.912325 824.289357 
L 1225.09394 827.93874 
L 1227.172278 831.634967 
L 1229.133436 835.380917 
L 1230.961168 839.179251 
L 1232.636066 843.032265 
L 1234.137751 846.940682 
L 1235.444991 850.90334 
L 1236.53574 854.916883 
L 1237.387037 858.975359 
L 1237.978621 863.069694 
L 1238.299746 867.187506 
L 1238.338401 871.314889 
L 1238.077305 875.435925 
L 1237.511754 879.532989 
L 1236.6619 883.591519 
L 1235.554314 887.601167 
L 1234.208041 891.553454 
L 1232.637554 895.44064 
L 1230.857956 899.256666 
L 1228.883157 902.99679 
L 1226.729422 906.658915 
L 1224.4167 910.244519 
L 1221.964897 913.757051 
L 1219.390998 917.200573 
L 1216.708238 920.578565 
L 1211.062673 927.152976 
L 1205.117193 933.517591 
L 1198.953149 939.717665 
L 1189.450414 948.812983 
L 1157.400636 978.823089 
L 1109.319088 1023.832459 
L 1087.061249 1044.986281 
L 1058.649476 1072.352101 
L 1024.010211 1105.868163 
L 1020.763281 1108.833455 
L 1017.409619 1111.704532 
L 1013.919513 1114.44543 
L 1010.26577 1117.013548 
L 1006.428273 1119.361364 
L 1002.393547 1121.434099 
L 998.154505 1123.160872 
L 993.724278 1124.456277 
L 989.141943 1125.218971 
L 984.482987 1125.384427 
L 979.842376 1124.998122 
L 975.28628 1124.125643 
L 970.867415 1122.802934 
L 966.620438 1121.093598 
L 962.558694 1119.062033 
L 958.681785 1116.76503 
L 954.984134 1114.2457 
L 951.458897 1111.539183 
L 948.095285 1108.676423 
L 944.880774 1105.683304 
L 941.796391 1102.585684 
L 935.880491 1096.19998 
L 930.157855 1089.677288 
L 921.784548 1079.751392 
L 910.675993 1066.480073 
L 904.998096 1059.92681 
L 899.144649 1053.495706 
L 893.047174 1047.244812 
L 886.64409 1041.238285 
L 883.314655 1038.345292 
L 879.89752 1035.533425 
L 876.391605 1032.808463 
L 872.794778 1030.177809 
L 869.09956 1027.656176 
L 865.296081 1025.264035 
L 861.380231 1023.017909 
L 857.348817 1020.937484 
L 853.200453 1019.04654 
L 848.936942 1017.368643 
L 844.563053 1015.928155 
L 840.089568 1014.75405 
L 835.528248 1013.89162 
L 830.897793 1013.381667 
L 826.234669 1013.232533 
L 821.576307 1013.445987 
L 816.959734 1014.036081 
L 812.43349 1015.035439 
L 808.065074 1016.482982 
L 803.937553 1018.405279 
L 800.14504 1020.806548 
L 796.790356 1023.670791 
L 793.958806 1026.947521 
L 791.706141 1030.558738 
L 790.077995 1034.422411 
L 789.111904 1038.455315 
L 788.798676 1042.570433 
L 789.082083 1046.6887 
L 789.901138 1050.751244 
L 791.200908 1054.715086 
L 792.930413 1058.548601 
L 795.042111 1062.229214 
L 797.48868 1065.743978 
L 800.221429 1069.090037 
L 803.19438 1072.27182 
L 806.366178 1075.299725 
L 809.699509 1078.188941 
L 813.160362 1080.958384 
L 820.349908 1086.222556 
L 827.778812 1091.221438 
L 835.369689 1096.026808 
L 846.925825 1103.020086 
L 858.494635 1109.996763 
L 866.09819 1114.785659 
L 873.524366 1119.786962 
L 877.144325 1122.392233 
L 880.686556 1125.079665 
L 884.137237 1127.858807 
L 887.480609 1130.738646 
L 890.699732 1133.726643 
L 893.77548 1136.830801 
L 896.680048 1140.061902 
L 899.378302 1143.430303 
L 901.828761 1146.943304 
L 903.99345 1150.599912 
L 905.856923 1154.384334 
L 907.411533 1158.275808 
L 908.639496 1162.257247 
L 909.511015 1166.311496 
L 910.015176 1170.414416 
L 910.152487 1174.539787 
L 909.922844 1178.662004 
L 909.325916 1182.755295 
L 908.361795 1186.793404 
L 907.031743 1190.74934 
L 905.337968 1194.594897 
L 903.283035 1198.300051 
L 900.871412 1201.832962 
L 898.117883 1205.164607 
L 895.043699 1208.269051 
L 891.671748 1211.121334 
L 888.025828 1213.696369 
L 884.130804 1215.968182 
L 880.015094 1217.911413 
L 875.715454 1219.512886 
L 871.274703 1220.778766 
L 866.731322 1221.718701 
L 862.119095 1222.344706 
L 857.467242 1222.670122 
L 852.800926 1222.709454 
L 848.14167 1222.477725 
L 843.507729 1221.989767 
L 838.91445 1221.260344 
L 834.374205 1220.305636 
L 829.89652 1219.142367 
L 825.488417 1217.786924 
L 821.154641 1216.255294 
L 816.897911 1214.562959 
L 812.719118 1212.724851 
L 808.617507 1210.755356 
L 804.5908 1208.668368 
L 800.635339 1206.477317 
L 792.917544 1201.834413 
L 785.412922 1196.925109 
L 778.059646 1191.839392 
L 763.579817 1181.41635 
L 723.974796 1152.52083 
L 684.452228 1123.537064 
L 684.452228 1123.537064 
" clip-path="url(#p11f6245f0e)" style="fill: none; stroke: #ff0000; stroke-width: 1.5; stroke-linecap: square"/>
   </g>
   <g id="line2d_14">
    <path d="M 680.399917 1121.404886 
L 464.442175 963.569663 
L 338.122032 871.816177 
L 266.141815 819.294208 
L 258.783154 814.016789 
L 251.482501 808.427762 
L 247.92776 805.446682 
L 244.143345 802.561261 
L 240.997749 798.974585 
L 234.617148 790.939598 
L 231.898126 786.078624 
L 230.727273 780.547062 
L 231.291876 774.719139 
L 233.699886 769.003491 
L 237.630063 764.250111 
L 242.679321 761.286291 
L 247.760276 758.895929 
L 253.157262 757.989288 
L 263.34617 757.386676 
L 272.89418 756.290101 
L 277.668469 756.080296 
L 287.222838 756.263682 
L 296.73995 756.804875 
L 306.21213 757.452058 
L 315.661029 758.154237 
L 325.100057 758.918474 
L 329.810544 759.380683 
L 339.174831 760.65879 
L 348.438398 762.424647 
L 353.0411 763.420497 
L 362.322961 765.143502 
L 366.949347 766.102806 
L 376.124859 768.4054 
L 385.227242 771.033173 
L 394.183018 774.091309 
L 398.794046 775.374952 
L 403.200508 777.083652 
L 411.815373 780.838285 
L 416.133887 782.697671 
L 420.375071 784.683363 
L 428.336714 789.369185 
L 436.1156 794.20549 
L 451.259852 804.232507 
L 462.149836 812.186105 
L 497.860992 838.841828 
L 533.850462 865.122643 
L 562.613503 886.227013 
L 598.219327 912.520971 
L 601.887303 914.824822 
L 609.262659 918.283332 
L 612.772472 919.707764 
L 616.513966 920.92034 
L 620.557284 921.328724 
L 624.670646 921.148832 
L 632.708976 919.22895 
L 636.925976 918.264945 
L 640.910035 916.653609 
L 644.661741 914.915972 
L 650.995823 910.866627 
L 653.338971 908.086362 
L 655.462175 904.919408 
L 657.393173 901.447675 
L 659.136081 897.840797 
L 660.421177 894.193251 
L 661.523459 890.559521 
L 662.161633 886.849931 
L 662.438988 883.090009 
L 662.477057 879.34684 
L 662.216646 875.668665 
L 661.297452 872.094547 
L 660.149726 868.437848 
L 658.592433 864.74653 
L 654.470727 857.460287 
L 647.902758 846.581362 
L 634.557892 824.748873 
L 617.046932 795.414996 
L 613.208685 787.466864 
L 610.969085 783.365126 
L 609.429471 778.871343 
L 608.372142 774.114417 
L 608.153607 769.169221 
L 608.82375 764.417941 
L 610.433171 760.101064 
L 612.257967 756.061771 
L 614.70409 752.374235 
L 616.931179 748.639389 
L 621.179052 741.166972 
L 629.891029 726.549698 
L 647.224967 697.317584 
L 694.898674 616.78189 
L 742.617135 536.36073 
L 751.084125 521.608952 
L 755.387793 514.183969 
L 759.908725 506.800723 
L 762.394934 503.211256 
L 770.174455 492.679855 
L 775.452007 485.754532 
L 780.851925 478.92938 
L 783.6226 475.549446 
L 789.428556 468.933421 
L 798.484329 459.16976 
L 801.64652 455.992249 
L 804.922266 452.888658 
L 818.355419 441.774101 
L 821.088496 439.111811 
L 823.353416 436.139624 
L 825.024177 432.876619 
L 826.421853 429.532988 
L 827.348943 426.046319 
L 827.556705 422.380535 
L 827.267074 418.593662 
L 826.771329 414.703577 
L 825.772709 410.819128 
L 821.226419 394.80126 
L 814.663837 370.741128 
L 803.580001 330.584056 
L 798.139089 310.565968 
L 792.312056 290.375303 
L 791.269792 286.207405 
L 790.457451 281.957723 
L 789.782208 277.62048 
L 789.706118 273.169145 
L 790.163855 268.690579 
L 791.246928 264.285215 
L 792.032998 259.76245 
L 793.583953 255.420236 
L 796.032563 251.483866 
L 799.260329 248.081031 
L 805.928401 241.633246 
L 809.678613 238.833073 
L 813.324439 235.900956 
L 817.291483 233.311035 
L 821.502718 231.036835 
L 825.968063 229.177597 
L 830.507709 227.439558 
L 835.124494 225.812976 
L 839.867718 224.439342 
L 844.757094 223.540896 
L 849.730013 223.2 
L 854.71294 223.250718 
L 859.686299 223.563847 
L 869.595057 224.949008 
L 878.729749 228.343099 
L 883.085707 230.2118 
L 891.226449 234.525438 
L 899.179064 239.054489 
L 906.985369 243.78292 
L 914.661992 248.677569 
L 922.174055 253.770323 
L 929.499296 259.073701 
L 933.064072 261.828209 
L 939.942445 267.578213 
L 946.626962 273.479021 
L 953.125592 279.515784 
L 962.675695 288.701698 
L 972.013283 298.015118 
L 993.605359 319.687915 
L 1012.345606 338.045793 
L 1031.19644 356.488348 
L 1037.427705 362.927496 
L 1040.536451 366.452852 
L 1043.491267 370.390853 
L 1045.114278 375.033851 
L 1045.490443 379.829404 
L 1044.666883 384.584946 
L 1042.928694 389.20559 
L 1040.378047 393.457542 
L 1037.29411 396.976829 
L 1034.041078 399.912234 
L 1030.815486 402.524111 
L 1028.14544 405.147718 
L 1026.134023 407.603665 
L 1025.615676 410.733815 
L 1026.067599 414.444523 
L 1026.850574 418.310625 
L 1032.707715 438.421029 
L 1042.44004 474.514522 
L 1049.085715 498.640425 
L 1054.334439 518.65005 
L 1055.533775 522.495983 
L 1056.922457 526.229837 
L 1058.690411 529.750322 
L 1060.689724 533.083092 
L 1065.784517 539.15394 
L 1068.852684 541.893606 
L 1072.073923 544.51966 
L 1075.33629 547.023413 
L 1078.782785 549.120735 
L 1082.474381 550.553459 
L 1086.481477 551.346004 
L 1090.841058 551.915873 
L 1100.405601 552.61095 
L 1105.199182 553.116161 
L 1118.949947 554.855463 
L 1132.73129 556.153478 
L 1142.119995 557.116434 
L 1146.892739 557.732789 
L 1156.521086 559.636272 
L 1161.393777 560.667301 
L 1166.213577 561.99856 
L 1170.635912 564.138188 
L 1174.856255 566.574663 
L 1178.821102 569.353947 
L 1182.299543 572.599876 
L 1185.506611 576.100845 
L 1188.242577 579.937412 
L 1190.271957 584.104802 
L 1191.736868 588.438429 
L 1192.856086 592.828287 
L 1193.570296 597.227865 
L 1193.789255 601.582863 
L 1193.517175 605.870836 
L 1193.02282 610.100384 
L 1192.325817 614.271957 
L 1187.53105 638.698894 
L 1183.865548 659.11309 
L 1174.648422 707.93238 
L 1173.385685 716.032927 
L 1172.954129 720.048734 
L 1172.678233 724.029323 
L 1172.598676 727.967733 
L 1172.669731 731.861435 
L 1172.85668 735.73525 
L 1174.189403 743.469708 
L 1175.358702 747.28559 
L 1179.854046 758.578446 
L 1184.089403 765.659652 
L 1188.646047 772.657683 
L 1196.161634 783.033548 
L 1203.689572 793.554551 
L 1216.040254 811.043284 
L 1231.180344 831.95682 
L 1236.115096 839.23932 
L 1238.314368 843.075257 
L 1240.383441 846.996195 
L 1242.10625 851.071918 
L 1244.320811 859.625829 
L 1244.920152 863.99954 
L 1245.260069 868.395361 
L 1245.272727 872.771757 
L 1244.832056 877.085397 
L 1244.005862 881.328629 
L 1243.045042 885.544765 
L 1241.842626 889.737453 
L 1240.225794 893.848961 
L 1238.395664 897.921405 
L 1236.247841 901.886511 
L 1233.661398 905.603562 
L 1230.725241 909.018695 
L 1228.005846 912.512376 
L 1225.074134 915.809113 
L 1222.030227 919.007364 
L 1215.664658 925.156979 
L 1103.447453 1030.315651 
L 1090.753782 1042.413709 
L 1014.869561 1115.468038 
L 1008.432259 1121.545317 
L 1004.847875 1124.546023 
L 1000.923532 1127.573687 
L 996.42566 1130.308155 
L 991.232491 1132.257106 
L 985.589005 1133.48333 
L 979.782928 1133.04306 
L 974.374836 1131.304706 
L 969.501276 1129.160547 
L 965.164498 1126.653332 
L 961.455615 1123.748401 
L 958.153171 1120.662182 
L 951.938097 1114.339908 
L 934.005041 1095.259219 
L 916.086158 1076.258778 
L 903.995537 1063.755878 
L 900.935945 1060.691833 
L 897.649267 1057.837875 
L 891.358942 1051.949303 
L 888.072163 1049.155769 
L 884.660351 1046.476558 
L 877.534386 1041.28708 
L 862.797339 1030.863463 
L 845.585874 1017.802812 
L 841.966276 1015.944301 
L 838.168468 1014.967366 
L 834.245079 1014.364776 
L 830.003066 1014.033578 
L 825.546545 1014.449751 
L 820.942444 1014.488759 
L 816.543107 1014.868329 
L 812.489247 1015.823464 
L 808.770974 1017.21991 
L 805.104604 1018.839937 
L 798.132716 1023.147419 
L 793.329137 1029.244637 
L 791.617308 1032.486975 
L 790.357072 1035.813317 
L 789.765965 1039.295369 
L 789.605663 1042.904947 
L 790.251249 1046.538186 
L 791.291236 1050.179764 
L 794.985497 1057.018597 
L 797.265826 1060.245826 
L 800.209908 1063.031141 
L 803.377359 1065.69919 
L 806.743617 1068.29978 
L 814.035442 1073.310228 
L 821.624378 1078.365823 
L 829.001097 1083.57096 
L 854.187576 1101.841512 
L 879.776966 1119.908289 
L 898.015737 1133.01263 
L 901.742912 1135.939583 
L 905.449896 1139.090954 
L 908.405774 1142.862753 
L 911.203972 1146.659896 
L 913.206079 1150.762818 
L 915.025305 1154.897349 
L 916.456271 1159.145046 
L 917.572298 1163.470865 
L 918.19894 1167.868574 
L 918.67625 1172.290999 
L 918.5517 1176.725563 
L 918.035281 1181.132099 
L 917.23957 1185.503921 
L 916.070191 1189.805032 
L 914.679412 1194.063862 
L 910.991051 1202.369134 
L 905.177195 1209.667167 
L 902.051029 1213.204285 
L 894.371313 1219.040285 
L 890.37126 1221.811441 
L 886.184298 1224.427538 
L 881.61017 1226.476024 
L 876.891882 1228.341187 
L 866.894637 1230.472104 
L 861.795703 1231.034159 
L 856.661878 1231.2 
L 851.569912 1230.752029 
L 846.605002 1229.763068 
L 836.646816 1228.090485 
L 831.903466 1226.657694 
L 827.302724 1224.968989 
L 822.853757 1223.041428 
L 818.646466 1220.780808 
L 814.550656 1218.415521 
L 810.362965 1216.202186 
L 806.46245 1213.678674 
L 798.960427 1208.435627 
L 788.203088 1200.369848 
L 777.592899 1192.413043 
L 759.575813 1179.336976 
L 734.320451 1160.935885 
L 683.99774 1124.036341 
L 683.99774 1124.036341 
" clip-path="url(#p11f6245f0e)" style="fill: none; stroke: #000000; stroke-linecap: square"/>
   </g>
   <g id="line2d_15">
    <path d="M 687.92569 1113.33607 
L 475.451447 958.209882 
L 359.726168 874.636918 
L 316.526676 843.104635 
L 287.672386 822.0546 
L 262.474909 803.940268 
L 259.108571 801.314866 
L 255.87282 798.621892 
L 252.829836 795.80987 
L 250.667171 792.510923 
L 248.897271 789.405613 
L 247.106114 786.743881 
L 245.820303 784.093452 
L 245.343965 781.245122 
L 245.550614 778.610099 
L 246.058445 776.550858 
L 247.053248 774.614675 
L 249.301267 772.810929 
L 252.352245 770.758425 
L 256.213781 769.41948 
L 264.487808 767.559015 
L 268.85622 766.827705 
L 273.343418 766.424524 
L 277.871559 766.253962 
L 286.993904 766.220451 
L 296.168834 766.537482 
L 305.363526 767.004764 
L 328.27244 768.64373 
L 337.365164 769.775193 
L 341.864121 770.578279 
L 350.775213 772.520213 
L 359.778075 774.106148 
L 364.261287 774.996784 
L 373.074639 777.231688 
L 381.714254 779.825505 
L 390.16314 782.727273 
L 394.494986 783.935807 
L 398.61905 785.587735 
L 402.624165 787.459839 
L 410.832169 790.902974 
L 414.876286 792.755715 
L 422.473329 797.192678 
L 429.925068 801.841462 
L 437.253944 806.694098 
L 451.765621 816.780249 
L 466.20104 827.222749 
L 523.959513 869.267675 
L 556.380392 892.82621 
L 592.519588 919.525947 
L 596.480404 922.101239 
L 600.915873 924.283452 
L 605.565931 926.315101 
L 610.487197 928.03792 
L 615.605742 929.408043 
L 620.908335 930.036338 
L 626.171764 929.565425 
L 631.222241 928.57384 
L 636.121164 927.411487 
L 640.941108 926.126391 
L 650.034719 922.113236 
L 654.347721 919.400106 
L 658.6426 916.420894 
L 661.901717 912.680968 
L 664.375051 908.633906 
L 666.494351 904.543223 
L 668.408881 900.454345 
L 671.145579 891.98675 
L 671.89747 887.577082 
L 672.190664 883.045424 
L 672.092919 878.446196 
L 671.448879 873.849439 
L 670.353637 869.384716 
L 668.791129 865.176743 
L 666.91601 861.197865 
L 662.69608 853.689839 
L 656.090396 842.678852 
L 642.858093 820.896361 
L 625.457835 791.815428 
L 621.901418 784.690985 
L 620.314271 781.13626 
L 619.549696 777.499565 
L 619.301356 774.049978 
L 619.568319 770.850979 
L 620.417278 767.613885 
L 622.850456 760.268485 
L 624.423421 756.421753 
L 626.174948 752.637475 
L 630.255166 745.294915 
L 638.790527 730.652389 
L 655.844732 701.247831 
L 675.037143 668.187674 
L 698.955319 628.003055 
L 751.308225 540.320029 
L 757.675938 529.27842 
L 763.906495 518.301967 
L 768.240452 511.146377 
L 770.627309 507.694735 
L 775.670649 500.913846 
L 780.829454 494.152522 
L 788.797484 484.071429 
L 794.273806 477.492986 
L 802.749901 467.91367 
L 808.594105 461.722797 
L 811.659645 458.752409 
L 815.052 456.085451 
L 825.559539 447.316898 
L 828.942531 443.761789 
L 831.745267 439.781324 
L 833.971704 435.511946 
L 835.627042 431.025829 
L 836.553968 426.421889 
L 836.774797 421.867907 
L 836.405866 417.421196 
L 833.468113 404.852323 
L 829.979995 392.912421 
L 823.190015 368.840833 
L 811.776084 328.831414 
L 806.120386 308.718435 
L 799.05162 285.119667 
L 798.193097 281.236756 
L 797.699518 277.329114 
L 797.598851 273.44617 
L 798.162827 269.700939 
L 799.078811 266.169845 
L 799.741936 262.570257 
L 800.983313 258.986588 
L 803.071111 255.664035 
L 808.35828 249.559728 
L 811.295005 246.715827 
L 814.394209 243.98118 
L 817.754261 241.471767 
L 821.2746 239.094355 
L 825.119531 237.134516 
L 829.137111 235.463566 
L 837.26046 232.371066 
L 841.449727 231.23052 
L 845.698789 230.457809 
L 849.965703 230.144756 
L 854.198223 230.113303 
L 858.442578 230.242484 
L 867.041733 231.356027 
L 871.113101 232.790846 
L 879.029629 236.401644 
L 886.929154 240.559285 
L 894.70671 244.960154 
L 902.336459 249.551539 
L 909.851809 254.280722 
L 917.192166 259.211326 
L 924.260644 264.430149 
L 931.07136 269.895686 
L 944.273447 281.250013 
L 950.711821 287.131182 
L 960.104416 296.246987 
L 975.547309 311.760431 
L 987.980287 324.131937 
L 1006.781978 342.493451 
L 1025.571105 360.818443 
L 1031.566237 366.983782 
L 1036.717272 372.876879 
L 1037.82922 375.856634 
L 1037.842964 378.947757 
L 1037.675918 382.463623 
L 1036.31545 385.980984 
L 1034.465032 389.361672 
L 1031.942436 392.43213 
L 1028.887516 395.383182 
L 1025.263549 398.285594 
L 1021.688739 401.915754 
L 1018.637347 406.449265 
L 1017.843498 411.264275 
L 1018.716001 415.667817 
L 1019.833117 419.871274 
L 1023.490602 431.913592 
L 1026.769969 443.915507 
L 1032.08167 464.031199 
L 1044.070691 508.163325 
L 1047.269676 520.403642 
L 1048.556822 524.524486 
L 1050.064607 528.647507 
L 1051.905909 532.722698 
L 1056.96759 540.405944 
L 1060.034774 543.957757 
L 1067.411545 549.990735 
L 1071.288824 552.90554 
L 1075.607129 555.40138 
L 1080.480187 556.914368 
L 1085.367708 557.962397 
L 1090.189309 558.594413 
L 1099.488541 559.292527 
L 1104.074376 559.78622 
L 1118.06159 561.595796 
L 1131.879184 562.939861 
L 1140.982502 563.897567 
L 1145.517489 564.49448 
L 1150.005009 565.286822 
L 1154.359123 566.363918 
L 1158.753197 567.097587 
L 1162.960883 568.164522 
L 1166.590453 570.072579 
L 1173.140659 574.256204 
L 1175.885025 576.924141 
L 1178.834789 579.629901 
L 1181.215926 582.816415 
L 1183.029584 586.321172 
L 1184.33229 590.000382 
L 1185.320736 593.728904 
L 1185.817547 597.500172 
L 1186.021051 605.19711 
L 1184.800142 613.105979 
L 1179.938034 637.655237 
L 1176.249515 657.988107 
L 1166.91959 706.937652 
L 1165.622444 715.276333 
L 1164.764041 723.751468 
L 1164.635612 728.030822 
L 1164.836774 732.323827 
L 1165.23143 736.620732 
L 1166.590178 745.178839 
L 1167.830313 749.361895 
L 1170.933632 757.55488 
L 1172.615101 761.611565 
L 1174.987013 765.350918 
L 1177.206986 769.106759 
L 1184.580882 779.802039 
L 1197.096229 797.156469 
L 1209.506177 814.733334 
L 1224.562325 835.534258 
L 1229.284625 842.489354 
L 1233.552275 849.426148 
L 1235.008296 853.048257 
L 1236.831293 860.39877 
L 1237.397139 864.222941 
L 1237.629387 868.177653 
L 1237.611828 872.202528 
L 1237.311848 876.196758 
L 1236.627375 880.071254 
L 1235.805888 883.86762 
L 1234.724746 887.594661 
L 1233.216232 891.231744 
L 1231.540586 894.846824 
L 1229.633394 898.388474 
L 1227.359546 901.759376 
L 1216.044196 914.335698 
L 1209.905277 920.457929 
L 1200.392961 929.517448 
L 1094.697478 1028.722246 
L 1024.404666 1094.938791 
L 1001.807299 1115.895573 
L 998.640525 1118.675041 
L 995.443137 1120.826002 
L 992.777352 1122.913606 
L 989.730631 1123.943494 
L 986.149934 1124.917533 
L 982.224437 1124.699863 
L 975.052725 1122.279054 
L 971.581925 1120.403172 
L 968.250144 1117.938847 
L 965.072864 1115.080341 
L 958.903785 1109.022971 
L 940.623112 1090.257506 
L 922.273354 1071.486815 
L 909.82219 1059.064297 
L 906.63285 1055.983039 
L 896.57065 1047.073499 
L 893.099927 1044.17866 
L 889.537631 1041.373906 
L 882.246335 1036.047403 
L 867.782219 1025.790171 
L 853.318388 1014.820303 
L 849.126366 1012.335971 
L 844.696311 1009.964504 
L 839.818195 1008.176131 
L 834.708462 1007.390927 
L 829.630513 1007.072011 
L 824.638662 1007.293183 
L 819.733541 1007.657928 
L 814.886611 1008.5151 
L 810.032733 1009.569388 
L 805.285388 1011.141353 
L 800.788531 1013.289702 
L 796.46175 1015.804387 
L 792.078076 1018.498686 
L 786.039938 1026.160754 
L 783.914918 1030.419324 
L 782.474027 1034.869216 
L 781.67646 1039.401434 
L 781.761705 1043.956265 
L 782.812178 1048.386878 
L 783.980813 1052.82389 
L 788.42861 1061.004182 
L 791.153978 1064.811329 
L 794.775188 1067.819705 
L 797.997678 1071.079317 
L 801.601282 1073.924541 
L 809.035945 1079.16271 
L 816.378799 1084.179996 
L 823.539614 1089.360426 
L 848.586678 1107.993438 
L 873.842738 1126.282453 
L 891.734929 1139.427373 
L 895.186993 1141.819087 
L 898.341824 1144.249247 
L 900.789948 1147.064229 
L 902.831429 1150.192748 
L 904.616984 1153.572946 
L 906.222691 1157.137507 
L 907.489652 1160.831891 
L 908.511909 1164.591266 
L 909.141286 1168.411949 
L 909.058086 1172.253354 
L 909.119063 1176.073932 
L 908.95333 1179.891613 
L 908.184227 1183.6303 
L 907.043655 1187.280672 
L 906.020189 1190.98099 
L 904.479525 1194.531393 
L 902.768998 1198.038014 
L 900.408304 1201.213518 
L 897.82343 1204.231232 
L 895.115938 1207.170822 
L 891.763432 1209.528807 
L 888.650979 1212.109727 
L 881.696502 1216.430615 
L 877.93977 1218.139793 
L 873.955919 1219.2619 
L 865.78377 1220.710466 
L 861.594261 1221.14963 
L 857.351096 1221.143987 
L 844.732425 1219.457901 
L 840.611498 1218.475292 
L 836.555834 1217.228975 
L 832.566699 1215.737944 
L 828.653959 1214.011128 
L 824.903644 1211.956331 
L 821.204501 1209.774054 
L 817.380599 1207.690526 
L 813.733587 1205.337232 
L 806.571414 1200.341288 
L 795.939213 1192.376471 
L 785.170144 1184.310049 
L 767.08916 1171.200359 
L 741.87947 1152.851716 
L 691.52597 1115.967175 
L 691.52597 1115.967175 
" clip-path="url(#p11f6245f0e)" style="fill: none; stroke: #000000; stroke-linecap: square"/>
   </g>
   <g id="patch_3">
    <path d="M 180 1281.6 
L 180 172.8 
" style="fill: none; stroke: #000000; stroke-width: 0.8; stroke-linejoin: miter; stroke-linecap: square"/>
   </g>
   <g id="patch_4">
    <path d="M 1296 1281.6 
L 1296 172.8 
" style="fill: none; stroke: #000000; stroke-width: 0.8; stroke-linejoin: miter; stroke-linecap: square"/>
   </g>
   <g id="patch_5">
    <path d="M 180 1281.6 
L 1296 1281.6 
" style="fill: none; stroke: #000000; stroke-width: 0.8; stroke-linejoin: miter; stroke-linecap: square"/>
   </g>
   <g id="patch_6">
    <path d="M 180 172.8 
L 1296 172.8 
" style="fill: none; stroke: #000000; stroke-width: 0.8; stroke-linejoin: miter; stroke-linecap: square"/>
   </g>
  </g>
 </g>
 <defs>
  <clipPath id="p11f6245f0e">
   <rect x="180" y="172.8" width="1116" height="1108.8"/>
  </clipPath>
 </defs>
</svg>
