<?xml version="1.0" encoding="utf-8" standalone="no"?>
<!DOCTYPE svg PUBLIC "-//W3C//DTD SVG 1.1//EN"
  "http://www.w3.org/Graphics/SVG/1.1/DTD/svg11.dtd">
<svg xmlns:xlink="http://www.w3.org/1999/xlink" width="460.8pt" height="345.6pt" viewBox="0 0 460.8 345.6" xmlns="http://www.w3.org/2000/svg" version="1.1">
 <metadata>
  <rdf:RDF xmlns:dc="http://purl.org/dc/elements/1.1/" xmlns:cc="http://creativecommons.org/ns#" xmlns:rdf="http://www.w3.org/1999/02/22-rdf-syntax-ns#">
   <cc:Work>
    <dc:type rdf:resource="http://purl.org/dc/dcmitype/StillImage"/>
    <dc:date>2023-08-31T12:47:17.190209</dc:date>
    <dc:format>image/svg+xml</dc:format>
    <dc:creator>
     <cc:Agent>
      <dc:title>Matplotlib v3.7.2, https://matplotlib.org/</dc:title>
     </cc:Agent>
    </dc:creator>
   </cc:Work>
  </rdf:RDF>
 </metadata>
 <defs>
  <style type="text/css">*{stroke-linejoin: round; stroke-linecap: butt}</style>
 </defs>
 <g id="figure_1">
  <g id="patch_1">
   <path d="M 0 345.6 
L 460.8 345.6 
L 460.8 0 
L 0 0 
z
" style="fill: #ffffff"/>
  </g>
  <g id="axes_1">
   <g id="patch_2">
    <path d="M 57.6 162.432 
L 414.72 162.432 
L 414.72 41.472 
L 57.6 41.472 
z
" style="fill: #ffffff"/>
   </g>
   <g id="matplotlib.axis_1">
    <g id="xtick_1">
     <g id="line2d_1">
      <defs>
       <path id="meff6109316" d="M 0 0 
L 0 3.5 
" style="stroke: #000000; stroke-width: 0.8"/>
      </defs>
      <g>
       <use xlink:href="#meff6109316" x="70.553388" y="162.432" style="stroke: #000000; stroke-width: 0.8"/>
      </g>
     </g>
    </g>
    <g id="xtick_2">
     <g id="line2d_2">
      <g>
       <use xlink:href="#meff6109316" x="136.140165" y="162.432" style="stroke: #000000; stroke-width: 0.8"/>
      </g>
     </g>
    </g>
    <g id="xtick_3">
     <g id="line2d_3">
      <g>
       <use xlink:href="#meff6109316" x="201.726942" y="162.432" style="stroke: #000000; stroke-width: 0.8"/>
      </g>
     </g>
    </g>
    <g id="xtick_4">
     <g id="line2d_4">
      <g>
       <use xlink:href="#meff6109316" x="267.313719" y="162.432" style="stroke: #000000; stroke-width: 0.8"/>
      </g>
     </g>
    </g>
    <g id="xtick_5">
     <g id="line2d_5">
      <g>
       <use xlink:href="#meff6109316" x="332.900496" y="162.432" style="stroke: #000000; stroke-width: 0.8"/>
      </g>
     </g>
    </g>
    <g id="xtick_6">
     <g id="line2d_6">
      <g>
       <use xlink:href="#meff6109316" x="398.487273" y="162.432" style="stroke: #000000; stroke-width: 0.8"/>
      </g>
     </g>
    </g>
   </g>
   <g id="matplotlib.axis_2">
    <g id="ytick_1">
     <g id="line2d_7">
      <defs>
       <path id="m30a9061fad" d="M 0 0 
L -3.5 0 
" style="stroke: #000000; stroke-width: 0.8"/>
      </defs>
      <g>
       <use xlink:href="#m30a9061fad" x="57.6" y="156.933818" style="stroke: #000000; stroke-width: 0.8"/>
      </g>
     </g>
     <g id="text_1">
      <!-- 0 -->
      <g transform="translate(44.2375 160.733037) scale(0.1 -0.1)">
       <defs>
        <path id="DejaVuSans-30" d="M 2034 4250 
Q 1547 4250 1301 3770 
Q 1056 3291 1056 2328 
Q 1056 1369 1301 889 
Q 1547 409 2034 409 
Q 2525 409 2770 889 
Q 3016 1369 3016 2328 
Q 3016 3291 2770 3770 
Q 2525 4250 2034 4250 
z
M 2034 4750 
Q 2819 4750 3233 4129 
Q 3647 3509 3647 2328 
Q 3647 1150 3233 529 
Q 2819 -91 2034 -91 
Q 1250 -91 836 529 
Q 422 1150 422 2328 
Q 422 3509 836 4129 
Q 1250 4750 2034 4750 
z
" transform="scale(0.015625)"/>
       </defs>
       <use xlink:href="#DejaVuSans-30"/>
      </g>
     </g>
    </g>
    <g id="ytick_2">
     <g id="line2d_8">
      <g>
       <use xlink:href="#m30a9061fad" x="57.6" y="121.119042" style="stroke: #000000; stroke-width: 0.8"/>
      </g>
     </g>
     <g id="text_2">
      <!-- 50 -->
      <g transform="translate(37.875 124.91826) scale(0.1 -0.1)">
       <defs>
        <path id="DejaVuSans-35" d="M 691 4666 
L 3169 4666 
L 3169 4134 
L 1269 4134 
L 1269 2991 
Q 1406 3038 1543 3061 
Q 1681 3084 1819 3084 
Q 2600 3084 3056 2656 
Q 3513 2228 3513 1497 
Q 3513 744 3044 326 
Q 2575 -91 1722 -91 
Q 1428 -91 1123 -41 
Q 819 9 494 109 
L 494 744 
Q 775 591 1075 516 
Q 1375 441 1709 441 
Q 2250 441 2565 725 
Q 2881 1009 2881 1497 
Q 2881 1984 2565 2268 
Q 2250 2553 1709 2553 
Q 1456 2553 1204 2497 
Q 953 2441 691 2322 
L 691 4666 
z
" transform="scale(0.015625)"/>
       </defs>
       <use xlink:href="#DejaVuSans-35"/>
       <use xlink:href="#DejaVuSans-30" x="63.623047"/>
      </g>
     </g>
    </g>
    <g id="ytick_3">
     <g id="line2d_9">
      <g>
       <use xlink:href="#m30a9061fad" x="57.6" y="85.304265" style="stroke: #000000; stroke-width: 0.8"/>
      </g>
     </g>
     <g id="text_3">
      <!-- 100 -->
      <g transform="translate(31.5125 89.103484) scale(0.1 -0.1)">
       <defs>
        <path id="DejaVuSans-31" d="M 794 531 
L 1825 531 
L 1825 4091 
L 703 3866 
L 703 4441 
L 1819 4666 
L 2450 4666 
L 2450 531 
L 3481 531 
L 3481 0 
L 794 0 
L 794 531 
z
" transform="scale(0.015625)"/>
       </defs>
       <use xlink:href="#DejaVuSans-31"/>
       <use xlink:href="#DejaVuSans-30" x="63.623047"/>
       <use xlink:href="#DejaVuSans-30" x="127.246094"/>
      </g>
     </g>
    </g>
    <g id="ytick_4">
     <g id="line2d_10">
      <g>
       <use xlink:href="#m30a9061fad" x="57.6" y="49.489488" style="stroke: #000000; stroke-width: 0.8"/>
      </g>
     </g>
     <g id="text_4">
      <!-- 150 -->
      <g transform="translate(31.5125 53.288707) scale(0.1 -0.1)">
       <use xlink:href="#DejaVuSans-31"/>
       <use xlink:href="#DejaVuSans-35" x="63.623047"/>
       <use xlink:href="#DejaVuSans-30" x="127.246094"/>
      </g>
     </g>
    </g>
    <g id="text_5">
     <!-- Speed (km/h) -->
     <g transform="translate(25.432812 135.737156) rotate(-90) scale(0.1 -0.1)">
      <defs>
       <path id="DejaVuSans-53" d="M 3425 4513 
L 3425 3897 
Q 3066 4069 2747 4153 
Q 2428 4238 2131 4238 
Q 1616 4238 1336 4038 
Q 1056 3838 1056 3469 
Q 1056 3159 1242 3001 
Q 1428 2844 1947 2747 
L 2328 2669 
Q 3034 2534 3370 2195 
Q 3706 1856 3706 1288 
Q 3706 609 3251 259 
Q 2797 -91 1919 -91 
Q 1588 -91 1214 -16 
Q 841 59 441 206 
L 441 856 
Q 825 641 1194 531 
Q 1563 422 1919 422 
Q 2459 422 2753 634 
Q 3047 847 3047 1241 
Q 3047 1584 2836 1778 
Q 2625 1972 2144 2069 
L 1759 2144 
Q 1053 2284 737 2584 
Q 422 2884 422 3419 
Q 422 4038 858 4394 
Q 1294 4750 2059 4750 
Q 2388 4750 2728 4690 
Q 3069 4631 3425 4513 
z
" transform="scale(0.015625)"/>
       <path id="DejaVuSans-70" d="M 1159 525 
L 1159 -1331 
L 581 -1331 
L 581 3500 
L 1159 3500 
L 1159 2969 
Q 1341 3281 1617 3432 
Q 1894 3584 2278 3584 
Q 2916 3584 3314 3078 
Q 3713 2572 3713 1747 
Q 3713 922 3314 415 
Q 2916 -91 2278 -91 
Q 1894 -91 1617 61 
Q 1341 213 1159 525 
z
M 3116 1747 
Q 3116 2381 2855 2742 
Q 2594 3103 2138 3103 
Q 1681 3103 1420 2742 
Q 1159 2381 1159 1747 
Q 1159 1113 1420 752 
Q 1681 391 2138 391 
Q 2594 391 2855 752 
Q 3116 1113 3116 1747 
z
" transform="scale(0.015625)"/>
       <path id="DejaVuSans-65" d="M 3597 1894 
L 3597 1613 
L 953 1613 
Q 991 1019 1311 708 
Q 1631 397 2203 397 
Q 2534 397 2845 478 
Q 3156 559 3463 722 
L 3463 178 
Q 3153 47 2828 -22 
Q 2503 -91 2169 -91 
Q 1331 -91 842 396 
Q 353 884 353 1716 
Q 353 2575 817 3079 
Q 1281 3584 2069 3584 
Q 2775 3584 3186 3129 
Q 3597 2675 3597 1894 
z
M 3022 2063 
Q 3016 2534 2758 2815 
Q 2500 3097 2075 3097 
Q 1594 3097 1305 2825 
Q 1016 2553 972 2059 
L 3022 2063 
z
" transform="scale(0.015625)"/>
       <path id="DejaVuSans-64" d="M 2906 2969 
L 2906 4863 
L 3481 4863 
L 3481 0 
L 2906 0 
L 2906 525 
Q 2725 213 2448 61 
Q 2172 -91 1784 -91 
Q 1150 -91 751 415 
Q 353 922 353 1747 
Q 353 2572 751 3078 
Q 1150 3584 1784 3584 
Q 2172 3584 2448 3432 
Q 2725 3281 2906 2969 
z
M 947 1747 
Q 947 1113 1208 752 
Q 1469 391 1925 391 
Q 2381 391 2643 752 
Q 2906 1113 2906 1747 
Q 2906 2381 2643 2742 
Q 2381 3103 1925 3103 
Q 1469 3103 1208 2742 
Q 947 2381 947 1747 
z
" transform="scale(0.015625)"/>
       <path id="DejaVuSans-20" transform="scale(0.015625)"/>
       <path id="DejaVuSans-28" d="M 1984 4856 
Q 1566 4138 1362 3434 
Q 1159 2731 1159 2009 
Q 1159 1288 1364 580 
Q 1569 -128 1984 -844 
L 1484 -844 
Q 1016 -109 783 600 
Q 550 1309 550 2009 
Q 550 2706 781 3412 
Q 1013 4119 1484 4856 
L 1984 4856 
z
" transform="scale(0.015625)"/>
       <path id="DejaVuSans-6b" d="M 581 4863 
L 1159 4863 
L 1159 1991 
L 2875 3500 
L 3609 3500 
L 1753 1863 
L 3688 0 
L 2938 0 
L 1159 1709 
L 1159 0 
L 581 0 
L 581 4863 
z
" transform="scale(0.015625)"/>
       <path id="DejaVuSans-6d" d="M 3328 2828 
Q 3544 3216 3844 3400 
Q 4144 3584 4550 3584 
Q 5097 3584 5394 3201 
Q 5691 2819 5691 2113 
L 5691 0 
L 5113 0 
L 5113 2094 
Q 5113 2597 4934 2840 
Q 4756 3084 4391 3084 
Q 3944 3084 3684 2787 
Q 3425 2491 3425 1978 
L 3425 0 
L 2847 0 
L 2847 2094 
Q 2847 2600 2669 2842 
Q 2491 3084 2119 3084 
Q 1678 3084 1418 2786 
Q 1159 2488 1159 1978 
L 1159 0 
L 581 0 
L 581 3500 
L 1159 3500 
L 1159 2956 
Q 1356 3278 1631 3431 
Q 1906 3584 2284 3584 
Q 2666 3584 2933 3390 
Q 3200 3197 3328 2828 
z
" transform="scale(0.015625)"/>
       <path id="DejaVuSans-2f" d="M 1625 4666 
L 2156 4666 
L 531 -594 
L 0 -594 
L 1625 4666 
z
" transform="scale(0.015625)"/>
       <path id="DejaVuSans-68" d="M 3513 2113 
L 3513 0 
L 2938 0 
L 2938 2094 
Q 2938 2591 2744 2837 
Q 2550 3084 2163 3084 
Q 1697 3084 1428 2787 
Q 1159 2491 1159 1978 
L 1159 0 
L 581 0 
L 581 4863 
L 1159 4863 
L 1159 2956 
Q 1366 3272 1645 3428 
Q 1925 3584 2291 3584 
Q 2894 3584 3203 3211 
Q 3513 2838 3513 2113 
z
" transform="scale(0.015625)"/>
       <path id="DejaVuSans-29" d="M 513 4856 
L 1013 4856 
Q 1481 4119 1714 3412 
Q 1947 2706 1947 2009 
Q 1947 1309 1714 600 
Q 1481 -109 1013 -844 
L 513 -844 
Q 928 -128 1133 580 
Q 1338 1288 1338 2009 
Q 1338 2731 1133 3434 
Q 928 4138 513 4856 
z
" transform="scale(0.015625)"/>
      </defs>
      <use xlink:href="#DejaVuSans-53"/>
      <use xlink:href="#DejaVuSans-70" x="63.476562"/>
      <use xlink:href="#DejaVuSans-65" x="126.953125"/>
      <use xlink:href="#DejaVuSans-65" x="188.476562"/>
      <use xlink:href="#DejaVuSans-64" x="250"/>
      <use xlink:href="#DejaVuSans-20" x="313.476562"/>
      <use xlink:href="#DejaVuSans-28" x="345.263672"/>
      <use xlink:href="#DejaVuSans-6b" x="384.277344"/>
      <use xlink:href="#DejaVuSans-6d" x="442.1875"/>
      <use xlink:href="#DejaVuSans-2f" x="539.599609"/>
      <use xlink:href="#DejaVuSans-68" x="573.291016"/>
      <use xlink:href="#DejaVuSans-29" x="636.669922"/>
     </g>
    </g>
   </g>
   <g id="line2d_11">
    <path d="M 73.832727 156.933818 
L 77.112066 155.448508 
L 80.391405 154.51761 
L 83.670744 153.586712 
L 86.950083 152.655815 
L 90.229421 151.683788 
L 93.50876 150.65253 
L 96.788099 149.561268 
L 100.067438 148.408784 
L 103.346777 147.194339 
L 106.626116 145.918055 
L 109.905455 144.580526 
L 113.184793 143.182524 
L 116.464132 141.725698 
L 119.743471 140.211968 
L 123.02281 138.644384 
L 126.302149 137.026287 
L 129.581488 135.362016 
L 132.860826 133.656211 
L 136.140165 131.914217 
L 139.419504 130.141986 
L 142.698843 128.345975 
L 145.978182 126.533041 
L 149.257521 124.710299 
L 152.53686 122.885119 
L 155.816198 121.064924 
L 159.095537 119.257138 
L 162.374876 117.468998 
L 165.654215 115.707444 
L 168.933554 113.979154 
L 172.212893 112.290196 
L 175.492231 110.646008 
L 178.77157 109.051543 
L 182.050909 107.511272 
L 185.330248 106.028637 
L 188.609587 104.606481 
L 191.888926 103.246745 
L 195.168264 101.951098 
L 198.447603 100.720686 
L 201.726942 99.555363 
L 205.006281 98.454797 
L 208.28562 97.41815 
L 211.564959 96.444102 
L 214.844298 95.531344 
L 218.123636 94.677714 
L 221.402975 93.881139 
L 224.682314 93.139218 
L 227.961653 92.449755 
L 231.240992 91.809775 
L 234.520331 91.217109 
L 237.799669 90.668857 
L 241.079008 90.161914 
L 244.358347 89.694121 
L 247.637686 89.263194 
L 250.917025 88.866734 
L 254.196364 88.501656 
L 257.475702 88.166529 
L 260.755041 87.858678 
L 264.03438 87.576546 
L 267.313719 87.317929 
L 270.593058 87.081175 
L 273.872397 86.863983 
L 277.151736 86.665239 
L 280.431074 86.483807 
L 283.710413 86.31791 
L 286.989752 86.16637 
L 290.269091 86.027992 
L 293.54843 85.901568 
L 296.827769 85.785875 
L 300.107107 85.680312 
L 303.386446 85.584274 
L 306.665785 85.496511 
L 309.945124 85.416406 
L 313.224463 85.343333 
L 316.503802 85.277309 
L 319.78314 85.217061 
L 323.062479 85.161956 
L 326.341818 85.112002 
L 329.621157 85.06656 
L 332.900496 85.02499 
L 336.179835 84.987298 
L 339.459174 84.952839 
L 342.738512 84.921617 
L 346.017851 84.892987 
L 349.29719 84.86695 
L 352.576529 84.842859 
L 355.855868 84.821365 
L 359.135207 84.80182 
L 362.414545 84.783575 
L 365.693884 84.76728 
L 368.973223 84.752285 
L 372.252562 84.738593 
L 375.531901 84.726202 
L 378.81124 84.715113 
L 382.090579 84.704676 
L 385.369917 84.695542 
L 388.649256 84.687059 
L 391.928595 84.679229 
L 395.207934 84.67205 
L 398.487273 84.665523 
" clip-path="url(#pf6090caa75)" style="fill: none; stroke: #1f77b4; stroke-width: 1.5; stroke-linecap: square"/>
   </g>
   <g id="line2d_12">
    <path d="M 73.832727 156.933818 
L 77.112066 155.819835 
L 80.391405 155.121662 
L 83.670744 154.423489 
L 86.950083 153.725316 
L 90.229421 153.027142 
L 93.50876 152.328969 
L 96.788099 151.630796 
L 100.067438 150.915584 
L 103.346777 150.175558 
L 106.626116 149.41022 
L 109.905455 148.619454 
L 113.184793 147.802873 
L 116.464132 146.960155 
L 119.743471 146.09134 
L 123.02281 145.196228 
L 126.302149 144.274687 
L 129.581488 143.32666 
L 132.860826 142.35243 
L 136.140165 141.352074 
L 139.419504 140.325752 
L 142.698843 139.273941 
L 145.978182 138.196945 
L 149.257521 137.095157 
L 152.53686 135.969264 
L 155.816198 134.819816 
L 159.095537 133.647642 
L 162.374876 132.453457 
L 165.654215 131.238402 
L 168.933554 130.003344 
L 172.212893 128.74939 
L 175.492231 127.477715 
L 178.77157 126.189563 
L 182.050909 124.886247 
L 185.330248 123.569245 
L 188.609587 122.239988 
L 191.888926 120.900122 
L 195.168264 119.551173 
L 198.447603 118.194789 
L 201.726942 116.832654 
L 205.006281 115.46651 
L 208.28562 114.09809 
L 211.564959 112.729163 
L 214.844298 111.361496 
L 218.123636 109.99683 
L 221.402975 108.636948 
L 224.682314 107.283565 
L 227.961653 105.938359 
L 231.240992 104.60305 
L 234.520331 103.279177 
L 237.799669 101.968309 
L 241.079008 100.671979 
L 244.358347 99.391684 
L 247.637686 98.128749 
L 250.917025 96.88428 
L 254.196364 95.65976 
L 257.475702 94.455989 
L 260.755041 93.274178 
L 264.03438 92.115312 
L 267.313719 90.98011 
L 270.593058 89.869409 
L 273.872397 88.78376 
L 277.151736 87.723625 
L 280.431074 86.689619 
L 283.710413 85.682298 
L 286.989752 84.70164 
L 290.269091 83.748055 
L 293.54843 82.821617 
L 296.827769 81.922326 
L 300.107107 81.050103 
L 303.386446 80.204796 
L 306.665785 79.386496 
L 309.945124 78.594925 
L 313.224463 77.82974 
L 316.503802 77.090535 
L 319.78314 76.377176 
L 323.062479 75.689149 
L 326.341818 75.025875 
L 329.621157 74.387083 
L 332.900496 73.772098 
L 336.179835 73.180563 
L 339.459174 72.611714 
L 342.738512 72.065117 
L 346.017851 71.540307 
L 349.29719 71.036401 
L 352.576529 70.55326 
L 355.855868 70.089935 
L 359.135207 69.645838 
L 362.414545 69.220359 
L 365.693884 68.812862 
L 368.973223 68.422687 
L 372.252562 68.049571 
L 375.531901 67.692398 
L 378.81124 67.35087 
L 382.090579 67.024679 
L 385.369917 66.713078 
L 388.649256 66.4153 
L 391.928595 66.130999 
L 395.207934 65.859383 
L 398.487273 65.600084 
" clip-path="url(#pf6090caa75)" style="fill: none; stroke: #ff7f0e; stroke-width: 1.5; stroke-linecap: square"/>
   </g>
   <g id="line2d_13">
    <path d="M 73.832727 156.933818 
L 77.112066 156.032023 
L 80.391405 155.466835 
L 83.670744 154.901647 
L 86.950083 154.336459 
L 90.229421 153.771271 
L 93.50876 153.206083 
L 96.788099 152.640895 
L 100.067438 152.075707 
L 103.346777 151.51052 
L 106.626116 150.945332 
L 109.905455 150.379311 
L 113.184793 149.80033 
L 116.464132 149.208004 
L 119.743471 148.602504 
L 123.02281 147.983471 
L 126.302149 147.350833 
L 129.581488 146.704523 
L 132.860826 146.044237 
L 136.140165 145.37019 
L 139.419504 144.682109 
L 142.698843 143.980222 
L 145.978182 143.26429 
L 149.257521 142.534326 
L 152.53686 141.790133 
L 155.816198 141.031983 
L 159.095537 140.259712 
L 162.374876 139.473396 
L 165.654215 138.673127 
L 168.933554 137.859009 
L 172.212893 137.031162 
L 175.492231 136.189523 
L 178.77157 135.334442 
L 182.050909 134.465897 
L 185.330248 133.584077 
L 188.609587 132.689185 
L 191.888926 131.781442 
L 195.168264 130.861083 
L 198.447603 129.928203 
L 201.726942 128.983234 
L 205.006281 128.02646 
L 208.28562 127.058185 
L 211.564959 126.078591 
L 214.844298 125.088155 
L 218.123636 124.087233 
L 221.402975 123.076194 
L 224.682314 122.055429 
L 227.961653 121.025345 
L 231.240992 119.986467 
L 234.520331 118.939226 
L 237.799669 117.884074 
L 241.079008 116.821478 
L 244.358347 115.752003 
L 247.637686 114.67614 
L 250.917025 113.594467 
L 254.196364 112.507502 
L 257.475702 111.415834 
L 260.755041 110.320007 
L 264.03438 109.220624 
L 267.313719 108.118284 
L 270.593058 107.013566 
L 273.872397 105.9071 
L 277.151736 104.799477 
L 280.431074 103.691311 
L 283.710413 102.583215 
L 286.989752 101.475805 
L 290.269091 100.369693 
L 293.54843 99.265493 
L 296.827769 98.16382 
L 300.107107 97.06525 
L 303.386446 95.970384 
L 306.665785 94.879822 
L 309.945124 93.794166 
L 313.224463 92.713952 
L 316.503802 91.63977 
L 319.78314 90.57213 
L 323.062479 89.511525 
L 326.341818 88.458517 
L 329.621157 87.413669 
L 332.900496 86.377341 
L 336.179835 85.350069 
L 339.459174 84.332391 
L 342.738512 83.324606 
L 346.017851 82.327226 
L 349.29719 81.3405 
L 352.576529 80.364919 
L 355.855868 79.400828 
L 359.135207 78.448555 
L 362.414545 77.508411 
L 365.693884 76.580691 
L 368.973223 75.665672 
L 372.252562 74.763615 
L 375.531901 73.874587 
L 378.81124 72.998988 
L 382.090579 72.136843 
L 385.369917 71.288531 
L 388.649256 70.454034 
L 391.928595 69.63351 
L 395.207934 68.827097 
L 398.487273 68.034924 
" clip-path="url(#pf6090caa75)" style="fill: none; stroke: #2ca02c; stroke-width: 1.5; stroke-linecap: square"/>
   </g>
   <g id="line2d_14">
    <path d="M 73.832727 156.933818 
L 77.112066 156.24421 
L 80.391405 155.812007 
L 83.670744 155.379805 
L 86.950083 154.947602 
L 90.229421 154.5154 
L 93.50876 154.083197 
L 96.788099 153.650995 
L 100.067438 153.218792 
L 103.346777 152.78659 
L 106.626116 152.354387 
L 109.905455 151.922185 
L 113.184793 151.489982 
L 116.464132 151.05778 
L 119.743471 150.625577 
L 123.02281 150.193375 
L 126.302149 149.761172 
L 129.581488 149.32897 
L 132.860826 148.896767 
L 136.140165 148.461175 
L 139.419504 148.019683 
L 142.698843 147.572335 
L 145.978182 147.118966 
L 149.257521 146.659622 
L 152.53686 146.194348 
L 155.816198 145.722989 
L 159.095537 145.245391 
L 162.374876 144.761807 
L 165.654215 144.272089 
L 168.933554 143.776092 
L 172.212893 143.273872 
L 175.492231 142.765486 
L 178.77157 142.250988 
L 182.050909 141.730246 
L 185.330248 141.203133 
L 188.609587 140.669711 
L 191.888926 140.130043 
L 195.168264 139.58401 
L 198.447603 139.03168 
L 201.726942 138.473119 
L 205.006281 137.908217 
L 208.28562 137.337047 
L 211.564959 136.759505 
L 214.844298 136.175668 
L 218.123636 135.585609 
L 221.402975 134.989237 
L 224.682314 134.386467 
L 227.961653 133.777544 
L 231.240992 133.162387 
L 234.520331 132.540921 
L 237.799669 131.913234 
L 241.079008 131.279412 
L 244.358347 130.639392 
L 247.637686 129.993266 
L 250.917025 129.341124 
L 254.196364 128.682914 
L 257.475702 128.018732 
L 260.755041 127.348536 
L 264.03438 126.672425 
L 267.313719 125.9905 
L 270.593058 125.30273 
L 273.872397 124.609219 
L 277.151736 123.909946 
L 280.431074 123.20502 
L 283.710413 122.494552 
L 286.989752 121.778533 
L 290.269091 121.057076 
L 293.54843 120.330297 
L 296.827769 119.598199 
L 300.107107 118.860901 
L 303.386446 118.118524 
L 306.665785 117.371082 
L 309.945124 116.618804 
L 313.224463 115.86161 
L 316.503802 115.099728 
L 319.78314 114.333188 
L 323.062479 113.562121 
L 326.341818 112.786569 
L 329.621157 112.006667 
L 332.900496 111.222551 
L 336.179835 110.434358 
L 339.459174 109.642144 
L 342.738512 108.846052 
L 346.017851 108.046222 
L 349.29719 107.242796 
L 352.576529 106.435849 
L 355.855868 105.62559 
L 359.135207 104.8121 
L 362.414545 103.995468 
L 365.693884 103.175902 
L 368.973223 102.353496 
L 372.252562 101.528451 
L 375.531901 100.700869 
L 378.81124 99.870858 
L 382.090579 99.038616 
L 385.369917 98.204297 
L 388.649256 97.368018 
L 391.928595 96.529969 
L 395.207934 95.690274 
L 398.487273 94.849091 
" clip-path="url(#pf6090caa75)" style="fill: none; stroke: #d62728; stroke-width: 1.5; stroke-linecap: square"/>
   </g>
   <g id="line2d_15">
    <path d="M 73.832727 156.933818 
L 77.112066 156.40335 
L 80.391405 156.070887 
L 83.670744 155.738423 
L 86.950083 155.40596 
L 90.229421 155.073496 
L 93.50876 154.741033 
L 96.788099 154.408569 
L 100.067438 154.076106 
L 103.346777 153.743643 
L 106.626116 153.411179 
L 109.905455 153.078716 
L 113.184793 152.746252 
L 116.464132 152.413789 
L 119.743471 152.081325 
L 123.02281 151.748862 
L 126.302149 151.416398 
L 129.581488 151.083935 
L 132.860826 150.751471 
L 136.140165 150.419008 
L 139.419504 150.086545 
L 142.698843 149.754081 
L 145.978182 149.421618 
L 149.257521 149.089154 
L 152.53686 148.756691 
L 155.816198 148.424227 
L 159.095537 148.091764 
L 162.374876 147.7593 
L 165.654215 147.426837 
L 168.933554 147.094373 
L 172.212893 146.76191 
L 175.492231 146.42912 
L 178.77157 146.093561 
L 182.050909 145.755407 
L 185.330248 145.414508 
L 188.609587 145.070875 
L 191.888926 144.724521 
L 195.168264 144.375457 
L 198.447603 144.023697 
L 201.726942 143.669251 
L 205.006281 143.311975 
L 208.28562 142.951883 
L 211.564959 142.589143 
L 214.844298 142.223613 
L 218.123636 141.855306 
L 221.402975 141.484084 
L 224.682314 141.110112 
L 227.961653 140.733405 
L 231.240992 140.353826 
L 234.520331 139.971389 
L 237.799669 139.58611 
L 241.079008 139.198003 
L 244.358347 138.807085 
L 247.637686 138.413369 
L 250.917025 138.01687 
L 254.196364 137.61746 
L 257.475702 137.215154 
L 260.755041 136.809969 
L 264.03438 136.401922 
L 267.313719 135.99103 
L 270.593058 135.577308 
L 273.872397 135.160775 
L 277.151736 134.741307 
L 280.431074 134.318923 
L 283.710413 133.893641 
L 286.989752 133.465479 
L 290.269091 133.034456 
L 293.54843 132.600591 
L 296.827769 132.163901 
L 300.107107 131.724273 
L 303.386446 131.281725 
L 306.665785 130.836279 
L 309.945124 130.387955 
L 313.224463 129.936773 
L 316.503802 129.482753 
L 319.78314 129.025914 
L 323.062479 128.566152 
L 326.341818 128.103488 
L 329.621157 127.637944 
L 332.900496 127.169541 
L 336.179835 126.698303 
L 339.459174 126.224251 
L 342.738512 125.747407 
L 346.017851 125.267674 
L 349.29719 124.785076 
L 352.576529 124.299753 
L 355.855868 123.811613 
L 359.135207 123.320678 
L 362.414545 122.826858 
L 365.693884 122.330293 
L 368.973223 121.830894 
L 372.252562 121.328798 
L 375.531901 120.82392 
L 378.81124 120.316285 
L 382.090579 119.805919 
L 385.369917 119.292848 
L 388.649256 118.776993 
L 391.928595 118.258486 
L 395.207934 117.737249 
L 398.487273 117.213414 
" clip-path="url(#pf6090caa75)" style="fill: none; stroke: #9467bd; stroke-width: 1.5; stroke-linecap: square"/>
   </g>
   <g id="line2d_16">
    <path d="M 73.832727 156.933818 
L 77.112066 156.40335 
L 80.391405 156.070887 
L 83.670744 155.738423 
L 86.950083 155.40596 
L 90.229421 155.073496 
L 93.50876 154.741033 
L 96.788099 154.408569 
L 100.067438 154.076106 
L 103.346777 153.743643 
L 106.626116 153.411179 
L 109.905455 153.078716 
L 113.184793 152.746252 
L 116.464132 152.413789 
L 119.743471 152.081325 
L 123.02281 151.748862 
L 126.302149 151.416398 
L 129.581488 151.083935 
L 132.860826 150.751471 
L 136.140165 150.419008 
L 139.419504 150.086545 
L 142.698843 149.754081 
L 145.978182 149.421618 
L 149.257521 149.089154 
L 152.53686 148.756691 
L 155.816198 148.424227 
L 159.095537 148.091764 
L 162.374876 147.7593 
L 165.654215 147.426837 
L 168.933554 147.094373 
L 172.212893 146.76191 
L 175.492231 146.42912 
L 178.77157 146.093561 
L 182.050909 145.755407 
L 185.330248 145.414508 
L 188.609587 145.070875 
L 191.888926 144.724521 
L 195.168264 144.375457 
L 198.447603 144.023697 
L 201.726942 143.669251 
L 205.006281 143.311975 
L 208.28562 142.951883 
L 211.564959 142.589143 
L 214.844298 142.223613 
L 218.123636 141.855306 
L 221.402975 141.484084 
L 224.682314 141.110112 
L 227.961653 140.733405 
L 231.240992 140.353826 
L 234.520331 139.971389 
L 237.799669 139.58611 
L 241.079008 139.198003 
L 244.358347 138.807085 
L 247.637686 138.413369 
L 250.917025 138.01687 
L 254.196364 137.61746 
L 257.475702 137.215154 
L 260.755041 136.809969 
L 264.03438 136.401922 
L 267.313719 135.99103 
L 270.593058 135.577308 
L 273.872397 135.160775 
L 277.151736 134.741307 
L 280.431074 134.318923 
L 283.710413 133.893641 
L 286.989752 133.465479 
L 290.269091 133.034456 
L 293.54843 132.600591 
L 296.827769 132.163901 
L 300.107107 131.724273 
L 303.386446 131.281725 
L 306.665785 130.836279 
L 309.945124 130.387955 
L 313.224463 129.936773 
L 316.503802 129.482753 
L 319.78314 129.025914 
L 323.062479 128.566152 
L 326.341818 128.103488 
L 329.621157 127.637944 
L 332.900496 127.169541 
L 336.179835 126.698303 
L 339.459174 126.224251 
L 342.738512 125.747407 
L 346.017851 125.267674 
L 349.29719 124.785076 
L 352.576529 124.299753 
L 355.855868 123.811613 
L 359.135207 123.320678 
L 362.414545 122.826858 
L 365.693884 122.330293 
L 368.973223 121.830894 
L 372.252562 121.328798 
L 375.531901 120.82392 
L 378.81124 120.316285 
L 382.090579 119.805919 
L 385.369917 119.292848 
L 388.649256 118.776993 
L 391.928595 118.258486 
L 395.207934 117.737249 
L 398.487273 117.213414 
" clip-path="url(#pf6090caa75)" style="fill: none; stroke: #8c564b; stroke-width: 1.5; stroke-linecap: square"/>
   </g>
   <g id="line2d_17">
    <path d="M 73.832727 156.933818 
L 77.112066 156.40335 
L 80.391405 155.971148 
L 83.670744 155.40596 
L 86.950083 154.707787 
L 90.229421 153.776889 
L 93.50876 152.613267 
L 96.788099 151.312916 
L 100.067438 149.896277 
L 103.346777 148.360842 
L 106.626116 146.706361 
L 109.905455 144.935802 
L 113.184793 143.053827 
L 116.464132 141.068206 
L 119.743471 138.9903 
L 123.02281 136.834216 
L 126.302149 134.616855 
L 129.581488 132.357729 
L 132.860826 130.078101 
L 136.140165 127.800328 
L 139.419504 125.547095 
L 142.698843 123.340344 
L 145.978182 121.200553 
L 149.257521 119.556984 
L 152.53686 117.765033 
L 155.816198 115.998572 
L 159.095537 114.264207 
L 162.374876 112.5682 
L 165.654215 111.329258 
L 168.933554 109.964703 
L 172.212893 108.604941 
L 175.492231 107.251715 
L 178.77157 105.906768 
L 182.050909 104.57169 
L 185.330248 103.248084 
L 188.609587 101.937621 
L 191.888926 100.641743 
L 195.168264 99.361822 
L 198.447603 98.099296 
L 201.726942 97.092348 
L 205.006281 95.997395 
L 208.28562 94.906734 
L 211.564959 93.820908 
L 214.844298 92.740569 
L 218.123636 91.666178 
L 221.402975 90.598386 
L 224.682314 89.537617 
L 227.961653 88.484432 
L 231.240992 87.439395 
L 234.520331 86.402864 
L 237.799669 85.375378 
L 241.079008 84.596981 
L 244.358347 83.750976 
L 247.637686 82.905744 
L 250.917025 82.061429 
L 254.196364 81.218191 
L 257.475702 80.376188 
L 260.755041 79.535577 
L 264.03438 78.696517 
L 267.313719 77.859167 
L 270.593058 77.023684 
L 273.872397 76.190189 
L 277.151736 75.358874 
L 280.431074 74.529855 
L 283.710413 73.703282 
L 286.989752 72.879309 
L 290.269091 72.058088 
L 293.54843 71.239772 
L 296.827769 70.424513 
L 300.107107 69.612401 
L 303.386446 68.803584 
L 306.665785 67.998208 
L 309.945124 67.196419 
L 313.224463 66.398292 
L 316.503802 65.603967 
L 319.78314 64.813586 
L 323.062479 64.02729 
L 326.341818 63.24522 
L 329.621157 62.64692 
L 332.900496 61.996276 
L 336.179835 61.34598 
L 339.459174 60.696074 
L 342.738512 60.046601 
L 346.017851 59.397604 
L 349.29719 58.749126 
L 352.576529 58.10121 
L 355.855868 57.453897 
L 359.135207 56.807232 
L 362.414545 56.161256 
L 365.693884 55.516013 
L 368.973223 54.871544 
L 372.252562 54.227868 
L 375.531901 53.585051 
L 378.81124 52.943136 
L 382.090579 52.302166 
L 385.369917 51.662152 
L 388.649256 51.023167 
L 391.928595 50.38522 
L 395.207934 49.748385 
L 398.487273 49.11267 
" clip-path="url(#pf6090caa75)" style="fill: none; stroke: #e377c2; stroke-width: 1.5; stroke-linecap: square"/>
   </g>
   <g id="line2d_18">
    <path d="M 73.832727 156.933818 
L 77.112066 156.40335 
L 80.391405 155.971148 
L 83.670744 155.40596 
L 86.950083 154.707787 
L 90.229421 153.776889 
L 93.50876 152.613267 
L 96.788099 151.312916 
L 100.067438 149.896277 
L 103.346777 148.360842 
L 106.626116 146.706361 
L 109.905455 144.935802 
L 113.184793 143.053827 
L 116.464132 141.068206 
L 119.743471 138.9903 
L 123.02281 136.834216 
L 126.302149 134.616855 
L 129.581488 132.357729 
L 132.860826 130.078101 
L 136.140165 127.800328 
L 139.419504 125.547095 
L 142.698843 123.340344 
L 145.978182 121.200553 
L 149.257521 119.146092 
L 152.53686 117.192304 
L 155.816198 115.351482 
L 159.095537 113.632185 
L 162.374876 112.03973 
L 165.654215 110.576216 
L 168.933554 109.508113 
L 172.212893 107.951811 
L 175.492231 106.452128 
L 178.77157 105.012063 
L 182.050909 103.634034 
L 185.330248 102.319901 
L 188.609587 101.070622 
L 191.888926 99.886192 
L 195.168264 98.766814 
L 198.447603 97.975562 
L 201.726942 96.733468 
L 205.006281 95.511346 
L 208.28562 94.310309 
L 211.564959 93.131225 
L 214.844298 91.975248 
L 218.123636 90.843093 
L 221.402975 89.73538 
L 224.682314 88.65286 
L 227.961653 87.595992 
L 231.240992 86.565387 
L 234.520331 85.561094 
L 237.799669 84.583836 
L 241.079008 83.633495 
L 244.358347 82.710127 
L 247.637686 81.813998 
L 250.917025 80.945026 
L 254.196364 80.103059 
L 257.475702 79.288182 
L 260.755041 78.649966 
L 264.03438 77.707206 
L 267.313719 76.776776 
L 270.593058 75.858952 
L 273.872397 74.953997 
L 277.151736 74.062156 
L 280.431074 73.183658 
L 283.710413 72.318718 
L 286.989752 71.467532 
L 290.269091 70.630087 
L 293.54843 69.806539 
L 296.827769 68.99703 
L 300.107107 68.201688 
L 303.386446 67.420624 
L 306.665785 66.653938 
L 309.945124 65.901489 
L 313.224463 65.163337 
L 316.503802 64.439533 
L 319.78314 63.730109 
L 323.062479 63.034847 
L 326.341818 62.353993 
L 329.621157 61.687293 
L 332.900496 61.034724 
L 336.179835 60.546479 
L 339.459174 59.784545 
L 342.738512 59.027398 
L 346.017851 58.275066 
L 349.29719 57.527778 
L 352.576529 56.785558 
L 355.855868 56.048421 
L 359.135207 55.316599 
L 362.414545 54.590103 
L 365.693884 53.868935 
L 368.973223 53.15333 
L 372.252562 52.443286 
L 375.531901 51.738793 
L 378.81124 51.03996 
L 382.090579 50.346898 
L 385.369917 49.659717 
L 388.649256 48.978392 
L 391.928595 48.303028 
L 395.207934 47.633591 
L 398.487273 46.970182 
" clip-path="url(#pf6090caa75)" style="fill: none; stroke: #7f7f7f; stroke-width: 1.5; stroke-linecap: square"/>
   </g>
   <g id="patch_3">
    <path d="M 57.6 162.432 
L 57.6 41.472 
" style="fill: none; stroke: #000000; stroke-width: 0.8; stroke-linejoin: miter; stroke-linecap: square"/>
   </g>
   <g id="patch_4">
    <path d="M 414.72 162.432 
L 414.72 41.472 
" style="fill: none; stroke: #000000; stroke-width: 0.8; stroke-linejoin: miter; stroke-linecap: square"/>
   </g>
   <g id="patch_5">
    <path d="M 57.6 162.432 
L 414.72 162.432 
" style="fill: none; stroke: #000000; stroke-width: 0.8; stroke-linejoin: miter; stroke-linecap: square"/>
   </g>
   <g id="patch_6">
    <path d="M 57.6 41.472 
L 414.72 41.472 
" style="fill: none; stroke: #000000; stroke-width: 0.8; stroke-linejoin: miter; stroke-linecap: square"/>
   </g>
  </g>
  <g id="axes_2">
   <g id="patch_7">
    <path d="M 57.6 307.584 
L 414.72 307.584 
L 414.72 186.624 
L 57.6 186.624 
z
" style="fill: #ffffff"/>
   </g>
   <g id="matplotlib.axis_3">
    <g id="xtick_7">
     <g id="line2d_19">
      <g>
       <use xlink:href="#meff6109316" x="70.553388" y="307.584" style="stroke: #000000; stroke-width: 0.8"/>
      </g>
     </g>
     <g id="text_6">
      <!-- 0 -->
      <g transform="translate(67.372138 322.182437) scale(0.1 -0.1)">
       <use xlink:href="#DejaVuSans-30"/>
      </g>
     </g>
    </g>
    <g id="xtick_8">
     <g id="line2d_20">
      <g>
       <use xlink:href="#meff6109316" x="136.140165" y="307.584" style="stroke: #000000; stroke-width: 0.8"/>
      </g>
     </g>
     <g id="text_7">
      <!-- 2 -->
      <g transform="translate(132.958915 322.182437) scale(0.1 -0.1)">
       <defs>
        <path id="DejaVuSans-32" d="M 1228 531 
L 3431 531 
L 3431 0 
L 469 0 
L 469 531 
Q 828 903 1448 1529 
Q 2069 2156 2228 2338 
Q 2531 2678 2651 2914 
Q 2772 3150 2772 3378 
Q 2772 3750 2511 3984 
Q 2250 4219 1831 4219 
Q 1534 4219 1204 4116 
Q 875 4013 500 3803 
L 500 4441 
Q 881 4594 1212 4672 
Q 1544 4750 1819 4750 
Q 2544 4750 2975 4387 
Q 3406 4025 3406 3419 
Q 3406 3131 3298 2873 
Q 3191 2616 2906 2266 
Q 2828 2175 2409 1742 
Q 1991 1309 1228 531 
z
" transform="scale(0.015625)"/>
       </defs>
       <use xlink:href="#DejaVuSans-32"/>
      </g>
     </g>
    </g>
    <g id="xtick_9">
     <g id="line2d_21">
      <g>
       <use xlink:href="#meff6109316" x="201.726942" y="307.584" style="stroke: #000000; stroke-width: 0.8"/>
      </g>
     </g>
     <g id="text_8">
      <!-- 4 -->
      <g transform="translate(198.545692 322.182437) scale(0.1 -0.1)">
       <defs>
        <path id="DejaVuSans-34" d="M 2419 4116 
L 825 1625 
L 2419 1625 
L 2419 4116 
z
M 2253 4666 
L 3047 4666 
L 3047 1625 
L 3713 1625 
L 3713 1100 
L 3047 1100 
L 3047 0 
L 2419 0 
L 2419 1100 
L 313 1100 
L 313 1709 
L 2253 4666 
z
" transform="scale(0.015625)"/>
       </defs>
       <use xlink:href="#DejaVuSans-34"/>
      </g>
     </g>
    </g>
    <g id="xtick_10">
     <g id="line2d_22">
      <g>
       <use xlink:href="#meff6109316" x="267.313719" y="307.584" style="stroke: #000000; stroke-width: 0.8"/>
      </g>
     </g>
     <g id="text_9">
      <!-- 6 -->
      <g transform="translate(264.132469 322.182437) scale(0.1 -0.1)">
       <defs>
        <path id="DejaVuSans-36" d="M 2113 2584 
Q 1688 2584 1439 2293 
Q 1191 2003 1191 1497 
Q 1191 994 1439 701 
Q 1688 409 2113 409 
Q 2538 409 2786 701 
Q 3034 994 3034 1497 
Q 3034 2003 2786 2293 
Q 2538 2584 2113 2584 
z
M 3366 4563 
L 3366 3988 
Q 3128 4100 2886 4159 
Q 2644 4219 2406 4219 
Q 1781 4219 1451 3797 
Q 1122 3375 1075 2522 
Q 1259 2794 1537 2939 
Q 1816 3084 2150 3084 
Q 2853 3084 3261 2657 
Q 3669 2231 3669 1497 
Q 3669 778 3244 343 
Q 2819 -91 2113 -91 
Q 1303 -91 875 529 
Q 447 1150 447 2328 
Q 447 3434 972 4092 
Q 1497 4750 2381 4750 
Q 2619 4750 2861 4703 
Q 3103 4656 3366 4563 
z
" transform="scale(0.015625)"/>
       </defs>
       <use xlink:href="#DejaVuSans-36"/>
      </g>
     </g>
    </g>
    <g id="xtick_11">
     <g id="line2d_23">
      <g>
       <use xlink:href="#meff6109316" x="332.900496" y="307.584" style="stroke: #000000; stroke-width: 0.8"/>
      </g>
     </g>
     <g id="text_10">
      <!-- 8 -->
      <g transform="translate(329.719246 322.182437) scale(0.1 -0.1)">
       <defs>
        <path id="DejaVuSans-38" d="M 2034 2216 
Q 1584 2216 1326 1975 
Q 1069 1734 1069 1313 
Q 1069 891 1326 650 
Q 1584 409 2034 409 
Q 2484 409 2743 651 
Q 3003 894 3003 1313 
Q 3003 1734 2745 1975 
Q 2488 2216 2034 2216 
z
M 1403 2484 
Q 997 2584 770 2862 
Q 544 3141 544 3541 
Q 544 4100 942 4425 
Q 1341 4750 2034 4750 
Q 2731 4750 3128 4425 
Q 3525 4100 3525 3541 
Q 3525 3141 3298 2862 
Q 3072 2584 2669 2484 
Q 3125 2378 3379 2068 
Q 3634 1759 3634 1313 
Q 3634 634 3220 271 
Q 2806 -91 2034 -91 
Q 1263 -91 848 271 
Q 434 634 434 1313 
Q 434 1759 690 2068 
Q 947 2378 1403 2484 
z
M 1172 3481 
Q 1172 3119 1398 2916 
Q 1625 2713 2034 2713 
Q 2441 2713 2670 2916 
Q 2900 3119 2900 3481 
Q 2900 3844 2670 4047 
Q 2441 4250 2034 4250 
Q 1625 4250 1398 4047 
Q 1172 3844 1172 3481 
z
" transform="scale(0.015625)"/>
       </defs>
       <use xlink:href="#DejaVuSans-38"/>
      </g>
     </g>
    </g>
    <g id="xtick_12">
     <g id="line2d_24">
      <g>
       <use xlink:href="#meff6109316" x="398.487273" y="307.584" style="stroke: #000000; stroke-width: 0.8"/>
      </g>
     </g>
     <g id="text_11">
      <!-- 10 -->
      <g transform="translate(392.124773 322.182437) scale(0.1 -0.1)">
       <use xlink:href="#DejaVuSans-31"/>
       <use xlink:href="#DejaVuSans-30" x="63.623047"/>
      </g>
     </g>
    </g>
    <g id="text_12">
     <!-- Time (s) -->
     <g transform="translate(215.831094 335.860562) scale(0.1 -0.1)">
      <defs>
       <path id="DejaVuSans-54" d="M -19 4666 
L 3928 4666 
L 3928 4134 
L 2272 4134 
L 2272 0 
L 1638 0 
L 1638 4134 
L -19 4134 
L -19 4666 
z
" transform="scale(0.015625)"/>
       <path id="DejaVuSans-69" d="M 603 3500 
L 1178 3500 
L 1178 0 
L 603 0 
L 603 3500 
z
M 603 4863 
L 1178 4863 
L 1178 4134 
L 603 4134 
L 603 4863 
z
" transform="scale(0.015625)"/>
       <path id="DejaVuSans-73" d="M 2834 3397 
L 2834 2853 
Q 2591 2978 2328 3040 
Q 2066 3103 1784 3103 
Q 1356 3103 1142 2972 
Q 928 2841 928 2578 
Q 928 2378 1081 2264 
Q 1234 2150 1697 2047 
L 1894 2003 
Q 2506 1872 2764 1633 
Q 3022 1394 3022 966 
Q 3022 478 2636 193 
Q 2250 -91 1575 -91 
Q 1294 -91 989 -36 
Q 684 19 347 128 
L 347 722 
Q 666 556 975 473 
Q 1284 391 1588 391 
Q 1994 391 2212 530 
Q 2431 669 2431 922 
Q 2431 1156 2273 1281 
Q 2116 1406 1581 1522 
L 1381 1569 
Q 847 1681 609 1914 
Q 372 2147 372 2553 
Q 372 3047 722 3315 
Q 1072 3584 1716 3584 
Q 2034 3584 2315 3537 
Q 2597 3491 2834 3397 
z
" transform="scale(0.015625)"/>
      </defs>
      <use xlink:href="#DejaVuSans-54"/>
      <use xlink:href="#DejaVuSans-69" x="57.958984"/>
      <use xlink:href="#DejaVuSans-6d" x="85.742188"/>
      <use xlink:href="#DejaVuSans-65" x="183.154297"/>
      <use xlink:href="#DejaVuSans-20" x="244.677734"/>
      <use xlink:href="#DejaVuSans-28" x="276.464844"/>
      <use xlink:href="#DejaVuSans-73" x="315.478516"/>
      <use xlink:href="#DejaVuSans-29" x="367.578125"/>
     </g>
    </g>
   </g>
   <g id="matplotlib.axis_4">
    <g id="ytick_5">
     <g id="line2d_25">
      <g>
       <use xlink:href="#m30a9061fad" x="57.6" y="284.706674" style="stroke: #000000; stroke-width: 0.8"/>
      </g>
     </g>
     <g id="text_13">
      <!-- 2000 -->
      <g transform="translate(25.15 288.505893) scale(0.1 -0.1)">
       <use xlink:href="#DejaVuSans-32"/>
       <use xlink:href="#DejaVuSans-30" x="63.623047"/>
       <use xlink:href="#DejaVuSans-30" x="127.246094"/>
       <use xlink:href="#DejaVuSans-30" x="190.869141"/>
      </g>
     </g>
    </g>
    <g id="ytick_6">
     <g id="line2d_26">
      <g>
       <use xlink:href="#m30a9061fad" x="57.6" y="261.534482" style="stroke: #000000; stroke-width: 0.8"/>
      </g>
     </g>
     <g id="text_14">
      <!-- 4000 -->
      <g transform="translate(25.15 265.333701) scale(0.1 -0.1)">
       <use xlink:href="#DejaVuSans-34"/>
       <use xlink:href="#DejaVuSans-30" x="63.623047"/>
       <use xlink:href="#DejaVuSans-30" x="127.246094"/>
       <use xlink:href="#DejaVuSans-30" x="190.869141"/>
      </g>
     </g>
    </g>
    <g id="ytick_7">
     <g id="line2d_27">
      <g>
       <use xlink:href="#m30a9061fad" x="57.6" y="238.362291" style="stroke: #000000; stroke-width: 0.8"/>
      </g>
     </g>
     <g id="text_15">
      <!-- 6000 -->
      <g transform="translate(25.15 242.161509) scale(0.1 -0.1)">
       <use xlink:href="#DejaVuSans-36"/>
       <use xlink:href="#DejaVuSans-30" x="63.623047"/>
       <use xlink:href="#DejaVuSans-30" x="127.246094"/>
       <use xlink:href="#DejaVuSans-30" x="190.869141"/>
      </g>
     </g>
    </g>
    <g id="ytick_8">
     <g id="line2d_28">
      <g>
       <use xlink:href="#m30a9061fad" x="57.6" y="215.190099" style="stroke: #000000; stroke-width: 0.8"/>
      </g>
     </g>
     <g id="text_16">
      <!-- 8000 -->
      <g transform="translate(25.15 218.989318) scale(0.1 -0.1)">
       <use xlink:href="#DejaVuSans-38"/>
       <use xlink:href="#DejaVuSans-30" x="63.623047"/>
       <use xlink:href="#DejaVuSans-30" x="127.246094"/>
       <use xlink:href="#DejaVuSans-30" x="190.869141"/>
      </g>
     </g>
    </g>
    <g id="ytick_9">
     <g id="line2d_29">
      <g>
       <use xlink:href="#m30a9061fad" x="57.6" y="192.017907" style="stroke: #000000; stroke-width: 0.8"/>
      </g>
     </g>
     <g id="text_17">
      <!-- 10000 -->
      <g transform="translate(18.7875 195.817126) scale(0.1 -0.1)">
       <use xlink:href="#DejaVuSans-31"/>
       <use xlink:href="#DejaVuSans-30" x="63.623047"/>
       <use xlink:href="#DejaVuSans-30" x="127.246094"/>
       <use xlink:href="#DejaVuSans-30" x="190.869141"/>
       <use xlink:href="#DejaVuSans-30" x="254.492188"/>
      </g>
     </g>
    </g>
    <g id="text_18">
     <!-- RPM -->
     <g transform="translate(12.707813 257.907125) rotate(-90) scale(0.1 -0.1)">
      <defs>
       <path id="DejaVuSans-52" d="M 2841 2188 
Q 3044 2119 3236 1894 
Q 3428 1669 3622 1275 
L 4263 0 
L 3584 0 
L 2988 1197 
Q 2756 1666 2539 1819 
Q 2322 1972 1947 1972 
L 1259 1972 
L 1259 0 
L 628 0 
L 628 4666 
L 2053 4666 
Q 2853 4666 3247 4331 
Q 3641 3997 3641 3322 
Q 3641 2881 3436 2590 
Q 3231 2300 2841 2188 
z
M 1259 4147 
L 1259 2491 
L 2053 2491 
Q 2509 2491 2742 2702 
Q 2975 2913 2975 3322 
Q 2975 3731 2742 3939 
Q 2509 4147 2053 4147 
L 1259 4147 
z
" transform="scale(0.015625)"/>
       <path id="DejaVuSans-50" d="M 1259 4147 
L 1259 2394 
L 2053 2394 
Q 2494 2394 2734 2622 
Q 2975 2850 2975 3272 
Q 2975 3691 2734 3919 
Q 2494 4147 2053 4147 
L 1259 4147 
z
M 628 4666 
L 2053 4666 
Q 2838 4666 3239 4311 
Q 3641 3956 3641 3272 
Q 3641 2581 3239 2228 
Q 2838 1875 2053 1875 
L 1259 1875 
L 1259 0 
L 628 0 
L 628 4666 
z
" transform="scale(0.015625)"/>
       <path id="DejaVuSans-4d" d="M 628 4666 
L 1569 4666 
L 2759 1491 
L 3956 4666 
L 4897 4666 
L 4897 0 
L 4281 0 
L 4281 4097 
L 3078 897 
L 2444 897 
L 1241 4097 
L 1241 0 
L 628 0 
L 628 4666 
z
" transform="scale(0.015625)"/>
      </defs>
      <use xlink:href="#DejaVuSans-52"/>
      <use xlink:href="#DejaVuSans-50" x="69.482422"/>
      <use xlink:href="#DejaVuSans-4d" x="129.785156"/>
     </g>
    </g>
   </g>
   <g id="line2d_30">
    <path d="M 73.832727 284.706674 
L 77.112066 302.085818 
L 80.391405 302.085818 
L 83.670744 302.085818 
L 86.950083 301.031483 
L 90.229421 299.467361 
L 93.50876 297.822135 
L 96.788099 296.072634 
L 100.067438 294.218859 
L 103.346777 292.272395 
L 106.626116 290.233242 
L 109.905455 288.089814 
L 113.184793 285.853698 
L 116.464132 283.513306 
L 119.743471 281.091812 
L 123.02281 278.57763 
L 126.302149 275.99393 
L 129.581488 273.329128 
L 132.860826 270.594809 
L 136.140165 267.80256 
L 139.419504 264.963967 
L 142.698843 262.090615 
L 145.978182 259.182505 
L 149.257521 256.262809 
L 152.53686 253.343113 
L 155.816198 250.423416 
L 159.095537 247.526893 
L 162.374876 244.665127 
L 165.654215 241.838119 
L 168.933554 239.069042 
L 172.212893 236.369482 
L 175.492231 233.739438 
L 178.77157 231.178911 
L 182.050909 228.711073 
L 185.330248 226.335923 
L 188.609587 224.065048 
L 191.888926 221.886862 
L 195.168264 219.801365 
L 198.447603 217.831729 
L 201.726942 215.966367 
L 205.006281 214.205281 
L 208.28562 212.548469 
L 211.564959 210.984346 
L 214.844298 209.524498 
L 218.123636 208.157339 
L 221.402975 206.882868 
L 224.682314 205.6895 
L 227.961653 204.588821 
L 231.240992 203.557658 
L 234.520331 202.607599 
L 237.799669 201.738641 
L 241.079008 200.927615 
L 244.358347 200.174518 
L 247.637686 199.479353 
L 250.917025 198.853704 
L 254.196364 198.262813 
L 257.475702 197.729852 
L 260.755041 197.23165 
L 264.03438 196.779792 
L 267.313719 196.362693 
L 270.593058 195.991938 
L 273.872397 195.644355 
L 277.151736 195.319944 
L 280.431074 195.030292 
L 283.710413 194.763812 
L 286.989752 194.520504 
L 290.269091 194.300368 
L 293.54843 194.103404 
L 296.827769 193.918027 
L 300.107107 193.744235 
L 303.386446 193.593616 
L 306.665785 193.454583 
L 309.945124 193.327136 
L 313.224463 193.199689 
L 316.503802 193.095414 
L 319.78314 193.002725 
L 323.062479 192.910036 
L 326.341818 192.828934 
L 329.621157 192.759417 
L 332.900496 192.689901 
L 336.179835 192.63197 
L 339.459174 192.57404 
L 342.738512 192.527695 
L 346.017851 192.481351 
L 349.29719 192.446593 
L 352.576529 192.400248 
L 355.855868 192.36549 
L 359.135207 192.342318 
L 362.414545 192.307559 
L 365.693884 192.284387 
L 368.973223 192.261215 
L 372.252562 192.238043 
L 375.531901 192.214871 
L 378.81124 192.203284 
L 382.090579 192.180112 
L 385.369917 192.168526 
L 388.649256 192.15694 
L 391.928595 192.145354 
L 395.207934 192.133768 
L 398.487273 192.122182 
" clip-path="url(#pd42426b994)" style="fill: none; stroke: #1f77b4; stroke-width: 1.5; stroke-linecap: square"/>
   </g>
   <g id="line2d_31">
    <path d="M 73.832727 284.706674 
L 77.112066 302.085818 
L 80.391405 302.085818 
L 83.670744 302.085818 
L 86.950083 302.085818 
L 90.229421 302.085818 
L 93.50876 302.085818 
L 96.788099 301.506513 
L 100.067438 300.649142 
L 103.346777 299.757013 
L 106.626116 298.841711 
L 109.905455 297.891651 
L 113.184793 296.906833 
L 116.464132 295.898843 
L 119.743471 294.856094 
L 123.02281 293.778587 
L 126.302149 292.666322 
L 129.581488 291.530885 
L 132.860826 290.360689 
L 136.140165 289.155735 
L 139.419504 287.927609 
L 142.698843 286.664725 
L 145.978182 285.367082 
L 149.257521 284.046267 
L 152.53686 282.690694 
L 155.816198 281.311948 
L 159.095537 279.898444 
L 162.374876 278.473355 
L 165.654215 277.013507 
L 168.933554 275.530486 
L 172.212893 274.024294 
L 175.492231 272.494929 
L 178.77157 270.942392 
L 182.050909 269.378269 
L 185.330248 267.790974 
L 188.609587 266.203679 
L 191.888926 264.593212 
L 195.168264 262.971158 
L 198.447603 261.337519 
L 201.726942 259.703879 
L 205.006281 258.058654 
L 208.28562 256.413428 
L 211.564959 254.768202 
L 214.844298 253.134563 
L 218.123636 251.489337 
L 221.402975 249.855698 
L 224.682314 248.233644 
L 227.961653 246.611591 
L 231.240992 245.01271 
L 234.520331 243.425415 
L 237.799669 241.849706 
L 241.079008 240.285583 
L 244.358347 238.744632 
L 247.637686 237.238439 
L 250.917025 235.732247 
L 254.196364 234.272399 
L 257.475702 232.824137 
L 260.755041 231.399047 
L 264.03438 230.008715 
L 267.313719 228.641556 
L 270.593058 227.309155 
L 273.872397 226.011512 
L 277.151736 224.737042 
L 280.431074 223.485743 
L 283.710413 222.280789 
L 286.989752 221.099008 
L 290.269091 219.951984 
L 293.54843 218.839719 
L 296.827769 217.762212 
L 300.107107 216.719463 
L 303.386446 215.699887 
L 306.665785 214.715069 
L 309.945124 213.765009 
L 313.224463 212.849707 
L 316.503802 211.957578 
L 319.78314 211.100207 
L 323.062479 210.277594 
L 326.341818 209.478154 
L 329.621157 208.713471 
L 332.900496 207.971961 
L 336.179835 207.265209 
L 339.459174 206.58163 
L 342.738512 205.921222 
L 346.017851 205.295573 
L 349.29719 204.68151 
L 352.576529 204.102205 
L 355.855868 203.546072 
L 359.135207 203.013112 
L 362.414545 202.503324 
L 365.693884 202.016708 
L 368.973223 201.541678 
L 372.252562 201.101406 
L 375.531901 200.672721 
L 378.81124 200.255621 
L 382.090579 199.861694 
L 385.369917 199.490939 
L 388.649256 199.13177 
L 391.928595 198.795773 
L 395.207934 198.471362 
L 398.487273 198.158538 
" clip-path="url(#pd42426b994)" style="fill: none; stroke: #ff7f0e; stroke-width: 1.5; stroke-linecap: square"/>
   </g>
   <g id="line2d_32">
    <path d="M 73.832727 284.706674 
L 77.112066 302.085818 
L 80.391405 302.085818 
L 83.670744 302.085818 
L 86.950083 302.085818 
L 90.229421 302.085818 
L 93.50876 302.085818 
L 96.788099 302.085818 
L 100.067438 302.085818 
L 103.346777 302.085818 
L 106.626116 302.05106 
L 109.905455 301.506513 
L 113.184793 300.938795 
L 116.464132 300.371076 
L 119.743471 299.780185 
L 123.02281 299.177708 
L 126.302149 298.563645 
L 129.581488 297.92641 
L 132.860826 297.289174 
L 136.140165 296.628767 
L 139.419504 295.96836 
L 142.698843 295.28478 
L 145.978182 294.589614 
L 149.257521 293.871276 
L 152.53686 293.152938 
L 155.816198 292.411428 
L 159.095537 291.658332 
L 162.374876 290.89365 
L 165.654215 290.117381 
L 168.933554 289.329527 
L 172.212893 288.5185 
L 175.492231 287.707473 
L 178.77157 286.873274 
L 182.050909 286.027489 
L 185.330248 285.170118 
L 188.609587 284.301161 
L 191.888926 283.420618 
L 195.168264 282.516902 
L 198.447603 281.613187 
L 201.726942 280.697885 
L 205.006281 279.770997 
L 208.28562 278.820938 
L 211.564959 277.870878 
L 214.844298 276.909232 
L 218.123636 275.936 
L 221.402975 274.951182 
L 224.682314 273.954777 
L 227.961653 272.958373 
L 231.240992 271.950383 
L 234.520331 270.930806 
L 237.799669 269.899644 
L 241.079008 268.868481 
L 244.358347 267.825733 
L 247.637686 266.782984 
L 250.917025 265.728649 
L 254.196364 264.674314 
L 257.475702 263.608394 
L 260.755041 262.542473 
L 264.03438 261.476552 
L 267.313719 260.399045 
L 270.593058 259.333124 
L 273.872397 258.255617 
L 277.151736 257.17811 
L 280.431074 256.100603 
L 283.710413 255.023097 
L 286.989752 253.94559 
L 290.269091 252.868083 
L 293.54843 251.790576 
L 296.827769 250.724655 
L 300.107107 249.658734 
L 303.386446 248.592813 
L 306.665785 247.526893 
L 309.945124 246.472558 
L 313.224463 245.418223 
L 316.503802 244.375474 
L 319.78314 243.344312 
L 323.062479 242.313149 
L 326.341818 241.281987 
L 329.621157 240.273996 
L 332.900496 239.266006 
L 336.179835 238.258016 
L 339.459174 237.273198 
L 342.738512 236.288379 
L 346.017851 235.326733 
L 349.29719 234.365088 
L 352.576529 233.415028 
L 355.855868 232.476554 
L 359.135207 231.549666 
L 362.414545 230.634365 
L 365.693884 229.730649 
L 368.973223 228.83852 
L 372.252562 227.969563 
L 375.531901 227.100605 
L 378.81124 226.25482 
L 382.090579 225.409035 
L 385.369917 224.586423 
L 388.649256 223.775396 
L 391.928595 222.975955 
L 395.207934 222.188101 
L 398.487273 221.423418 
" clip-path="url(#pd42426b994)" style="fill: none; stroke: #2ca02c; stroke-width: 1.5; stroke-linecap: square"/>
   </g>
   <g id="line2d_33">
    <path d="M 73.832727 284.706674 
L 77.112066 302.085818 
L 80.391405 302.085818 
L 83.670744 302.085818 
L 86.950083 302.085818 
L 90.229421 302.085818 
L 93.50876 302.085818 
L 96.788099 302.085818 
L 100.067438 302.085818 
L 103.346777 302.085818 
L 106.626116 302.085818 
L 109.905455 302.085818 
L 113.184793 302.085818 
L 116.464132 302.085818 
L 119.743471 302.085818 
L 123.02281 302.085818 
L 126.302149 302.085818 
L 129.581488 302.085818 
L 132.860826 301.900441 
L 136.140165 301.57603 
L 139.419504 301.251619 
L 142.698843 300.915622 
L 145.978182 300.579626 
L 149.257521 300.243629 
L 152.53686 299.896046 
L 155.816198 299.536877 
L 159.095537 299.189294 
L 162.374876 298.830125 
L 165.654215 298.45937 
L 168.933554 298.088615 
L 172.212893 297.71786 
L 175.492231 297.347105 
L 178.77157 296.964764 
L 182.050909 296.570837 
L 185.330248 296.176909 
L 188.609587 295.782982 
L 191.888926 295.377469 
L 195.168264 294.971955 
L 198.447603 294.566442 
L 201.726942 294.149342 
L 205.006281 293.732243 
L 208.28562 293.303557 
L 211.564959 292.874872 
L 214.844298 292.446186 
L 218.123636 292.005915 
L 221.402975 291.554057 
L 224.682314 291.113785 
L 227.961653 290.661928 
L 231.240992 290.198484 
L 234.520331 289.73504 
L 237.799669 289.271596 
L 241.079008 288.796566 
L 244.358347 288.321536 
L 247.637686 287.846506 
L 250.917025 287.35989 
L 254.196364 286.873274 
L 257.475702 286.375072 
L 260.755041 285.87687 
L 264.03438 285.378668 
L 267.313719 284.86888 
L 270.593058 284.359091 
L 273.872397 283.837717 
L 277.151736 283.316343 
L 280.431074 282.794968 
L 283.710413 282.262008 
L 286.989752 281.729048 
L 290.269091 281.196087 
L 293.54843 280.651541 
L 296.827769 280.106994 
L 300.107107 279.562448 
L 303.386446 279.006315 
L 306.665785 278.461769 
L 309.945124 277.89405 
L 313.224463 277.337917 
L 316.503802 276.770199 
L 319.78314 276.20248 
L 323.062479 275.623175 
L 326.341818 275.04387 
L 329.621157 274.464566 
L 332.900496 273.885261 
L 336.179835 273.29437 
L 339.459174 272.703479 
L 342.738512 272.112588 
L 346.017851 271.521697 
L 349.29719 270.91922 
L 352.576529 270.328329 
L 355.855868 269.725852 
L 359.135207 269.111789 
L 362.414545 268.509312 
L 365.693884 267.895249 
L 368.973223 267.292772 
L 372.252562 266.678709 
L 375.531901 266.05306 
L 378.81124 265.438997 
L 382.090579 264.824934 
L 385.369917 264.199285 
L 388.649256 263.585221 
L 391.928595 262.959572 
L 395.207934 262.333923 
L 398.487273 261.708274 
" clip-path="url(#pd42426b994)" style="fill: none; stroke: #d62728; stroke-width: 1.5; stroke-linecap: square"/>
   </g>
   <g id="line2d_34">
    <path d="M 73.832727 284.706674 
L 77.112066 302.085818 
L 80.391405 302.085818 
L 83.670744 302.085818 
L 86.950083 302.085818 
L 90.229421 302.085818 
L 93.50876 302.085818 
L 96.788099 302.085818 
L 100.067438 302.085818 
L 103.346777 302.085818 
L 106.626116 302.085818 
L 109.905455 302.085818 
L 113.184793 302.085818 
L 116.464132 302.085818 
L 119.743471 302.085818 
L 123.02281 302.085818 
L 126.302149 302.085818 
L 129.581488 302.085818 
L 132.860826 302.085818 
L 136.140165 302.085818 
L 139.419504 302.085818 
L 142.698843 302.085818 
L 145.978182 302.085818 
L 149.257521 302.085818 
L 152.53686 302.085818 
L 155.816198 302.085818 
L 159.095537 302.085818 
L 162.374876 302.085818 
L 165.654215 302.085818 
L 168.933554 302.085818 
L 172.212893 302.062646 
L 175.492231 301.865682 
L 178.77157 301.680305 
L 182.050909 301.483341 
L 185.330248 301.286378 
L 188.609587 301.089414 
L 191.888926 300.89245 
L 195.168264 300.695487 
L 198.447603 300.498523 
L 201.726942 300.289973 
L 205.006281 300.081424 
L 208.28562 299.88446 
L 211.564959 299.67591 
L 214.844298 299.467361 
L 218.123636 299.247225 
L 221.402975 299.038675 
L 224.682314 298.830125 
L 227.961653 298.609989 
L 231.240992 298.389854 
L 234.520331 298.169718 
L 237.799669 297.949582 
L 241.079008 297.729446 
L 244.358347 297.50931 
L 247.637686 297.289174 
L 250.917025 297.057453 
L 254.196364 296.825731 
L 257.475702 296.594009 
L 260.755041 296.362287 
L 264.03438 296.130565 
L 267.313719 295.898843 
L 270.593058 295.667121 
L 273.872397 295.423813 
L 277.151736 295.180505 
L 280.431074 294.937197 
L 283.710413 294.693889 
L 286.989752 294.450581 
L 290.269091 294.207273 
L 293.54843 293.963965 
L 296.827769 293.709071 
L 300.107107 293.454177 
L 303.386446 293.199283 
L 306.665785 292.944389 
L 309.945124 292.689494 
L 313.224463 292.4346 
L 316.503802 292.179706 
L 319.78314 291.913226 
L 323.062479 291.646746 
L 326.341818 291.380266 
L 329.621157 291.113785 
L 332.900496 290.847305 
L 336.179835 290.580825 
L 339.459174 290.314345 
L 342.738512 290.036278 
L 346.017851 289.758212 
L 349.29719 289.491732 
L 352.576529 289.213666 
L 355.855868 288.935599 
L 359.135207 288.645947 
L 362.414545 288.367881 
L 365.693884 288.078228 
L 368.973223 287.800162 
L 372.252562 287.51051 
L 375.531901 287.220857 
L 378.81124 286.931205 
L 382.090579 286.641552 
L 385.369917 286.340314 
L 388.649256 286.050661 
L 391.928595 285.749423 
L 395.207934 285.459771 
L 398.487273 285.158532 
" clip-path="url(#pd42426b994)" style="fill: none; stroke: #9467bd; stroke-width: 1.5; stroke-linecap: square"/>
   </g>
   <g id="line2d_35">
    <path d="M 73.832727 284.706674 
L 77.112066 302.085818 
L 80.391405 302.085818 
L 83.670744 302.085818 
L 86.950083 302.085818 
L 90.229421 302.085818 
L 93.50876 302.085818 
L 96.788099 302.085818 
L 100.067438 302.085818 
L 103.346777 302.085818 
L 106.626116 302.085818 
L 109.905455 302.085818 
L 113.184793 302.085818 
L 116.464132 302.085818 
L 119.743471 302.085818 
L 123.02281 302.085818 
L 126.302149 302.085818 
L 129.581488 302.085818 
L 132.860826 302.085818 
L 136.140165 302.085818 
L 139.419504 302.085818 
L 142.698843 302.085818 
L 145.978182 302.085818 
L 149.257521 302.085818 
L 152.53686 302.085818 
L 155.816198 302.085818 
L 159.095537 302.085818 
L 162.374876 302.085818 
L 165.654215 302.085818 
L 168.933554 302.085818 
L 172.212893 302.062646 
L 175.492231 301.865682 
L 178.77157 301.680305 
L 182.050909 301.483341 
L 185.330248 301.286378 
L 188.609587 301.089414 
L 191.888926 300.89245 
L 195.168264 300.695487 
L 198.447603 300.498523 
L 201.726942 300.289973 
L 205.006281 300.081424 
L 208.28562 299.88446 
L 211.564959 299.67591 
L 214.844298 299.467361 
L 218.123636 299.247225 
L 221.402975 299.038675 
L 224.682314 298.830125 
L 227.961653 298.609989 
L 231.240992 298.389854 
L 234.520331 298.169718 
L 237.799669 297.949582 
L 241.079008 297.729446 
L 244.358347 297.50931 
L 247.637686 297.289174 
L 250.917025 297.057453 
L 254.196364 296.825731 
L 257.475702 296.594009 
L 260.755041 296.362287 
L 264.03438 296.130565 
L 267.313719 295.898843 
L 270.593058 295.667121 
L 273.872397 295.423813 
L 277.151736 295.180505 
L 280.431074 294.937197 
L 283.710413 294.693889 
L 286.989752 294.450581 
L 290.269091 294.207273 
L 293.54843 293.963965 
L 296.827769 293.709071 
L 300.107107 293.454177 
L 303.386446 293.199283 
L 306.665785 292.944389 
L 309.945124 292.689494 
L 313.224463 292.4346 
L 316.503802 292.179706 
L 319.78314 291.913226 
L 323.062479 291.646746 
L 326.341818 291.380266 
L 329.621157 291.113785 
L 332.900496 290.847305 
L 336.179835 290.580825 
L 339.459174 290.314345 
L 342.738512 290.036278 
L 346.017851 289.758212 
L 349.29719 289.491732 
L 352.576529 289.213666 
L 355.855868 288.935599 
L 359.135207 288.645947 
L 362.414545 288.367881 
L 365.693884 288.078228 
L 368.973223 287.800162 
L 372.252562 287.51051 
L 375.531901 287.220857 
L 378.81124 286.931205 
L 382.090579 286.641552 
L 385.369917 286.340314 
L 388.649256 286.050661 
L 391.928595 285.749423 
L 395.207934 285.459771 
L 398.487273 285.158532 
" clip-path="url(#pd42426b994)" style="fill: none; stroke: #8c564b; stroke-width: 1.5; stroke-linecap: square"/>
   </g>
   <g id="line2d_36">
    <path d="M 73.832727 284.706674 
L 77.112066 302.085818 
L 80.391405 302.085818 
L 83.670744 302.085818 
L 86.950083 302.085818 
L 90.229421 302.085818 
L 93.50876 299.224052 
L 96.788099 296.628767 
L 100.067438 293.790174 
L 103.346777 290.708272 
L 106.626116 287.406235 
L 109.905455 283.860889 
L 113.184793 280.083822 
L 116.464132 276.109791 
L 119.743471 271.950383 
L 123.02281 267.628769 
L 126.302149 263.191294 
L 129.581488 258.672717 
L 132.860826 254.107795 
L 136.140165 249.542873 
L 139.419504 245.035882 
L 142.698843 240.621579 
L 145.978182 236.334724 
L 149.257521 248.013509 
L 152.53686 245.140157 
L 155.816198 242.313149 
L 159.095537 239.532486 
L 162.374876 236.809754 
L 165.654215 253.088219 
L 168.933554 251.454579 
L 172.212893 249.820939 
L 175.492231 248.1873 
L 178.77157 246.576833 
L 182.050909 244.977951 
L 185.330248 243.37907 
L 188.609587 241.803361 
L 191.888926 240.250824 
L 195.168264 238.709874 
L 198.447603 237.192095 
L 201.726942 249.681906 
L 205.006281 248.615986 
L 208.28562 247.561651 
L 211.564959 246.49573 
L 214.844298 245.452981 
L 218.123636 244.398647 
L 221.402975 243.367484 
L 224.682314 242.336322 
L 227.961653 241.305159 
L 231.240992 240.297169 
L 234.520331 239.289178 
L 237.799669 238.281188 
L 241.079008 254.084623 
L 244.358347 253.447388 
L 247.637686 252.821738 
L 250.917025 252.196089 
L 254.196364 251.57044 
L 257.475702 250.944791 
L 260.755041 250.319142 
L 264.03438 249.693492 
L 267.313719 249.067843 
L 270.593058 248.45378 
L 273.872397 247.828131 
L 277.151736 247.214068 
L 280.431074 246.600005 
L 283.710413 245.985942 
L 286.989752 245.371879 
L 290.269091 244.757816 
L 293.54843 244.143752 
L 296.827769 243.541276 
L 300.107107 242.938799 
L 303.386446 242.336322 
L 306.665785 241.733845 
L 309.945124 241.142954 
L 313.224463 240.552063 
L 316.503802 239.961172 
L 319.78314 239.370281 
L 323.062479 238.77939 
L 326.341818 238.200085 
L 329.621157 253.934004 
L 332.900496 253.563248 
L 336.179835 253.192493 
L 339.459174 252.821738 
L 342.738512 252.450983 
L 346.017851 252.080228 
L 349.29719 251.709473 
L 352.576529 251.338718 
L 355.855868 250.967963 
L 359.135207 250.597208 
L 362.414545 250.226453 
L 365.693884 249.855698 
L 368.973223 249.496529 
L 372.252562 249.125774 
L 375.531901 248.755019 
L 378.81124 248.384264 
L 382.090579 248.025095 
L 385.369917 247.65434 
L 388.649256 247.295171 
L 391.928595 246.924416 
L 395.207934 246.565247 
L 398.487273 246.194491 
" clip-path="url(#pd42426b994)" style="fill: none; stroke: #e377c2; stroke-width: 1.5; stroke-linecap: square"/>
   </g>
   <g id="line2d_37">
    <path d="M 73.832727 284.706674 
L 77.112066 302.085818 
L 80.391405 302.085818 
L 83.670744 302.085818 
L 86.950083 302.085818 
L 90.229421 302.085818 
L 93.50876 299.224052 
L 96.788099 296.628767 
L 100.067438 293.790174 
L 103.346777 290.708272 
L 106.626116 287.406235 
L 109.905455 283.860889 
L 113.184793 280.083822 
L 116.464132 276.109791 
L 119.743471 271.950383 
L 123.02281 267.628769 
L 126.302149 263.191294 
L 129.581488 258.672717 
L 132.860826 254.107795 
L 136.140165 249.542873 
L 139.419504 245.035882 
L 142.698843 240.621579 
L 145.978182 236.334724 
L 149.257521 232.22166 
L 152.53686 228.305559 
L 155.816198 224.621181 
L 159.095537 221.18011 
L 162.374876 217.993934 
L 165.654215 215.062652 
L 168.933554 231.908835 
L 172.212893 229.417825 
L 175.492231 227.019503 
L 178.77157 224.71387 
L 182.050909 222.500925 
L 185.330248 220.392256 
L 188.609587 218.399447 
L 191.888926 216.499328 
L 195.168264 214.703483 
L 198.447603 237.053062 
L 201.726942 235.558455 
L 205.006281 234.087021 
L 208.28562 232.650345 
L 211.564959 231.225256 
L 214.844298 229.834924 
L 218.123636 228.479351 
L 221.402975 227.14695 
L 224.682314 225.849307 
L 227.961653 224.574836 
L 231.240992 223.34671 
L 234.520331 222.13017 
L 237.799669 220.959975 
L 241.079008 219.824537 
L 244.358347 218.712272 
L 247.637686 217.634765 
L 250.917025 216.592016 
L 254.196364 215.57244 
L 257.475702 214.599208 
L 260.755041 231.74663 
L 264.03438 230.831328 
L 267.313719 229.927613 
L 270.593058 229.035483 
L 273.872397 228.15494 
L 277.151736 227.285983 
L 280.431074 226.428612 
L 283.710413 225.582827 
L 286.989752 224.760214 
L 290.269091 223.949187 
L 293.54843 223.149747 
L 296.827769 222.361892 
L 300.107107 221.585624 
L 303.386446 220.820941 
L 306.665785 220.079431 
L 309.945124 219.349507 
L 313.224463 218.631169 
L 316.503802 217.924417 
L 319.78314 217.240838 
L 323.062479 216.557258 
L 326.341818 215.896851 
L 329.621157 215.248029 
L 332.900496 214.610794 
L 336.179835 236.195691 
L 339.459174 235.627972 
L 342.738512 235.071839 
L 346.017851 234.504121 
L 349.29719 233.947988 
L 352.576529 233.403442 
L 355.855868 232.847309 
L 359.135207 232.302762 
L 362.414545 231.769802 
L 365.693884 231.225256 
L 368.973223 230.692295 
L 372.252562 230.170921 
L 375.531901 229.649546 
L 378.81124 229.128172 
L 382.090579 228.606798 
L 385.369917 228.09701 
L 388.649256 227.587221 
L 391.928595 227.089019 
L 395.207934 226.590817 
L 398.487273 226.104201 
" clip-path="url(#pd42426b994)" style="fill: none; stroke: #7f7f7f; stroke-width: 1.5; stroke-linecap: square"/>
   </g>
   <g id="patch_8">
    <path d="M 57.6 307.584 
L 57.6 186.624 
" style="fill: none; stroke: #000000; stroke-width: 0.8; stroke-linejoin: miter; stroke-linecap: square"/>
   </g>
   <g id="patch_9">
    <path d="M 414.72 307.584 
L 414.72 186.624 
" style="fill: none; stroke: #000000; stroke-width: 0.8; stroke-linejoin: miter; stroke-linecap: square"/>
   </g>
   <g id="patch_10">
    <path d="M 57.6 307.584 
L 414.72 307.584 
" style="fill: none; stroke: #000000; stroke-width: 0.8; stroke-linejoin: miter; stroke-linecap: square"/>
   </g>
   <g id="patch_11">
    <path d="M 57.6 186.624 
L 414.72 186.624 
" style="fill: none; stroke: #000000; stroke-width: 0.8; stroke-linejoin: miter; stroke-linecap: square"/>
   </g>
  </g>
  <g id="text_19">
   <!-- Performance for a simulated engine -->
   <g transform="translate(122.72625 16.030125) scale(0.12 -0.12)">
    <defs>
     <path id="DejaVuSans-72" d="M 2631 2963 
Q 2534 3019 2420 3045 
Q 2306 3072 2169 3072 
Q 1681 3072 1420 2755 
Q 1159 2438 1159 1844 
L 1159 0 
L 581 0 
L 581 3500 
L 1159 3500 
L 1159 2956 
Q 1341 3275 1631 3429 
Q 1922 3584 2338 3584 
Q 2397 3584 2469 3576 
Q 2541 3569 2628 3553 
L 2631 2963 
z
" transform="scale(0.015625)"/>
     <path id="DejaVuSans-66" d="M 2375 4863 
L 2375 4384 
L 1825 4384 
Q 1516 4384 1395 4259 
Q 1275 4134 1275 3809 
L 1275 3500 
L 2222 3500 
L 2222 3053 
L 1275 3053 
L 1275 0 
L 697 0 
L 697 3053 
L 147 3053 
L 147 3500 
L 697 3500 
L 697 3744 
Q 697 4328 969 4595 
Q 1241 4863 1831 4863 
L 2375 4863 
z
" transform="scale(0.015625)"/>
     <path id="DejaVuSans-6f" d="M 1959 3097 
Q 1497 3097 1228 2736 
Q 959 2375 959 1747 
Q 959 1119 1226 758 
Q 1494 397 1959 397 
Q 2419 397 2687 759 
Q 2956 1122 2956 1747 
Q 2956 2369 2687 2733 
Q 2419 3097 1959 3097 
z
M 1959 3584 
Q 2709 3584 3137 3096 
Q 3566 2609 3566 1747 
Q 3566 888 3137 398 
Q 2709 -91 1959 -91 
Q 1206 -91 779 398 
Q 353 888 353 1747 
Q 353 2609 779 3096 
Q 1206 3584 1959 3584 
z
" transform="scale(0.015625)"/>
     <path id="DejaVuSans-61" d="M 2194 1759 
Q 1497 1759 1228 1600 
Q 959 1441 959 1056 
Q 959 750 1161 570 
Q 1363 391 1709 391 
Q 2188 391 2477 730 
Q 2766 1069 2766 1631 
L 2766 1759 
L 2194 1759 
z
M 3341 1997 
L 3341 0 
L 2766 0 
L 2766 531 
Q 2569 213 2275 61 
Q 1981 -91 1556 -91 
Q 1019 -91 701 211 
Q 384 513 384 1019 
Q 384 1609 779 1909 
Q 1175 2209 1959 2209 
L 2766 2209 
L 2766 2266 
Q 2766 2663 2505 2880 
Q 2244 3097 1772 3097 
Q 1472 3097 1187 3025 
Q 903 2953 641 2809 
L 641 3341 
Q 956 3463 1253 3523 
Q 1550 3584 1831 3584 
Q 2591 3584 2966 3190 
Q 3341 2797 3341 1997 
z
" transform="scale(0.015625)"/>
     <path id="DejaVuSans-6e" d="M 3513 2113 
L 3513 0 
L 2938 0 
L 2938 2094 
Q 2938 2591 2744 2837 
Q 2550 3084 2163 3084 
Q 1697 3084 1428 2787 
Q 1159 2491 1159 1978 
L 1159 0 
L 581 0 
L 581 3500 
L 1159 3500 
L 1159 2956 
Q 1366 3272 1645 3428 
Q 1925 3584 2291 3584 
Q 2894 3584 3203 3211 
Q 3513 2838 3513 2113 
z
" transform="scale(0.015625)"/>
     <path id="DejaVuSans-63" d="M 3122 3366 
L 3122 2828 
Q 2878 2963 2633 3030 
Q 2388 3097 2138 3097 
Q 1578 3097 1268 2742 
Q 959 2388 959 1747 
Q 959 1106 1268 751 
Q 1578 397 2138 397 
Q 2388 397 2633 464 
Q 2878 531 3122 666 
L 3122 134 
Q 2881 22 2623 -34 
Q 2366 -91 2075 -91 
Q 1284 -91 818 406 
Q 353 903 353 1747 
Q 353 2603 823 3093 
Q 1294 3584 2113 3584 
Q 2378 3584 2631 3529 
Q 2884 3475 3122 3366 
z
" transform="scale(0.015625)"/>
     <path id="DejaVuSans-75" d="M 544 1381 
L 544 3500 
L 1119 3500 
L 1119 1403 
Q 1119 906 1312 657 
Q 1506 409 1894 409 
Q 2359 409 2629 706 
Q 2900 1003 2900 1516 
L 2900 3500 
L 3475 3500 
L 3475 0 
L 2900 0 
L 2900 538 
Q 2691 219 2414 64 
Q 2138 -91 1772 -91 
Q 1169 -91 856 284 
Q 544 659 544 1381 
z
M 1991 3584 
L 1991 3584 
z
" transform="scale(0.015625)"/>
     <path id="DejaVuSans-6c" d="M 603 4863 
L 1178 4863 
L 1178 0 
L 603 0 
L 603 4863 
z
" transform="scale(0.015625)"/>
     <path id="DejaVuSans-74" d="M 1172 4494 
L 1172 3500 
L 2356 3500 
L 2356 3053 
L 1172 3053 
L 1172 1153 
Q 1172 725 1289 603 
Q 1406 481 1766 481 
L 2356 481 
L 2356 0 
L 1766 0 
Q 1100 0 847 248 
Q 594 497 594 1153 
L 594 3053 
L 172 3053 
L 172 3500 
L 594 3500 
L 594 4494 
L 1172 4494 
z
" transform="scale(0.015625)"/>
     <path id="DejaVuSans-67" d="M 2906 1791 
Q 2906 2416 2648 2759 
Q 2391 3103 1925 3103 
Q 1463 3103 1205 2759 
Q 947 2416 947 1791 
Q 947 1169 1205 825 
Q 1463 481 1925 481 
Q 2391 481 2648 825 
Q 2906 1169 2906 1791 
z
M 3481 434 
Q 3481 -459 3084 -895 
Q 2688 -1331 1869 -1331 
Q 1566 -1331 1297 -1286 
Q 1028 -1241 775 -1147 
L 775 -588 
Q 1028 -725 1275 -790 
Q 1522 -856 1778 -856 
Q 2344 -856 2625 -561 
Q 2906 -266 2906 331 
L 2906 616 
Q 2728 306 2450 153 
Q 2172 0 1784 0 
Q 1141 0 747 490 
Q 353 981 353 1791 
Q 353 2603 747 3093 
Q 1141 3584 1784 3584 
Q 2172 3584 2450 3431 
Q 2728 3278 2906 2969 
L 2906 3500 
L 3481 3500 
L 3481 434 
z
" transform="scale(0.015625)"/>
    </defs>
    <use xlink:href="#DejaVuSans-50"/>
    <use xlink:href="#DejaVuSans-65" x="56.677734"/>
    <use xlink:href="#DejaVuSans-72" x="118.201172"/>
    <use xlink:href="#DejaVuSans-66" x="159.314453"/>
    <use xlink:href="#DejaVuSans-6f" x="194.519531"/>
    <use xlink:href="#DejaVuSans-72" x="255.701172"/>
    <use xlink:href="#DejaVuSans-6d" x="295.064453"/>
    <use xlink:href="#DejaVuSans-61" x="392.476562"/>
    <use xlink:href="#DejaVuSans-6e" x="453.755859"/>
    <use xlink:href="#DejaVuSans-63" x="517.134766"/>
    <use xlink:href="#DejaVuSans-65" x="572.115234"/>
    <use xlink:href="#DejaVuSans-20" x="633.638672"/>
    <use xlink:href="#DejaVuSans-66" x="665.425781"/>
    <use xlink:href="#DejaVuSans-6f" x="700.630859"/>
    <use xlink:href="#DejaVuSans-72" x="761.8125"/>
    <use xlink:href="#DejaVuSans-20" x="802.925781"/>
    <use xlink:href="#DejaVuSans-61" x="834.712891"/>
    <use xlink:href="#DejaVuSans-20" x="895.992188"/>
    <use xlink:href="#DejaVuSans-73" x="927.779297"/>
    <use xlink:href="#DejaVuSans-69" x="979.878906"/>
    <use xlink:href="#DejaVuSans-6d" x="1007.662109"/>
    <use xlink:href="#DejaVuSans-75" x="1105.074219"/>
    <use xlink:href="#DejaVuSans-6c" x="1168.453125"/>
    <use xlink:href="#DejaVuSans-61" x="1196.236328"/>
    <use xlink:href="#DejaVuSans-74" x="1257.515625"/>
    <use xlink:href="#DejaVuSans-65" x="1296.724609"/>
    <use xlink:href="#DejaVuSans-64" x="1358.248047"/>
    <use xlink:href="#DejaVuSans-20" x="1421.724609"/>
    <use xlink:href="#DejaVuSans-65" x="1453.511719"/>
    <use xlink:href="#DejaVuSans-6e" x="1515.035156"/>
    <use xlink:href="#DejaVuSans-67" x="1578.414062"/>
    <use xlink:href="#DejaVuSans-69" x="1641.890625"/>
    <use xlink:href="#DejaVuSans-6e" x="1669.673828"/>
    <use xlink:href="#DejaVuSans-65" x="1733.052734"/>
   </g>
  </g>
  <g id="legend_1">
   <g id="patch_12">
    <path d="M 434.105937 159.985 
L 522.92 159.985 
Q 524.92 159.985 524.92 157.985 
L 524.92 41.56 
Q 524.92 39.56 522.92 39.56 
L 434.105937 39.56 
Q 432.105937 39.56 432.105937 41.56 
L 432.105937 157.985 
Q 432.105937 159.985 434.105937 159.985 
z
" style="fill: #ffffff; opacity: 0.8; stroke: #cccccc; stroke-linejoin: miter"/>
   </g>
   <g id="line2d_38">
    <path d="M 436.105937 47.658437 
L 446.105937 47.658437 
L 456.105937 47.658437 
" style="fill: none; stroke: #1f77b4; stroke-width: 1.5; stroke-linecap: square"/>
   </g>
   <g id="text_20">
    <!-- gear 1 -->
    <g transform="translate(464.105937 51.158437) scale(0.1 -0.1)">
     <use xlink:href="#DejaVuSans-67"/>
     <use xlink:href="#DejaVuSans-65" x="63.476562"/>
     <use xlink:href="#DejaVuSans-61" x="125"/>
     <use xlink:href="#DejaVuSans-72" x="186.279297"/>
     <use xlink:href="#DejaVuSans-20" x="227.392578"/>
     <use xlink:href="#DejaVuSans-31" x="259.179688"/>
    </g>
   </g>
   <g id="line2d_39">
    <path d="M 436.105937 62.336563 
L 446.105937 62.336563 
L 456.105937 62.336563 
" style="fill: none; stroke: #ff7f0e; stroke-width: 1.5; stroke-linecap: square"/>
   </g>
   <g id="text_21">
    <!-- gear 2 -->
    <g transform="translate(464.105937 65.836563) scale(0.1 -0.1)">
     <use xlink:href="#DejaVuSans-67"/>
     <use xlink:href="#DejaVuSans-65" x="63.476562"/>
     <use xlink:href="#DejaVuSans-61" x="125"/>
     <use xlink:href="#DejaVuSans-72" x="186.279297"/>
     <use xlink:href="#DejaVuSans-20" x="227.392578"/>
     <use xlink:href="#DejaVuSans-32" x="259.179688"/>
    </g>
   </g>
   <g id="line2d_40">
    <path d="M 436.105937 77.014687 
L 446.105937 77.014687 
L 456.105937 77.014687 
" style="fill: none; stroke: #2ca02c; stroke-width: 1.5; stroke-linecap: square"/>
   </g>
   <g id="text_22">
    <!-- gear 3 -->
    <g transform="translate(464.105937 80.514687) scale(0.1 -0.1)">
     <defs>
      <path id="DejaVuSans-33" d="M 2597 2516 
Q 3050 2419 3304 2112 
Q 3559 1806 3559 1356 
Q 3559 666 3084 287 
Q 2609 -91 1734 -91 
Q 1441 -91 1130 -33 
Q 819 25 488 141 
L 488 750 
Q 750 597 1062 519 
Q 1375 441 1716 441 
Q 2309 441 2620 675 
Q 2931 909 2931 1356 
Q 2931 1769 2642 2001 
Q 2353 2234 1838 2234 
L 1294 2234 
L 1294 2753 
L 1863 2753 
Q 2328 2753 2575 2939 
Q 2822 3125 2822 3475 
Q 2822 3834 2567 4026 
Q 2313 4219 1838 4219 
Q 1578 4219 1281 4162 
Q 984 4106 628 3988 
L 628 4550 
Q 988 4650 1302 4700 
Q 1616 4750 1894 4750 
Q 2613 4750 3031 4423 
Q 3450 4097 3450 3541 
Q 3450 3153 3228 2886 
Q 3006 2619 2597 2516 
z
" transform="scale(0.015625)"/>
     </defs>
     <use xlink:href="#DejaVuSans-67"/>
     <use xlink:href="#DejaVuSans-65" x="63.476562"/>
     <use xlink:href="#DejaVuSans-61" x="125"/>
     <use xlink:href="#DejaVuSans-72" x="186.279297"/>
     <use xlink:href="#DejaVuSans-20" x="227.392578"/>
     <use xlink:href="#DejaVuSans-33" x="259.179688"/>
    </g>
   </g>
   <g id="line2d_41">
    <path d="M 436.105937 91.692813 
L 446.105937 91.692813 
L 456.105937 91.692813 
" style="fill: none; stroke: #d62728; stroke-width: 1.5; stroke-linecap: square"/>
   </g>
   <g id="text_23">
    <!-- gear 4 -->
    <g transform="translate(464.105937 95.192813) scale(0.1 -0.1)">
     <use xlink:href="#DejaVuSans-67"/>
     <use xlink:href="#DejaVuSans-65" x="63.476562"/>
     <use xlink:href="#DejaVuSans-61" x="125"/>
     <use xlink:href="#DejaVuSans-72" x="186.279297"/>
     <use xlink:href="#DejaVuSans-20" x="227.392578"/>
     <use xlink:href="#DejaVuSans-34" x="259.179688"/>
    </g>
   </g>
   <g id="line2d_42">
    <path d="M 436.105937 106.370937 
L 446.105937 106.370937 
L 456.105937 106.370937 
" style="fill: none; stroke: #9467bd; stroke-width: 1.5; stroke-linecap: square"/>
   </g>
   <g id="text_24">
    <!-- gear 5 -->
    <g transform="translate(464.105937 109.870937) scale(0.1 -0.1)">
     <use xlink:href="#DejaVuSans-67"/>
     <use xlink:href="#DejaVuSans-65" x="63.476562"/>
     <use xlink:href="#DejaVuSans-61" x="125"/>
     <use xlink:href="#DejaVuSans-72" x="186.279297"/>
     <use xlink:href="#DejaVuSans-20" x="227.392578"/>
     <use xlink:href="#DejaVuSans-35" x="259.179688"/>
    </g>
   </g>
   <g id="line2d_43">
    <path d="M 436.105937 121.049062 
L 446.105937 121.049062 
L 456.105937 121.049062 
" style="fill: none; stroke: #8c564b; stroke-width: 1.5; stroke-linecap: square"/>
   </g>
   <g id="text_25">
    <!-- gear 6 -->
    <g transform="translate(464.105937 124.549062) scale(0.1 -0.1)">
     <use xlink:href="#DejaVuSans-67"/>
     <use xlink:href="#DejaVuSans-65" x="63.476562"/>
     <use xlink:href="#DejaVuSans-61" x="125"/>
     <use xlink:href="#DejaVuSans-72" x="186.279297"/>
     <use xlink:href="#DejaVuSans-20" x="227.392578"/>
     <use xlink:href="#DejaVuSans-36" x="259.179688"/>
    </g>
   </g>
   <g id="line2d_44">
    <path d="M 436.105937 135.727187 
L 446.105937 135.727187 
L 456.105937 135.727187 
" style="fill: none; stroke: #e377c2; stroke-width: 1.5; stroke-linecap: square"/>
   </g>
   <g id="text_26">
    <!-- auto shift -->
    <g transform="translate(464.105937 139.227187) scale(0.1 -0.1)">
     <use xlink:href="#DejaVuSans-61"/>
     <use xlink:href="#DejaVuSans-75" x="61.279297"/>
     <use xlink:href="#DejaVuSans-74" x="124.658203"/>
     <use xlink:href="#DejaVuSans-6f" x="163.867188"/>
     <use xlink:href="#DejaVuSans-20" x="225.048828"/>
     <use xlink:href="#DejaVuSans-73" x="256.835938"/>
     <use xlink:href="#DejaVuSans-68" x="308.935547"/>
     <use xlink:href="#DejaVuSans-69" x="372.314453"/>
     <use xlink:href="#DejaVuSans-66" x="400.097656"/>
     <use xlink:href="#DejaVuSans-74" x="433.552734"/>
    </g>
   </g>
   <g id="line2d_45">
    <path d="M 436.105937 150.405312 
L 446.105937 150.405312 
L 456.105937 150.405312 
" style="fill: none; stroke: #7f7f7f; stroke-width: 1.5; stroke-linecap: square"/>
   </g>
   <g id="text_27">
    <!-- auto shift 2 -->
    <g transform="translate(464.105937 153.905312) scale(0.1 -0.1)">
     <use xlink:href="#DejaVuSans-61"/>
     <use xlink:href="#DejaVuSans-75" x="61.279297"/>
     <use xlink:href="#DejaVuSans-74" x="124.658203"/>
     <use xlink:href="#DejaVuSans-6f" x="163.867188"/>
     <use xlink:href="#DejaVuSans-20" x="225.048828"/>
     <use xlink:href="#DejaVuSans-73" x="256.835938"/>
     <use xlink:href="#DejaVuSans-68" x="308.935547"/>
     <use xlink:href="#DejaVuSans-69" x="372.314453"/>
     <use xlink:href="#DejaVuSans-66" x="400.097656"/>
     <use xlink:href="#DejaVuSans-74" x="433.552734"/>
     <use xlink:href="#DejaVuSans-20" x="472.761719"/>
     <use xlink:href="#DejaVuSans-32" x="504.548828"/>
    </g>
   </g>
  </g>
 </g>
 <defs>
  <clipPath id="pf6090caa75">
   <rect x="57.6" y="41.472" width="357.12" height="120.96"/>
  </clipPath>
  <clipPath id="pd42426b994">
   <rect x="57.6" y="186.624" width="357.12" height="120.96"/>
  </clipPath>
 </defs>
</svg>
