<?xml version="1.0" encoding="utf-8" standalone="no"?>
<!DOCTYPE svg PUBLIC "-//W3C//DTD SVG 1.1//EN"
  "http://www.w3.org/Graphics/SVG/1.1/DTD/svg11.dtd">
<svg xmlns:xlink="http://www.w3.org/1999/xlink" width="460.8pt" height="345.6pt" viewBox="0 0 460.8 345.6" xmlns="http://www.w3.org/2000/svg" version="1.1">
 <metadata>
  <rdf:RDF xmlns:dc="http://purl.org/dc/elements/1.1/" xmlns:cc="http://creativecommons.org/ns#" xmlns:rdf="http://www.w3.org/1999/02/22-rdf-syntax-ns#">
   <cc:Work>
    <dc:type rdf:resource="http://purl.org/dc/dcmitype/StillImage"/>
    <dc:date>2023-08-31T10:13:47.826844</dc:date>
    <dc:format>image/svg+xml</dc:format>
    <dc:creator>
     <cc:Agent>
      <dc:title>Matplotlib v3.7.2, https://matplotlib.org/</dc:title>
     </cc:Agent>
    </dc:creator>
   </cc:Work>
  </rdf:RDF>
 </metadata>
 <defs>
  <style type="text/css">*{stroke-linejoin: round; stroke-linecap: butt}</style>
 </defs>
 <g id="figure_1">
  <g id="patch_1">
   <path d="M 0 345.6 
L 460.8 345.6 
L 460.8 0 
L 0 0 
z
" style="fill: #ffffff"/>
  </g>
  <g id="axes_1">
   <g id="patch_2">
    <path d="M 57.6 162.432 
L 414.72 162.432 
L 414.72 41.472 
L 57.6 41.472 
z
" style="fill: #ffffff"/>
   </g>
   <g id="matplotlib.axis_1">
    <g id="xtick_1">
     <g id="line2d_1">
      <defs>
       <path id="m2c95d9922d" d="M 0 0 
L 0 3.5 
" style="stroke: #000000; stroke-width: 0.8"/>
      </defs>
      <g>
       <use xlink:href="#m2c95d9922d" x="70.553388" y="162.432" style="stroke: #000000; stroke-width: 0.8"/>
      </g>
     </g>
    </g>
    <g id="xtick_2">
     <g id="line2d_2">
      <g>
       <use xlink:href="#m2c95d9922d" x="136.140165" y="162.432" style="stroke: #000000; stroke-width: 0.8"/>
      </g>
     </g>
    </g>
    <g id="xtick_3">
     <g id="line2d_3">
      <g>
       <use xlink:href="#m2c95d9922d" x="201.726942" y="162.432" style="stroke: #000000; stroke-width: 0.8"/>
      </g>
     </g>
    </g>
    <g id="xtick_4">
     <g id="line2d_4">
      <g>
       <use xlink:href="#m2c95d9922d" x="267.313719" y="162.432" style="stroke: #000000; stroke-width: 0.8"/>
      </g>
     </g>
    </g>
    <g id="xtick_5">
     <g id="line2d_5">
      <g>
       <use xlink:href="#m2c95d9922d" x="332.900496" y="162.432" style="stroke: #000000; stroke-width: 0.8"/>
      </g>
     </g>
    </g>
    <g id="xtick_6">
     <g id="line2d_6">
      <g>
       <use xlink:href="#m2c95d9922d" x="398.487273" y="162.432" style="stroke: #000000; stroke-width: 0.8"/>
      </g>
     </g>
    </g>
   </g>
   <g id="matplotlib.axis_2">
    <g id="ytick_1">
     <g id="line2d_7">
      <defs>
       <path id="m6161ac9046" d="M 0 0 
L -3.5 0 
" style="stroke: #000000; stroke-width: 0.8"/>
      </defs>
      <g>
       <use xlink:href="#m6161ac9046" x="57.6" y="156.933818" style="stroke: #000000; stroke-width: 0.8"/>
      </g>
     </g>
     <g id="text_1">
      <!-- 0 -->
      <g transform="translate(44.2375 160.733037) scale(0.1 -0.1)">
       <defs>
        <path id="DejaVuSans-30" d="M 2034 4250 
Q 1547 4250 1301 3770 
Q 1056 3291 1056 2328 
Q 1056 1369 1301 889 
Q 1547 409 2034 409 
Q 2525 409 2770 889 
Q 3016 1369 3016 2328 
Q 3016 3291 2770 3770 
Q 2525 4250 2034 4250 
z
M 2034 4750 
Q 2819 4750 3233 4129 
Q 3647 3509 3647 2328 
Q 3647 1150 3233 529 
Q 2819 -91 2034 -91 
Q 1250 -91 836 529 
Q 422 1150 422 2328 
Q 422 3509 836 4129 
Q 1250 4750 2034 4750 
z
" transform="scale(0.015625)"/>
       </defs>
       <use xlink:href="#DejaVuSans-30"/>
      </g>
     </g>
    </g>
    <g id="ytick_2">
     <g id="line2d_8">
      <g>
       <use xlink:href="#m6161ac9046" x="57.6" y="135.37375" style="stroke: #000000; stroke-width: 0.8"/>
      </g>
     </g>
     <g id="text_2">
      <!-- 25 -->
      <g transform="translate(37.875 139.172969) scale(0.1 -0.1)">
       <defs>
        <path id="DejaVuSans-32" d="M 1228 531 
L 3431 531 
L 3431 0 
L 469 0 
L 469 531 
Q 828 903 1448 1529 
Q 2069 2156 2228 2338 
Q 2531 2678 2651 2914 
Q 2772 3150 2772 3378 
Q 2772 3750 2511 3984 
Q 2250 4219 1831 4219 
Q 1534 4219 1204 4116 
Q 875 4013 500 3803 
L 500 4441 
Q 881 4594 1212 4672 
Q 1544 4750 1819 4750 
Q 2544 4750 2975 4387 
Q 3406 4025 3406 3419 
Q 3406 3131 3298 2873 
Q 3191 2616 2906 2266 
Q 2828 2175 2409 1742 
Q 1991 1309 1228 531 
z
" transform="scale(0.015625)"/>
        <path id="DejaVuSans-35" d="M 691 4666 
L 3169 4666 
L 3169 4134 
L 1269 4134 
L 1269 2991 
Q 1406 3038 1543 3061 
Q 1681 3084 1819 3084 
Q 2600 3084 3056 2656 
Q 3513 2228 3513 1497 
Q 3513 744 3044 326 
Q 2575 -91 1722 -91 
Q 1428 -91 1123 -41 
Q 819 9 494 109 
L 494 744 
Q 775 591 1075 516 
Q 1375 441 1709 441 
Q 2250 441 2565 725 
Q 2881 1009 2881 1497 
Q 2881 1984 2565 2268 
Q 2250 2553 1709 2553 
Q 1456 2553 1204 2497 
Q 953 2441 691 2322 
L 691 4666 
z
" transform="scale(0.015625)"/>
       </defs>
       <use xlink:href="#DejaVuSans-32"/>
       <use xlink:href="#DejaVuSans-35" x="63.623047"/>
      </g>
     </g>
    </g>
    <g id="ytick_3">
     <g id="line2d_9">
      <g>
       <use xlink:href="#m6161ac9046" x="57.6" y="113.813682" style="stroke: #000000; stroke-width: 0.8"/>
      </g>
     </g>
     <g id="text_3">
      <!-- 50 -->
      <g transform="translate(37.875 117.612901) scale(0.1 -0.1)">
       <use xlink:href="#DejaVuSans-35"/>
       <use xlink:href="#DejaVuSans-30" x="63.623047"/>
      </g>
     </g>
    </g>
    <g id="ytick_4">
     <g id="line2d_10">
      <g>
       <use xlink:href="#m6161ac9046" x="57.6" y="92.253614" style="stroke: #000000; stroke-width: 0.8"/>
      </g>
     </g>
     <g id="text_4">
      <!-- 75 -->
      <g transform="translate(37.875 96.052833) scale(0.1 -0.1)">
       <defs>
        <path id="DejaVuSans-37" d="M 525 4666 
L 3525 4666 
L 3525 4397 
L 1831 0 
L 1172 0 
L 2766 4134 
L 525 4134 
L 525 4666 
z
" transform="scale(0.015625)"/>
       </defs>
       <use xlink:href="#DejaVuSans-37"/>
       <use xlink:href="#DejaVuSans-35" x="63.623047"/>
      </g>
     </g>
    </g>
    <g id="ytick_5">
     <g id="line2d_11">
      <g>
       <use xlink:href="#m6161ac9046" x="57.6" y="70.693546" style="stroke: #000000; stroke-width: 0.8"/>
      </g>
     </g>
     <g id="text_5">
      <!-- 100 -->
      <g transform="translate(31.5125 74.492765) scale(0.1 -0.1)">
       <defs>
        <path id="DejaVuSans-31" d="M 794 531 
L 1825 531 
L 1825 4091 
L 703 3866 
L 703 4441 
L 1819 4666 
L 2450 4666 
L 2450 531 
L 3481 531 
L 3481 0 
L 794 0 
L 794 531 
z
" transform="scale(0.015625)"/>
       </defs>
       <use xlink:href="#DejaVuSans-31"/>
       <use xlink:href="#DejaVuSans-30" x="63.623047"/>
       <use xlink:href="#DejaVuSans-30" x="127.246094"/>
      </g>
     </g>
    </g>
    <g id="ytick_6">
     <g id="line2d_12">
      <g>
       <use xlink:href="#m6161ac9046" x="57.6" y="49.133478" style="stroke: #000000; stroke-width: 0.8"/>
      </g>
     </g>
     <g id="text_6">
      <!-- 125 -->
      <g transform="translate(31.5125 52.932697) scale(0.1 -0.1)">
       <use xlink:href="#DejaVuSans-31"/>
       <use xlink:href="#DejaVuSans-32" x="63.623047"/>
       <use xlink:href="#DejaVuSans-35" x="127.246094"/>
      </g>
     </g>
    </g>
    <g id="text_7">
     <!-- Speed (km/h) -->
     <g transform="translate(25.432812 135.737156) rotate(-90) scale(0.1 -0.1)">
      <defs>
       <path id="DejaVuSans-53" d="M 3425 4513 
L 3425 3897 
Q 3066 4069 2747 4153 
Q 2428 4238 2131 4238 
Q 1616 4238 1336 4038 
Q 1056 3838 1056 3469 
Q 1056 3159 1242 3001 
Q 1428 2844 1947 2747 
L 2328 2669 
Q 3034 2534 3370 2195 
Q 3706 1856 3706 1288 
Q 3706 609 3251 259 
Q 2797 -91 1919 -91 
Q 1588 -91 1214 -16 
Q 841 59 441 206 
L 441 856 
Q 825 641 1194 531 
Q 1563 422 1919 422 
Q 2459 422 2753 634 
Q 3047 847 3047 1241 
Q 3047 1584 2836 1778 
Q 2625 1972 2144 2069 
L 1759 2144 
Q 1053 2284 737 2584 
Q 422 2884 422 3419 
Q 422 4038 858 4394 
Q 1294 4750 2059 4750 
Q 2388 4750 2728 4690 
Q 3069 4631 3425 4513 
z
" transform="scale(0.015625)"/>
       <path id="DejaVuSans-70" d="M 1159 525 
L 1159 -1331 
L 581 -1331 
L 581 3500 
L 1159 3500 
L 1159 2969 
Q 1341 3281 1617 3432 
Q 1894 3584 2278 3584 
Q 2916 3584 3314 3078 
Q 3713 2572 3713 1747 
Q 3713 922 3314 415 
Q 2916 -91 2278 -91 
Q 1894 -91 1617 61 
Q 1341 213 1159 525 
z
M 3116 1747 
Q 3116 2381 2855 2742 
Q 2594 3103 2138 3103 
Q 1681 3103 1420 2742 
Q 1159 2381 1159 1747 
Q 1159 1113 1420 752 
Q 1681 391 2138 391 
Q 2594 391 2855 752 
Q 3116 1113 3116 1747 
z
" transform="scale(0.015625)"/>
       <path id="DejaVuSans-65" d="M 3597 1894 
L 3597 1613 
L 953 1613 
Q 991 1019 1311 708 
Q 1631 397 2203 397 
Q 2534 397 2845 478 
Q 3156 559 3463 722 
L 3463 178 
Q 3153 47 2828 -22 
Q 2503 -91 2169 -91 
Q 1331 -91 842 396 
Q 353 884 353 1716 
Q 353 2575 817 3079 
Q 1281 3584 2069 3584 
Q 2775 3584 3186 3129 
Q 3597 2675 3597 1894 
z
M 3022 2063 
Q 3016 2534 2758 2815 
Q 2500 3097 2075 3097 
Q 1594 3097 1305 2825 
Q 1016 2553 972 2059 
L 3022 2063 
z
" transform="scale(0.015625)"/>
       <path id="DejaVuSans-64" d="M 2906 2969 
L 2906 4863 
L 3481 4863 
L 3481 0 
L 2906 0 
L 2906 525 
Q 2725 213 2448 61 
Q 2172 -91 1784 -91 
Q 1150 -91 751 415 
Q 353 922 353 1747 
Q 353 2572 751 3078 
Q 1150 3584 1784 3584 
Q 2172 3584 2448 3432 
Q 2725 3281 2906 2969 
z
M 947 1747 
Q 947 1113 1208 752 
Q 1469 391 1925 391 
Q 2381 391 2643 752 
Q 2906 1113 2906 1747 
Q 2906 2381 2643 2742 
Q 2381 3103 1925 3103 
Q 1469 3103 1208 2742 
Q 947 2381 947 1747 
z
" transform="scale(0.015625)"/>
       <path id="DejaVuSans-20" transform="scale(0.015625)"/>
       <path id="DejaVuSans-28" d="M 1984 4856 
Q 1566 4138 1362 3434 
Q 1159 2731 1159 2009 
Q 1159 1288 1364 580 
Q 1569 -128 1984 -844 
L 1484 -844 
Q 1016 -109 783 600 
Q 550 1309 550 2009 
Q 550 2706 781 3412 
Q 1013 4119 1484 4856 
L 1984 4856 
z
" transform="scale(0.015625)"/>
       <path id="DejaVuSans-6b" d="M 581 4863 
L 1159 4863 
L 1159 1991 
L 2875 3500 
L 3609 3500 
L 1753 1863 
L 3688 0 
L 2938 0 
L 1159 1709 
L 1159 0 
L 581 0 
L 581 4863 
z
" transform="scale(0.015625)"/>
       <path id="DejaVuSans-6d" d="M 3328 2828 
Q 3544 3216 3844 3400 
Q 4144 3584 4550 3584 
Q 5097 3584 5394 3201 
Q 5691 2819 5691 2113 
L 5691 0 
L 5113 0 
L 5113 2094 
Q 5113 2597 4934 2840 
Q 4756 3084 4391 3084 
Q 3944 3084 3684 2787 
Q 3425 2491 3425 1978 
L 3425 0 
L 2847 0 
L 2847 2094 
Q 2847 2600 2669 2842 
Q 2491 3084 2119 3084 
Q 1678 3084 1418 2786 
Q 1159 2488 1159 1978 
L 1159 0 
L 581 0 
L 581 3500 
L 1159 3500 
L 1159 2956 
Q 1356 3278 1631 3431 
Q 1906 3584 2284 3584 
Q 2666 3584 2933 3390 
Q 3200 3197 3328 2828 
z
" transform="scale(0.015625)"/>
       <path id="DejaVuSans-2f" d="M 1625 4666 
L 2156 4666 
L 531 -594 
L 0 -594 
L 1625 4666 
z
" transform="scale(0.015625)"/>
       <path id="DejaVuSans-68" d="M 3513 2113 
L 3513 0 
L 2938 0 
L 2938 2094 
Q 2938 2591 2744 2837 
Q 2550 3084 2163 3084 
Q 1697 3084 1428 2787 
Q 1159 2491 1159 1978 
L 1159 0 
L 581 0 
L 581 4863 
L 1159 4863 
L 1159 2956 
Q 1366 3272 1645 3428 
Q 1925 3584 2291 3584 
Q 2894 3584 3203 3211 
Q 3513 2838 3513 2113 
z
" transform="scale(0.015625)"/>
       <path id="DejaVuSans-29" d="M 513 4856 
L 1013 4856 
Q 1481 4119 1714 3412 
Q 1947 2706 1947 2009 
Q 1947 1309 1714 600 
Q 1481 -109 1013 -844 
L 513 -844 
Q 928 -128 1133 580 
Q 1338 1288 1338 2009 
Q 1338 2731 1133 3434 
Q 928 4138 513 4856 
z
" transform="scale(0.015625)"/>
      </defs>
      <use xlink:href="#DejaVuSans-53"/>
      <use xlink:href="#DejaVuSans-70" x="63.476562"/>
      <use xlink:href="#DejaVuSans-65" x="126.953125"/>
      <use xlink:href="#DejaVuSans-65" x="188.476562"/>
      <use xlink:href="#DejaVuSans-64" x="250"/>
      <use xlink:href="#DejaVuSans-20" x="313.476562"/>
      <use xlink:href="#DejaVuSans-28" x="345.263672"/>
      <use xlink:href="#DejaVuSans-6b" x="384.277344"/>
      <use xlink:href="#DejaVuSans-6d" x="442.1875"/>
      <use xlink:href="#DejaVuSans-2f" x="539.599609"/>
      <use xlink:href="#DejaVuSans-68" x="573.291016"/>
      <use xlink:href="#DejaVuSans-29" x="636.669922"/>
     </g>
    </g>
   </g>
   <g id="line2d_13">
    <path d="M 73.832727 156.933818 
L 77.112066 155.14554 
L 80.391405 154.024761 
L 83.670744 152.903983 
L 86.950083 151.783204 
L 90.229421 150.612908 
L 93.50876 149.371297 
L 96.788099 148.057443 
L 100.067438 146.669881 
L 103.346777 145.207718 
L 106.626116 143.671102 
L 109.905455 142.060749 
L 113.184793 140.377588 
L 116.464132 138.623604 
L 119.743471 136.80111 
L 123.02281 134.913776 
L 126.302149 132.965626 
L 129.581488 130.961884 
L 132.860826 128.908135 
L 136.140165 126.810815 
L 139.419504 124.677091 
L 142.698843 122.514738 
L 145.978182 120.332008 
L 149.257521 118.13747 
L 152.53686 115.939997 
L 155.816198 113.748526 
L 159.095537 111.571995 
L 162.374876 109.419117 
L 165.654215 107.298247 
L 168.933554 105.217428 
L 172.212893 103.183962 
L 175.492231 101.2044 
L 178.77157 99.284702 
L 182.050909 97.430252 
L 185.330248 95.645195 
L 188.609587 93.932954 
L 191.888926 92.295863 
L 195.168264 90.735936 
L 198.447603 89.254549 
L 201.726942 87.851528 
L 205.006281 86.526473 
L 208.28562 85.278374 
L 211.564959 84.105643 
L 214.844298 83.006705 
L 218.123636 81.978955 
L 221.402975 81.019898 
L 224.682314 80.126642 
L 227.961653 79.296545 
L 231.240992 78.526024 
L 234.520331 77.812469 
L 237.799669 77.152386 
L 241.079008 76.54204 
L 244.358347 75.978828 
L 247.637686 75.460002 
L 250.917025 74.982674 
L 254.196364 74.543129 
L 257.475702 74.139644 
L 260.755041 73.768998 
L 264.03438 73.429318 
L 267.313719 73.117949 
L 270.593058 72.832904 
L 273.872397 72.571409 
L 277.151736 72.332126 
L 280.431074 72.113686 
L 283.710413 71.91395 
L 286.989752 71.7315 
L 290.269091 71.564896 
L 293.54843 71.412685 
L 296.827769 71.273393 
L 300.107107 71.146298 
L 303.386446 71.03067 
L 306.665785 70.925006 
L 309.945124 70.828561 
L 313.224463 70.740583 
L 316.503802 70.661091 
L 319.78314 70.588554 
L 323.062479 70.522209 
L 326.341818 70.462065 
L 329.621157 70.407354 
L 332.900496 70.357306 
L 336.179835 70.311925 
L 339.459174 70.270438 
L 342.738512 70.232847 
L 346.017851 70.198377 
L 349.29719 70.167029 
L 352.576529 70.138024 
L 355.855868 70.112146 
L 359.135207 70.088614 
L 362.414545 70.066647 
L 365.693884 70.047028 
L 368.973223 70.028976 
L 372.252562 70.01249 
L 375.531901 69.997572 
L 378.81124 69.984221 
L 382.090579 69.971655 
L 385.369917 69.960658 
L 388.649256 69.950445 
L 391.928595 69.941017 
L 395.207934 69.932374 
L 398.487273 69.924516 
" clip-path="url(#p6ebe5e71a6)" style="fill: none; stroke: #1f77b4; stroke-width: 1.5; stroke-linecap: square"/>
   </g>
   <g id="line2d_14">
    <path d="M 73.832727 156.933818 
L 77.112066 155.592609 
L 80.391405 154.752026 
L 83.670744 153.911442 
L 86.950083 153.070858 
L 90.229421 152.230274 
L 93.50876 151.38969 
L 96.788099 150.549106 
L 100.067438 149.688008 
L 103.346777 148.797034 
L 106.626116 147.875585 
L 109.905455 146.923522 
L 113.184793 145.940378 
L 116.464132 144.925765 
L 119.743471 143.879733 
L 123.02281 142.802039 
L 126.302149 141.692526 
L 129.581488 140.551125 
L 132.860826 139.378174 
L 136.140165 138.17377 
L 139.419504 136.938103 
L 142.698843 135.671747 
L 145.978182 134.37507 
L 149.257521 133.048544 
L 152.53686 131.692996 
L 155.816198 130.309088 
L 159.095537 128.897818 
L 162.374876 127.460048 
L 165.654215 125.997151 
L 168.933554 124.51017 
L 172.212893 123.00044 
L 175.492231 121.469374 
L 178.77157 119.918469 
L 182.050909 118.349307 
L 185.330248 116.763668 
L 188.609587 115.163275 
L 191.888926 113.550108 
L 195.168264 111.926006 
L 198.447603 110.292952 
L 201.726942 108.652973 
L 205.006281 107.008168 
L 208.28562 105.360624 
L 211.564959 103.712468 
L 214.844298 102.06583 
L 218.123636 100.422805 
L 221.402975 98.785539 
L 224.682314 97.156098 
L 227.961653 95.536503 
L 231.240992 93.928822 
L 234.520331 92.334911 
L 237.799669 90.756657 
L 241.079008 89.195907 
L 244.358347 87.654462 
L 247.637686 86.133918 
L 250.917025 84.635608 
L 254.196364 83.161315 
L 257.475702 81.712004 
L 260.755041 80.289131 
L 264.03438 78.893884 
L 267.313719 77.527128 
L 270.593058 76.18987 
L 273.872397 74.882775 
L 277.151736 73.606398 
L 280.431074 72.361479 
L 283.710413 71.148688 
L 286.989752 69.968 
L 290.269091 68.819906 
L 293.54843 67.704497 
L 296.827769 66.621772 
L 300.107107 65.571636 
L 303.386446 64.553908 
L 306.665785 63.568693 
L 309.945124 62.615661 
L 313.224463 61.694397 
L 316.503802 60.804411 
L 319.78314 59.945544 
L 323.062479 59.117175 
L 326.341818 58.31861 
L 329.621157 57.54952 
L 332.900496 56.809092 
L 336.179835 56.096899 
L 339.459174 55.412018 
L 342.738512 54.753928 
L 346.017851 54.122069 
L 349.29719 53.515378 
L 352.576529 52.933688 
L 355.855868 52.375855 
L 359.135207 51.841174 
L 362.414545 51.328907 
L 365.693884 50.83829 
L 368.973223 50.368529 
L 372.252562 49.919307 
L 375.531901 49.489279 
L 378.81124 49.078087 
L 382.090579 48.685361 
L 385.369917 48.3102 
L 388.649256 47.951683 
L 391.928595 47.609392 
L 395.207934 47.282372 
L 398.487273 46.970182 
" clip-path="url(#p6ebe5e71a6)" style="fill: none; stroke: #ff7f0e; stroke-width: 1.5; stroke-linecap: square"/>
   </g>
   <g id="line2d_15">
    <path d="M 73.832727 156.933818 
L 77.112066 155.848078 
L 80.391405 155.167605 
L 83.670744 154.487132 
L 86.950083 153.80666 
L 90.229421 153.126187 
L 93.50876 152.445714 
L 96.788099 151.765242 
L 100.067438 151.084769 
L 103.346777 150.404296 
L 106.626116 149.723823 
L 109.905455 149.042348 
L 113.184793 148.345269 
L 116.464132 147.632123 
L 119.743471 146.903114 
L 123.02281 146.157814 
L 126.302149 145.396132 
L 129.581488 144.617991 
L 132.860826 143.823023 
L 136.140165 143.011486 
L 139.419504 142.183052 
L 142.698843 141.337998 
L 145.978182 140.476032 
L 149.257521 139.597174 
L 152.53686 138.701183 
L 155.816198 137.788388 
L 159.095537 136.858592 
L 162.374876 135.911887 
L 165.654215 134.948382 
L 168.933554 133.968203 
L 172.212893 132.971495 
L 175.492231 131.958182 
L 178.77157 130.928685 
L 182.050909 129.882978 
L 185.330248 128.821287 
L 188.609587 127.743858 
L 191.888926 126.650957 
L 195.168264 125.542867 
L 198.447603 124.419702 
L 201.726942 123.281982 
L 205.006281 122.130049 
L 208.28562 120.964269 
L 211.564959 119.784861 
L 214.844298 118.5924 
L 218.123636 117.387313 
L 221.402975 116.170047 
L 224.682314 114.94107 
L 227.961653 113.700874 
L 231.240992 112.450089 
L 234.520331 111.189236 
L 237.799669 109.918858 
L 241.079008 108.639519 
L 244.358347 107.351895 
L 247.637686 106.056583 
L 250.917025 104.754274 
L 254.196364 103.445594 
L 257.475702 102.131251 
L 260.755041 100.811903 
L 264.03438 99.488271 
L 267.313719 98.16108 
L 270.593058 96.831026 
L 273.872397 95.498867 
L 277.151736 94.165316 
L 280.431074 92.83111 
L 283.710413 91.49699 
L 286.989752 90.163694 
L 290.269091 88.831961 
L 293.54843 87.502532 
L 296.827769 86.176143 
L 300.107107 84.853491 
L 303.386446 83.535298 
L 306.665785 82.222288 
L 309.945124 80.915184 
L 313.224463 79.614633 
L 316.503802 78.321342 
L 319.78314 77.035929 
L 323.062479 75.758986 
L 326.341818 74.49119 
L 329.621157 73.233218 
L 332.900496 71.985503 
L 336.179835 70.748693 
L 339.459174 69.523433 
L 342.738512 68.310084 
L 346.017851 67.109262 
L 349.29719 65.921268 
L 352.576529 64.746691 
L 355.855868 63.585949 
L 359.135207 62.439435 
L 362.414545 61.307524 
L 365.693884 60.190572 
L 368.973223 59.088911 
L 372.252562 58.002855 
L 375.531901 56.932487 
L 378.81124 55.878287 
L 382.090579 54.840285 
L 385.369917 53.818936 
L 388.649256 52.814223 
L 391.928595 51.82633 
L 395.207934 50.85543 
L 398.487273 49.901672 
" clip-path="url(#p6ebe5e71a6)" style="fill: none; stroke: #2ca02c; stroke-width: 1.5; stroke-linecap: square"/>
   </g>
   <g id="line2d_16">
    <path d="M 73.832727 156.933818 
L 77.112066 156.103546 
L 80.391405 155.583185 
L 83.670744 155.062823 
L 86.950083 154.542462 
L 90.229421 154.0221 
L 93.50876 153.501739 
L 96.788099 152.981377 
L 100.067438 152.461016 
L 103.346777 151.940654 
L 106.626116 151.420293 
L 109.905455 150.899931 
L 113.184793 150.37957 
L 116.464132 149.859208 
L 119.743471 149.338847 
L 123.02281 148.818485 
L 126.302149 148.298124 
L 129.581488 147.777762 
L 132.860826 147.257401 
L 136.140165 146.732958 
L 139.419504 146.201413 
L 142.698843 145.662816 
L 145.978182 145.116971 
L 149.257521 144.563931 
L 152.53686 144.003753 
L 155.816198 143.436247 
L 159.095537 142.861231 
L 162.374876 142.279008 
L 165.654215 141.689398 
L 168.933554 141.09223 
L 172.212893 140.487569 
L 175.492231 139.875484 
L 178.77157 139.256041 
L 182.050909 138.629081 
L 185.330248 137.994449 
L 188.609587 137.352221 
L 191.888926 136.702474 
L 195.168264 136.045064 
L 198.447603 135.380071 
L 201.726942 134.707577 
L 205.006281 134.027449 
L 208.28562 133.339773 
L 211.564959 132.644427 
L 214.844298 131.941501 
L 218.123636 131.231083 
L 221.402975 130.513066 
L 224.682314 129.787346 
L 227.961653 129.054217 
L 231.240992 128.313583 
L 234.520331 127.565353 
L 237.799669 126.809632 
L 241.079008 126.046526 
L 244.358347 125.275957 
L 247.637686 124.498036 
L 250.917025 123.712873 
L 254.196364 122.920404 
L 257.475702 122.120745 
L 260.755041 121.313845 
L 264.03438 120.499823 
L 267.313719 119.678802 
L 270.593058 118.850743 
L 273.872397 118.015772 
L 277.151736 117.173864 
L 280.431074 116.325151 
L 283.710413 115.469764 
L 286.989752 114.607694 
L 290.269091 113.739077 
L 293.54843 112.864052 
L 296.827769 111.982623 
L 300.107107 111.094935 
L 303.386446 110.20113 
L 306.665785 109.301229 
L 309.945124 108.395503 
L 313.224463 107.48386 
L 316.503802 106.566572 
L 319.78314 105.643676 
L 323.062479 104.71533 
L 326.341818 103.781583 
L 329.621157 102.8426 
L 332.900496 101.898544 
L 336.179835 100.949578 
L 339.459174 99.995772 
L 342.738512 99.037296 
L 346.017851 98.07432 
L 349.29719 97.107014 
L 352.576529 96.135468 
L 355.855868 95.159936 
L 359.135207 94.180513 
L 362.414545 93.197308 
L 365.693884 92.21057 
L 368.973223 91.220413 
L 372.252562 90.227079 
L 375.531901 89.23069 
L 378.81124 88.231376 
L 382.090579 87.229377 
L 385.369917 86.224877 
L 388.649256 85.218017 
L 391.928595 84.209026 
L 395.207934 83.198053 
L 398.487273 82.185288 
" clip-path="url(#p6ebe5e71a6)" style="fill: none; stroke: #d62728; stroke-width: 1.5; stroke-linecap: square"/>
   </g>
   <g id="line2d_17">
    <path d="M 73.832727 156.933818 
L 77.112066 156.295147 
L 80.391405 155.894869 
L 83.670744 155.494591 
L 86.950083 155.094313 
L 90.229421 154.694035 
L 93.50876 154.293757 
L 96.788099 153.893479 
L 100.067438 153.493201 
L 103.346777 153.092923 
L 106.626116 152.692645 
L 109.905455 152.292367 
L 113.184793 151.892089 
L 116.464132 151.491811 
L 119.743471 151.091533 
L 123.02281 150.691254 
L 126.302149 150.290976 
L 129.581488 149.890698 
L 132.860826 149.49042 
L 136.140165 149.090142 
L 139.419504 148.689864 
L 142.698843 148.289586 
L 145.978182 147.889308 
L 149.257521 147.48903 
L 152.53686 147.088752 
L 155.816198 146.688474 
L 159.095537 146.288196 
L 162.374876 145.887918 
L 165.654215 145.48764 
L 168.933554 145.087362 
L 172.212893 144.687084 
L 175.492231 144.286412 
L 178.77157 143.882407 
L 182.050909 143.475278 
L 185.330248 143.064843 
L 188.609587 142.651118 
L 191.888926 142.234115 
L 195.168264 141.813851 
L 198.447603 141.39034 
L 201.726942 140.963596 
L 205.006281 140.533444 
L 208.28562 140.099902 
L 211.564959 139.663171 
L 214.844298 139.223082 
L 218.123636 138.77965 
L 221.402975 138.332707 
L 224.682314 137.882454 
L 227.961653 137.428908 
L 231.240992 136.971903 
L 234.520331 136.511459 
L 237.799669 136.047592 
L 241.079008 135.580321 
L 244.358347 135.109664 
L 247.637686 134.635639 
L 250.917025 134.158265 
L 254.196364 133.677384 
L 257.475702 133.193017 
L 260.755041 132.705184 
L 264.03438 132.213905 
L 267.313719 131.719201 
L 270.593058 131.22109 
L 273.872397 130.719594 
L 277.151736 130.214565 
L 280.431074 129.706024 
L 283.710413 129.193994 
L 286.989752 128.678498 
L 290.269091 128.159557 
L 293.54843 127.637193 
L 296.827769 127.111429 
L 300.107107 126.582127 
L 303.386446 126.049311 
L 306.665785 125.513004 
L 309.945124 124.973233 
L 313.224463 124.43002 
L 316.503802 123.88339 
L 319.78314 123.333368 
L 323.062479 122.779826 
L 326.341818 122.222789 
L 329.621157 121.662284 
L 332.900496 121.098339 
L 336.179835 120.53098 
L 339.459174 119.960232 
L 342.738512 119.386124 
L 346.017851 118.808537 
L 349.29719 118.2275 
L 352.576529 117.643183 
L 355.855868 117.055474 
L 359.135207 116.4644 
L 362.414545 115.869852 
L 365.693884 115.272 
L 368.973223 114.670735 
L 372.252562 114.066224 
L 375.531901 113.458362 
L 378.81124 112.847182 
L 382.090579 112.232713 
L 385.369917 111.614989 
L 388.649256 110.993911 
L 391.928595 110.369641 
L 395.207934 109.742084 
L 398.487273 109.1114 
" clip-path="url(#p6ebe5e71a6)" style="fill: none; stroke: #9467bd; stroke-width: 1.5; stroke-linecap: square"/>
   </g>
   <g id="line2d_18">
    <path d="M 73.832727 156.933818 
L 77.112066 156.295147 
L 80.391405 155.894869 
L 83.670744 155.494591 
L 86.950083 155.094313 
L 90.229421 154.694035 
L 93.50876 154.293757 
L 96.788099 153.893479 
L 100.067438 153.493201 
L 103.346777 153.092923 
L 106.626116 152.692645 
L 109.905455 152.292367 
L 113.184793 151.892089 
L 116.464132 151.491811 
L 119.743471 151.091533 
L 123.02281 150.691254 
L 126.302149 150.290976 
L 129.581488 149.890698 
L 132.860826 149.49042 
L 136.140165 149.090142 
L 139.419504 148.689864 
L 142.698843 148.289586 
L 145.978182 147.889308 
L 149.257521 147.48903 
L 152.53686 147.088752 
L 155.816198 146.688474 
L 159.095537 146.288196 
L 162.374876 145.887918 
L 165.654215 145.48764 
L 168.933554 145.087362 
L 172.212893 144.687084 
L 175.492231 144.286412 
L 178.77157 143.882407 
L 182.050909 143.475278 
L 185.330248 143.064843 
L 188.609587 142.651118 
L 191.888926 142.234115 
L 195.168264 141.813851 
L 198.447603 141.39034 
L 201.726942 140.963596 
L 205.006281 140.533444 
L 208.28562 140.099902 
L 211.564959 139.663171 
L 214.844298 139.223082 
L 218.123636 138.77965 
L 221.402975 138.332707 
L 224.682314 137.882454 
L 227.961653 137.428908 
L 231.240992 136.971903 
L 234.520331 136.511459 
L 237.799669 136.047592 
L 241.079008 135.580321 
L 244.358347 135.109664 
L 247.637686 134.635639 
L 250.917025 134.158265 
L 254.196364 133.677384 
L 257.475702 133.193017 
L 260.755041 132.705184 
L 264.03438 132.213905 
L 267.313719 131.719201 
L 270.593058 131.22109 
L 273.872397 130.719594 
L 277.151736 130.214565 
L 280.431074 129.706024 
L 283.710413 129.193994 
L 286.989752 128.678498 
L 290.269091 128.159557 
L 293.54843 127.637193 
L 296.827769 127.111429 
L 300.107107 126.582127 
L 303.386446 126.049311 
L 306.665785 125.513004 
L 309.945124 124.973233 
L 313.224463 124.43002 
L 316.503802 123.88339 
L 319.78314 123.333368 
L 323.062479 122.779826 
L 326.341818 122.222789 
L 329.621157 121.662284 
L 332.900496 121.098339 
L 336.179835 120.53098 
L 339.459174 119.960232 
L 342.738512 119.386124 
L 346.017851 118.808537 
L 349.29719 118.2275 
L 352.576529 117.643183 
L 355.855868 117.055474 
L 359.135207 116.4644 
L 362.414545 115.869852 
L 365.693884 115.272 
L 368.973223 114.670735 
L 372.252562 114.066224 
L 375.531901 113.458362 
L 378.81124 112.847182 
L 382.090579 112.232713 
L 385.369917 111.614989 
L 388.649256 110.993911 
L 391.928595 110.369641 
L 395.207934 109.742084 
L 398.487273 109.1114 
" clip-path="url(#p6ebe5e71a6)" style="fill: none; stroke: #8c564b; stroke-width: 1.5; stroke-linecap: square"/>
   </g>
   <g id="patch_3">
    <path d="M 57.6 162.432 
L 57.6 41.472 
" style="fill: none; stroke: #000000; stroke-width: 0.8; stroke-linejoin: miter; stroke-linecap: square"/>
   </g>
   <g id="patch_4">
    <path d="M 414.72 162.432 
L 414.72 41.472 
" style="fill: none; stroke: #000000; stroke-width: 0.8; stroke-linejoin: miter; stroke-linecap: square"/>
   </g>
   <g id="patch_5">
    <path d="M 57.6 162.432 
L 414.72 162.432 
" style="fill: none; stroke: #000000; stroke-width: 0.8; stroke-linejoin: miter; stroke-linecap: square"/>
   </g>
   <g id="patch_6">
    <path d="M 57.6 41.472 
L 414.72 41.472 
" style="fill: none; stroke: #000000; stroke-width: 0.8; stroke-linejoin: miter; stroke-linecap: square"/>
   </g>
  </g>
  <g id="axes_2">
   <g id="patch_7">
    <path d="M 57.6 307.584 
L 414.72 307.584 
L 414.72 186.624 
L 57.6 186.624 
z
" style="fill: #ffffff"/>
   </g>
   <g id="matplotlib.axis_3">
    <g id="xtick_7">
     <g id="line2d_19">
      <g>
       <use xlink:href="#m2c95d9922d" x="70.553388" y="307.584" style="stroke: #000000; stroke-width: 0.8"/>
      </g>
     </g>
     <g id="text_8">
      <!-- 0 -->
      <g transform="translate(67.372138 322.182437) scale(0.1 -0.1)">
       <use xlink:href="#DejaVuSans-30"/>
      </g>
     </g>
    </g>
    <g id="xtick_8">
     <g id="line2d_20">
      <g>
       <use xlink:href="#m2c95d9922d" x="136.140165" y="307.584" style="stroke: #000000; stroke-width: 0.8"/>
      </g>
     </g>
     <g id="text_9">
      <!-- 2 -->
      <g transform="translate(132.958915 322.182437) scale(0.1 -0.1)">
       <use xlink:href="#DejaVuSans-32"/>
      </g>
     </g>
    </g>
    <g id="xtick_9">
     <g id="line2d_21">
      <g>
       <use xlink:href="#m2c95d9922d" x="201.726942" y="307.584" style="stroke: #000000; stroke-width: 0.8"/>
      </g>
     </g>
     <g id="text_10">
      <!-- 4 -->
      <g transform="translate(198.545692 322.182437) scale(0.1 -0.1)">
       <defs>
        <path id="DejaVuSans-34" d="M 2419 4116 
L 825 1625 
L 2419 1625 
L 2419 4116 
z
M 2253 4666 
L 3047 4666 
L 3047 1625 
L 3713 1625 
L 3713 1100 
L 3047 1100 
L 3047 0 
L 2419 0 
L 2419 1100 
L 313 1100 
L 313 1709 
L 2253 4666 
z
" transform="scale(0.015625)"/>
       </defs>
       <use xlink:href="#DejaVuSans-34"/>
      </g>
     </g>
    </g>
    <g id="xtick_10">
     <g id="line2d_22">
      <g>
       <use xlink:href="#m2c95d9922d" x="267.313719" y="307.584" style="stroke: #000000; stroke-width: 0.8"/>
      </g>
     </g>
     <g id="text_11">
      <!-- 6 -->
      <g transform="translate(264.132469 322.182437) scale(0.1 -0.1)">
       <defs>
        <path id="DejaVuSans-36" d="M 2113 2584 
Q 1688 2584 1439 2293 
Q 1191 2003 1191 1497 
Q 1191 994 1439 701 
Q 1688 409 2113 409 
Q 2538 409 2786 701 
Q 3034 994 3034 1497 
Q 3034 2003 2786 2293 
Q 2538 2584 2113 2584 
z
M 3366 4563 
L 3366 3988 
Q 3128 4100 2886 4159 
Q 2644 4219 2406 4219 
Q 1781 4219 1451 3797 
Q 1122 3375 1075 2522 
Q 1259 2794 1537 2939 
Q 1816 3084 2150 3084 
Q 2853 3084 3261 2657 
Q 3669 2231 3669 1497 
Q 3669 778 3244 343 
Q 2819 -91 2113 -91 
Q 1303 -91 875 529 
Q 447 1150 447 2328 
Q 447 3434 972 4092 
Q 1497 4750 2381 4750 
Q 2619 4750 2861 4703 
Q 3103 4656 3366 4563 
z
" transform="scale(0.015625)"/>
       </defs>
       <use xlink:href="#DejaVuSans-36"/>
      </g>
     </g>
    </g>
    <g id="xtick_11">
     <g id="line2d_23">
      <g>
       <use xlink:href="#m2c95d9922d" x="332.900496" y="307.584" style="stroke: #000000; stroke-width: 0.8"/>
      </g>
     </g>
     <g id="text_12">
      <!-- 8 -->
      <g transform="translate(329.719246 322.182437) scale(0.1 -0.1)">
       <defs>
        <path id="DejaVuSans-38" d="M 2034 2216 
Q 1584 2216 1326 1975 
Q 1069 1734 1069 1313 
Q 1069 891 1326 650 
Q 1584 409 2034 409 
Q 2484 409 2743 651 
Q 3003 894 3003 1313 
Q 3003 1734 2745 1975 
Q 2488 2216 2034 2216 
z
M 1403 2484 
Q 997 2584 770 2862 
Q 544 3141 544 3541 
Q 544 4100 942 4425 
Q 1341 4750 2034 4750 
Q 2731 4750 3128 4425 
Q 3525 4100 3525 3541 
Q 3525 3141 3298 2862 
Q 3072 2584 2669 2484 
Q 3125 2378 3379 2068 
Q 3634 1759 3634 1313 
Q 3634 634 3220 271 
Q 2806 -91 2034 -91 
Q 1263 -91 848 271 
Q 434 634 434 1313 
Q 434 1759 690 2068 
Q 947 2378 1403 2484 
z
M 1172 3481 
Q 1172 3119 1398 2916 
Q 1625 2713 2034 2713 
Q 2441 2713 2670 2916 
Q 2900 3119 2900 3481 
Q 2900 3844 2670 4047 
Q 2441 4250 2034 4250 
Q 1625 4250 1398 4047 
Q 1172 3844 1172 3481 
z
" transform="scale(0.015625)"/>
       </defs>
       <use xlink:href="#DejaVuSans-38"/>
      </g>
     </g>
    </g>
    <g id="xtick_12">
     <g id="line2d_24">
      <g>
       <use xlink:href="#m2c95d9922d" x="398.487273" y="307.584" style="stroke: #000000; stroke-width: 0.8"/>
      </g>
     </g>
     <g id="text_13">
      <!-- 10 -->
      <g transform="translate(392.124773 322.182437) scale(0.1 -0.1)">
       <use xlink:href="#DejaVuSans-31"/>
       <use xlink:href="#DejaVuSans-30" x="63.623047"/>
      </g>
     </g>
    </g>
    <g id="text_14">
     <!-- Time (s) -->
     <g transform="translate(215.831094 335.860562) scale(0.1 -0.1)">
      <defs>
       <path id="DejaVuSans-54" d="M -19 4666 
L 3928 4666 
L 3928 4134 
L 2272 4134 
L 2272 0 
L 1638 0 
L 1638 4134 
L -19 4134 
L -19 4666 
z
" transform="scale(0.015625)"/>
       <path id="DejaVuSans-69" d="M 603 3500 
L 1178 3500 
L 1178 0 
L 603 0 
L 603 3500 
z
M 603 4863 
L 1178 4863 
L 1178 4134 
L 603 4134 
L 603 4863 
z
" transform="scale(0.015625)"/>
       <path id="DejaVuSans-73" d="M 2834 3397 
L 2834 2853 
Q 2591 2978 2328 3040 
Q 2066 3103 1784 3103 
Q 1356 3103 1142 2972 
Q 928 2841 928 2578 
Q 928 2378 1081 2264 
Q 1234 2150 1697 2047 
L 1894 2003 
Q 2506 1872 2764 1633 
Q 3022 1394 3022 966 
Q 3022 478 2636 193 
Q 2250 -91 1575 -91 
Q 1294 -91 989 -36 
Q 684 19 347 128 
L 347 722 
Q 666 556 975 473 
Q 1284 391 1588 391 
Q 1994 391 2212 530 
Q 2431 669 2431 922 
Q 2431 1156 2273 1281 
Q 2116 1406 1581 1522 
L 1381 1569 
Q 847 1681 609 1914 
Q 372 2147 372 2553 
Q 372 3047 722 3315 
Q 1072 3584 1716 3584 
Q 2034 3584 2315 3537 
Q 2597 3491 2834 3397 
z
" transform="scale(0.015625)"/>
      </defs>
      <use xlink:href="#DejaVuSans-54"/>
      <use xlink:href="#DejaVuSans-69" x="57.958984"/>
      <use xlink:href="#DejaVuSans-6d" x="85.742188"/>
      <use xlink:href="#DejaVuSans-65" x="183.154297"/>
      <use xlink:href="#DejaVuSans-20" x="244.677734"/>
      <use xlink:href="#DejaVuSans-28" x="276.464844"/>
      <use xlink:href="#DejaVuSans-73" x="315.478516"/>
      <use xlink:href="#DejaVuSans-29" x="367.578125"/>
     </g>
    </g>
   </g>
   <g id="matplotlib.axis_4">
    <g id="ytick_7">
     <g id="line2d_25">
      <g>
       <use xlink:href="#m6161ac9046" x="57.6" y="284.706674" style="stroke: #000000; stroke-width: 0.8"/>
      </g>
     </g>
     <g id="text_15">
      <!-- 2000 -->
      <g transform="translate(25.15 288.505893) scale(0.1 -0.1)">
       <use xlink:href="#DejaVuSans-32"/>
       <use xlink:href="#DejaVuSans-30" x="63.623047"/>
       <use xlink:href="#DejaVuSans-30" x="127.246094"/>
       <use xlink:href="#DejaVuSans-30" x="190.869141"/>
      </g>
     </g>
    </g>
    <g id="ytick_8">
     <g id="line2d_26">
      <g>
       <use xlink:href="#m6161ac9046" x="57.6" y="261.534482" style="stroke: #000000; stroke-width: 0.8"/>
      </g>
     </g>
     <g id="text_16">
      <!-- 4000 -->
      <g transform="translate(25.15 265.333701) scale(0.1 -0.1)">
       <use xlink:href="#DejaVuSans-34"/>
       <use xlink:href="#DejaVuSans-30" x="63.623047"/>
       <use xlink:href="#DejaVuSans-30" x="127.246094"/>
       <use xlink:href="#DejaVuSans-30" x="190.869141"/>
      </g>
     </g>
    </g>
    <g id="ytick_9">
     <g id="line2d_27">
      <g>
       <use xlink:href="#m6161ac9046" x="57.6" y="238.362291" style="stroke: #000000; stroke-width: 0.8"/>
      </g>
     </g>
     <g id="text_17">
      <!-- 6000 -->
      <g transform="translate(25.15 242.161509) scale(0.1 -0.1)">
       <use xlink:href="#DejaVuSans-36"/>
       <use xlink:href="#DejaVuSans-30" x="63.623047"/>
       <use xlink:href="#DejaVuSans-30" x="127.246094"/>
       <use xlink:href="#DejaVuSans-30" x="190.869141"/>
      </g>
     </g>
    </g>
    <g id="ytick_10">
     <g id="line2d_28">
      <g>
       <use xlink:href="#m6161ac9046" x="57.6" y="215.190099" style="stroke: #000000; stroke-width: 0.8"/>
      </g>
     </g>
     <g id="text_18">
      <!-- 8000 -->
      <g transform="translate(25.15 218.989318) scale(0.1 -0.1)">
       <use xlink:href="#DejaVuSans-38"/>
       <use xlink:href="#DejaVuSans-30" x="63.623047"/>
       <use xlink:href="#DejaVuSans-30" x="127.246094"/>
       <use xlink:href="#DejaVuSans-30" x="190.869141"/>
      </g>
     </g>
    </g>
    <g id="ytick_11">
     <g id="line2d_29">
      <g>
       <use xlink:href="#m6161ac9046" x="57.6" y="192.017907" style="stroke: #000000; stroke-width: 0.8"/>
      </g>
     </g>
     <g id="text_19">
      <!-- 10000 -->
      <g transform="translate(18.7875 195.817126) scale(0.1 -0.1)">
       <use xlink:href="#DejaVuSans-31"/>
       <use xlink:href="#DejaVuSans-30" x="63.623047"/>
       <use xlink:href="#DejaVuSans-30" x="127.246094"/>
       <use xlink:href="#DejaVuSans-30" x="190.869141"/>
       <use xlink:href="#DejaVuSans-30" x="254.492188"/>
      </g>
     </g>
    </g>
    <g id="text_20">
     <!-- RPM -->
     <g transform="translate(12.707813 257.907125) rotate(-90) scale(0.1 -0.1)">
      <defs>
       <path id="DejaVuSans-52" d="M 2841 2188 
Q 3044 2119 3236 1894 
Q 3428 1669 3622 1275 
L 4263 0 
L 3584 0 
L 2988 1197 
Q 2756 1666 2539 1819 
Q 2322 1972 1947 1972 
L 1259 1972 
L 1259 0 
L 628 0 
L 628 4666 
L 2053 4666 
Q 2853 4666 3247 4331 
Q 3641 3997 3641 3322 
Q 3641 2881 3436 2590 
Q 3231 2300 2841 2188 
z
M 1259 4147 
L 1259 2491 
L 2053 2491 
Q 2509 2491 2742 2702 
Q 2975 2913 2975 3322 
Q 2975 3731 2742 3939 
Q 2509 4147 2053 4147 
L 1259 4147 
z
" transform="scale(0.015625)"/>
       <path id="DejaVuSans-50" d="M 1259 4147 
L 1259 2394 
L 2053 2394 
Q 2494 2394 2734 2622 
Q 2975 2850 2975 3272 
Q 2975 3691 2734 3919 
Q 2494 4147 2053 4147 
L 1259 4147 
z
M 628 4666 
L 2053 4666 
Q 2838 4666 3239 4311 
Q 3641 3956 3641 3272 
Q 3641 2581 3239 2228 
Q 2838 1875 2053 1875 
L 1259 1875 
L 1259 0 
L 628 0 
L 628 4666 
z
" transform="scale(0.015625)"/>
       <path id="DejaVuSans-4d" d="M 628 4666 
L 1569 4666 
L 2759 1491 
L 3956 4666 
L 4897 4666 
L 4897 0 
L 4281 0 
L 4281 4097 
L 3078 897 
L 2444 897 
L 1241 4097 
L 1241 0 
L 628 0 
L 628 4666 
z
" transform="scale(0.015625)"/>
      </defs>
      <use xlink:href="#DejaVuSans-52"/>
      <use xlink:href="#DejaVuSans-50" x="69.482422"/>
      <use xlink:href="#DejaVuSans-4d" x="129.785156"/>
     </g>
    </g>
   </g>
   <g id="line2d_30">
    <path d="M 73.832727 284.706674 
L 77.112066 302.085818 
L 80.391405 302.085818 
L 83.670744 302.085818 
L 86.950083 301.031483 
L 90.229421 299.467361 
L 93.50876 297.822135 
L 96.788099 296.072634 
L 100.067438 294.218859 
L 103.346777 292.272395 
L 106.626116 290.233242 
L 109.905455 288.089814 
L 113.184793 285.853698 
L 116.464132 283.513306 
L 119.743471 281.091812 
L 123.02281 278.57763 
L 126.302149 275.99393 
L 129.581488 273.329128 
L 132.860826 270.594809 
L 136.140165 267.80256 
L 139.419504 264.963967 
L 142.698843 262.090615 
L 145.978182 259.182505 
L 149.257521 256.262809 
L 152.53686 253.343113 
L 155.816198 250.423416 
L 159.095537 247.526893 
L 162.374876 244.665127 
L 165.654215 241.838119 
L 168.933554 239.069042 
L 172.212893 236.369482 
L 175.492231 233.739438 
L 178.77157 231.178911 
L 182.050909 228.711073 
L 185.330248 226.335923 
L 188.609587 224.065048 
L 191.888926 221.886862 
L 195.168264 219.801365 
L 198.447603 217.831729 
L 201.726942 215.966367 
L 205.006281 214.205281 
L 208.28562 212.548469 
L 211.564959 210.984346 
L 214.844298 209.524498 
L 218.123636 208.157339 
L 221.402975 206.882868 
L 224.682314 205.6895 
L 227.961653 204.588821 
L 231.240992 203.557658 
L 234.520331 202.607599 
L 237.799669 201.738641 
L 241.079008 200.927615 
L 244.358347 200.174518 
L 247.637686 199.479353 
L 250.917025 198.853704 
L 254.196364 198.262813 
L 257.475702 197.729852 
L 260.755041 197.23165 
L 264.03438 196.779792 
L 267.313719 196.362693 
L 270.593058 195.991938 
L 273.872397 195.644355 
L 277.151736 195.319944 
L 280.431074 195.030292 
L 283.710413 194.763812 
L 286.989752 194.520504 
L 290.269091 194.300368 
L 293.54843 194.103404 
L 296.827769 193.918027 
L 300.107107 193.744235 
L 303.386446 193.593616 
L 306.665785 193.454583 
L 309.945124 193.327136 
L 313.224463 193.199689 
L 316.503802 193.095414 
L 319.78314 193.002725 
L 323.062479 192.910036 
L 326.341818 192.828934 
L 329.621157 192.759417 
L 332.900496 192.689901 
L 336.179835 192.63197 
L 339.459174 192.57404 
L 342.738512 192.527695 
L 346.017851 192.481351 
L 349.29719 192.446593 
L 352.576529 192.400248 
L 355.855868 192.36549 
L 359.135207 192.342318 
L 362.414545 192.307559 
L 365.693884 192.284387 
L 368.973223 192.261215 
L 372.252562 192.238043 
L 375.531901 192.214871 
L 378.81124 192.203284 
L 382.090579 192.180112 
L 385.369917 192.168526 
L 388.649256 192.15694 
L 391.928595 192.145354 
L 395.207934 192.133768 
L 398.487273 192.122182 
" clip-path="url(#p86e1ce37d2)" style="fill: none; stroke: #1f77b4; stroke-width: 1.5; stroke-linecap: square"/>
   </g>
   <g id="line2d_31">
    <path d="M 73.832727 284.706674 
L 77.112066 302.085818 
L 80.391405 302.085818 
L 83.670744 302.085818 
L 86.950083 302.085818 
L 90.229421 302.085818 
L 93.50876 302.085818 
L 96.788099 301.506513 
L 100.067438 300.649142 
L 103.346777 299.757013 
L 106.626116 298.841711 
L 109.905455 297.891651 
L 113.184793 296.906833 
L 116.464132 295.898843 
L 119.743471 294.856094 
L 123.02281 293.778587 
L 126.302149 292.666322 
L 129.581488 291.530885 
L 132.860826 290.360689 
L 136.140165 289.155735 
L 139.419504 287.927609 
L 142.698843 286.664725 
L 145.978182 285.367082 
L 149.257521 284.046267 
L 152.53686 282.690694 
L 155.816198 281.311948 
L 159.095537 279.898444 
L 162.374876 278.473355 
L 165.654215 277.013507 
L 168.933554 275.530486 
L 172.212893 274.024294 
L 175.492231 272.494929 
L 178.77157 270.942392 
L 182.050909 269.378269 
L 185.330248 267.790974 
L 188.609587 266.203679 
L 191.888926 264.593212 
L 195.168264 262.971158 
L 198.447603 261.337519 
L 201.726942 259.703879 
L 205.006281 258.058654 
L 208.28562 256.413428 
L 211.564959 254.768202 
L 214.844298 253.134563 
L 218.123636 251.489337 
L 221.402975 249.855698 
L 224.682314 248.233644 
L 227.961653 246.611591 
L 231.240992 245.01271 
L 234.520331 243.425415 
L 237.799669 241.849706 
L 241.079008 240.285583 
L 244.358347 238.744632 
L 247.637686 237.238439 
L 250.917025 235.732247 
L 254.196364 234.272399 
L 257.475702 232.824137 
L 260.755041 231.399047 
L 264.03438 230.008715 
L 267.313719 228.641556 
L 270.593058 227.309155 
L 273.872397 226.011512 
L 277.151736 224.737042 
L 280.431074 223.485743 
L 283.710413 222.280789 
L 286.989752 221.099008 
L 290.269091 219.951984 
L 293.54843 218.839719 
L 296.827769 217.762212 
L 300.107107 216.719463 
L 303.386446 215.699887 
L 306.665785 214.715069 
L 309.945124 213.765009 
L 313.224463 212.849707 
L 316.503802 211.957578 
L 319.78314 211.100207 
L 323.062479 210.277594 
L 326.341818 209.478154 
L 329.621157 208.713471 
L 332.900496 207.971961 
L 336.179835 207.265209 
L 339.459174 206.58163 
L 342.738512 205.921222 
L 346.017851 205.295573 
L 349.29719 204.68151 
L 352.576529 204.102205 
L 355.855868 203.546072 
L 359.135207 203.013112 
L 362.414545 202.503324 
L 365.693884 202.016708 
L 368.973223 201.541678 
L 372.252562 201.101406 
L 375.531901 200.672721 
L 378.81124 200.255621 
L 382.090579 199.861694 
L 385.369917 199.490939 
L 388.649256 199.13177 
L 391.928595 198.795773 
L 395.207934 198.471362 
L 398.487273 198.158538 
" clip-path="url(#p86e1ce37d2)" style="fill: none; stroke: #ff7f0e; stroke-width: 1.5; stroke-linecap: square"/>
   </g>
   <g id="line2d_32">
    <path d="M 73.832727 284.706674 
L 77.112066 302.085818 
L 80.391405 302.085818 
L 83.670744 302.085818 
L 86.950083 302.085818 
L 90.229421 302.085818 
L 93.50876 302.085818 
L 96.788099 302.085818 
L 100.067438 302.085818 
L 103.346777 302.085818 
L 106.626116 302.05106 
L 109.905455 301.506513 
L 113.184793 300.938795 
L 116.464132 300.371076 
L 119.743471 299.780185 
L 123.02281 299.177708 
L 126.302149 298.563645 
L 129.581488 297.92641 
L 132.860826 297.289174 
L 136.140165 296.628767 
L 139.419504 295.96836 
L 142.698843 295.28478 
L 145.978182 294.589614 
L 149.257521 293.871276 
L 152.53686 293.152938 
L 155.816198 292.411428 
L 159.095537 291.658332 
L 162.374876 290.89365 
L 165.654215 290.117381 
L 168.933554 289.329527 
L 172.212893 288.5185 
L 175.492231 287.707473 
L 178.77157 286.873274 
L 182.050909 286.027489 
L 185.330248 285.170118 
L 188.609587 284.301161 
L 191.888926 283.420618 
L 195.168264 282.516902 
L 198.447603 281.613187 
L 201.726942 280.697885 
L 205.006281 279.770997 
L 208.28562 278.820938 
L 211.564959 277.870878 
L 214.844298 276.909232 
L 218.123636 275.936 
L 221.402975 274.951182 
L 224.682314 273.954777 
L 227.961653 272.958373 
L 231.240992 271.950383 
L 234.520331 270.930806 
L 237.799669 269.899644 
L 241.079008 268.868481 
L 244.358347 267.825733 
L 247.637686 266.782984 
L 250.917025 265.728649 
L 254.196364 264.674314 
L 257.475702 263.608394 
L 260.755041 262.542473 
L 264.03438 261.476552 
L 267.313719 260.399045 
L 270.593058 259.333124 
L 273.872397 258.255617 
L 277.151736 257.17811 
L 280.431074 256.100603 
L 283.710413 255.023097 
L 286.989752 253.94559 
L 290.269091 252.868083 
L 293.54843 251.790576 
L 296.827769 250.724655 
L 300.107107 249.658734 
L 303.386446 248.592813 
L 306.665785 247.526893 
L 309.945124 246.472558 
L 313.224463 245.418223 
L 316.503802 244.375474 
L 319.78314 243.344312 
L 323.062479 242.313149 
L 326.341818 241.281987 
L 329.621157 240.273996 
L 332.900496 239.266006 
L 336.179835 238.258016 
L 339.459174 237.273198 
L 342.738512 236.288379 
L 346.017851 235.326733 
L 349.29719 234.365088 
L 352.576529 233.415028 
L 355.855868 232.476554 
L 359.135207 231.549666 
L 362.414545 230.634365 
L 365.693884 229.730649 
L 368.973223 228.83852 
L 372.252562 227.969563 
L 375.531901 227.100605 
L 378.81124 226.25482 
L 382.090579 225.409035 
L 385.369917 224.586423 
L 388.649256 223.775396 
L 391.928595 222.975955 
L 395.207934 222.188101 
L 398.487273 221.423418 
" clip-path="url(#p86e1ce37d2)" style="fill: none; stroke: #2ca02c; stroke-width: 1.5; stroke-linecap: square"/>
   </g>
   <g id="line2d_33">
    <path d="M 73.832727 284.706674 
L 77.112066 302.085818 
L 80.391405 302.085818 
L 83.670744 302.085818 
L 86.950083 302.085818 
L 90.229421 302.085818 
L 93.50876 302.085818 
L 96.788099 302.085818 
L 100.067438 302.085818 
L 103.346777 302.085818 
L 106.626116 302.085818 
L 109.905455 302.085818 
L 113.184793 302.085818 
L 116.464132 302.085818 
L 119.743471 302.085818 
L 123.02281 302.085818 
L 126.302149 302.085818 
L 129.581488 302.085818 
L 132.860826 301.900441 
L 136.140165 301.57603 
L 139.419504 301.251619 
L 142.698843 300.915622 
L 145.978182 300.579626 
L 149.257521 300.243629 
L 152.53686 299.896046 
L 155.816198 299.536877 
L 159.095537 299.189294 
L 162.374876 298.830125 
L 165.654215 298.45937 
L 168.933554 298.088615 
L 172.212893 297.71786 
L 175.492231 297.347105 
L 178.77157 296.964764 
L 182.050909 296.570837 
L 185.330248 296.176909 
L 188.609587 295.782982 
L 191.888926 295.377469 
L 195.168264 294.971955 
L 198.447603 294.566442 
L 201.726942 294.149342 
L 205.006281 293.732243 
L 208.28562 293.303557 
L 211.564959 292.874872 
L 214.844298 292.446186 
L 218.123636 292.005915 
L 221.402975 291.554057 
L 224.682314 291.113785 
L 227.961653 290.661928 
L 231.240992 290.198484 
L 234.520331 289.73504 
L 237.799669 289.271596 
L 241.079008 288.796566 
L 244.358347 288.321536 
L 247.637686 287.846506 
L 250.917025 287.35989 
L 254.196364 286.873274 
L 257.475702 286.375072 
L 260.755041 285.87687 
L 264.03438 285.378668 
L 267.313719 284.86888 
L 270.593058 284.359091 
L 273.872397 283.837717 
L 277.151736 283.316343 
L 280.431074 282.794968 
L 283.710413 282.262008 
L 286.989752 281.729048 
L 290.269091 281.196087 
L 293.54843 280.651541 
L 296.827769 280.106994 
L 300.107107 279.562448 
L 303.386446 279.006315 
L 306.665785 278.461769 
L 309.945124 277.89405 
L 313.224463 277.337917 
L 316.503802 276.770199 
L 319.78314 276.20248 
L 323.062479 275.623175 
L 326.341818 275.04387 
L 329.621157 274.464566 
L 332.900496 273.885261 
L 336.179835 273.29437 
L 339.459174 272.703479 
L 342.738512 272.112588 
L 346.017851 271.521697 
L 349.29719 270.91922 
L 352.576529 270.328329 
L 355.855868 269.725852 
L 359.135207 269.111789 
L 362.414545 268.509312 
L 365.693884 267.895249 
L 368.973223 267.292772 
L 372.252562 266.678709 
L 375.531901 266.05306 
L 378.81124 265.438997 
L 382.090579 264.824934 
L 385.369917 264.199285 
L 388.649256 263.585221 
L 391.928595 262.959572 
L 395.207934 262.333923 
L 398.487273 261.708274 
" clip-path="url(#p86e1ce37d2)" style="fill: none; stroke: #d62728; stroke-width: 1.5; stroke-linecap: square"/>
   </g>
   <g id="line2d_34">
    <path d="M 73.832727 284.706674 
L 77.112066 302.085818 
L 80.391405 302.085818 
L 83.670744 302.085818 
L 86.950083 302.085818 
L 90.229421 302.085818 
L 93.50876 302.085818 
L 96.788099 302.085818 
L 100.067438 302.085818 
L 103.346777 302.085818 
L 106.626116 302.085818 
L 109.905455 302.085818 
L 113.184793 302.085818 
L 116.464132 302.085818 
L 119.743471 302.085818 
L 123.02281 302.085818 
L 126.302149 302.085818 
L 129.581488 302.085818 
L 132.860826 302.085818 
L 136.140165 302.085818 
L 139.419504 302.085818 
L 142.698843 302.085818 
L 145.978182 302.085818 
L 149.257521 302.085818 
L 152.53686 302.085818 
L 155.816198 302.085818 
L 159.095537 302.085818 
L 162.374876 302.085818 
L 165.654215 302.085818 
L 168.933554 302.085818 
L 172.212893 302.062646 
L 175.492231 301.865682 
L 178.77157 301.680305 
L 182.050909 301.483341 
L 185.330248 301.286378 
L 188.609587 301.089414 
L 191.888926 300.89245 
L 195.168264 300.695487 
L 198.447603 300.498523 
L 201.726942 300.289973 
L 205.006281 300.081424 
L 208.28562 299.88446 
L 211.564959 299.67591 
L 214.844298 299.467361 
L 218.123636 299.247225 
L 221.402975 299.038675 
L 224.682314 298.830125 
L 227.961653 298.609989 
L 231.240992 298.389854 
L 234.520331 298.169718 
L 237.799669 297.949582 
L 241.079008 297.729446 
L 244.358347 297.50931 
L 247.637686 297.289174 
L 250.917025 297.057453 
L 254.196364 296.825731 
L 257.475702 296.594009 
L 260.755041 296.362287 
L 264.03438 296.130565 
L 267.313719 295.898843 
L 270.593058 295.667121 
L 273.872397 295.423813 
L 277.151736 295.180505 
L 280.431074 294.937197 
L 283.710413 294.693889 
L 286.989752 294.450581 
L 290.269091 294.207273 
L 293.54843 293.963965 
L 296.827769 293.709071 
L 300.107107 293.454177 
L 303.386446 293.199283 
L 306.665785 292.944389 
L 309.945124 292.689494 
L 313.224463 292.4346 
L 316.503802 292.179706 
L 319.78314 291.913226 
L 323.062479 291.646746 
L 326.341818 291.380266 
L 329.621157 291.113785 
L 332.900496 290.847305 
L 336.179835 290.580825 
L 339.459174 290.314345 
L 342.738512 290.036278 
L 346.017851 289.758212 
L 349.29719 289.491732 
L 352.576529 289.213666 
L 355.855868 288.935599 
L 359.135207 288.645947 
L 362.414545 288.367881 
L 365.693884 288.078228 
L 368.973223 287.800162 
L 372.252562 287.51051 
L 375.531901 287.220857 
L 378.81124 286.931205 
L 382.090579 286.641552 
L 385.369917 286.340314 
L 388.649256 286.050661 
L 391.928595 285.749423 
L 395.207934 285.459771 
L 398.487273 285.158532 
" clip-path="url(#p86e1ce37d2)" style="fill: none; stroke: #9467bd; stroke-width: 1.5; stroke-linecap: square"/>
   </g>
   <g id="line2d_35">
    <path d="M 73.832727 284.706674 
L 77.112066 302.085818 
L 80.391405 302.085818 
L 83.670744 302.085818 
L 86.950083 302.085818 
L 90.229421 302.085818 
L 93.50876 302.085818 
L 96.788099 302.085818 
L 100.067438 302.085818 
L 103.346777 302.085818 
L 106.626116 302.085818 
L 109.905455 302.085818 
L 113.184793 302.085818 
L 116.464132 302.085818 
L 119.743471 302.085818 
L 123.02281 302.085818 
L 126.302149 302.085818 
L 129.581488 302.085818 
L 132.860826 302.085818 
L 136.140165 302.085818 
L 139.419504 302.085818 
L 142.698843 302.085818 
L 145.978182 302.085818 
L 149.257521 302.085818 
L 152.53686 302.085818 
L 155.816198 302.085818 
L 159.095537 302.085818 
L 162.374876 302.085818 
L 165.654215 302.085818 
L 168.933554 302.085818 
L 172.212893 302.062646 
L 175.492231 301.865682 
L 178.77157 301.680305 
L 182.050909 301.483341 
L 185.330248 301.286378 
L 188.609587 301.089414 
L 191.888926 300.89245 
L 195.168264 300.695487 
L 198.447603 300.498523 
L 201.726942 300.289973 
L 205.006281 300.081424 
L 208.28562 299.88446 
L 211.564959 299.67591 
L 214.844298 299.467361 
L 218.123636 299.247225 
L 221.402975 299.038675 
L 224.682314 298.830125 
L 227.961653 298.609989 
L 231.240992 298.389854 
L 234.520331 298.169718 
L 237.799669 297.949582 
L 241.079008 297.729446 
L 244.358347 297.50931 
L 247.637686 297.289174 
L 250.917025 297.057453 
L 254.196364 296.825731 
L 257.475702 296.594009 
L 260.755041 296.362287 
L 264.03438 296.130565 
L 267.313719 295.898843 
L 270.593058 295.667121 
L 273.872397 295.423813 
L 277.151736 295.180505 
L 280.431074 294.937197 
L 283.710413 294.693889 
L 286.989752 294.450581 
L 290.269091 294.207273 
L 293.54843 293.963965 
L 296.827769 293.709071 
L 300.107107 293.454177 
L 303.386446 293.199283 
L 306.665785 292.944389 
L 309.945124 292.689494 
L 313.224463 292.4346 
L 316.503802 292.179706 
L 319.78314 291.913226 
L 323.062479 291.646746 
L 326.341818 291.380266 
L 329.621157 291.113785 
L 332.900496 290.847305 
L 336.179835 290.580825 
L 339.459174 290.314345 
L 342.738512 290.036278 
L 346.017851 289.758212 
L 349.29719 289.491732 
L 352.576529 289.213666 
L 355.855868 288.935599 
L 359.135207 288.645947 
L 362.414545 288.367881 
L 365.693884 288.078228 
L 368.973223 287.800162 
L 372.252562 287.51051 
L 375.531901 287.220857 
L 378.81124 286.931205 
L 382.090579 286.641552 
L 385.369917 286.340314 
L 388.649256 286.050661 
L 391.928595 285.749423 
L 395.207934 285.459771 
L 398.487273 285.158532 
" clip-path="url(#p86e1ce37d2)" style="fill: none; stroke: #8c564b; stroke-width: 1.5; stroke-linecap: square"/>
   </g>
   <g id="patch_8">
    <path d="M 57.6 307.584 
L 57.6 186.624 
" style="fill: none; stroke: #000000; stroke-width: 0.8; stroke-linejoin: miter; stroke-linecap: square"/>
   </g>
   <g id="patch_9">
    <path d="M 414.72 307.584 
L 414.72 186.624 
" style="fill: none; stroke: #000000; stroke-width: 0.8; stroke-linejoin: miter; stroke-linecap: square"/>
   </g>
   <g id="patch_10">
    <path d="M 57.6 307.584 
L 414.72 307.584 
" style="fill: none; stroke: #000000; stroke-width: 0.8; stroke-linejoin: miter; stroke-linecap: square"/>
   </g>
   <g id="patch_11">
    <path d="M 57.6 186.624 
L 414.72 186.624 
" style="fill: none; stroke: #000000; stroke-width: 0.8; stroke-linejoin: miter; stroke-linecap: square"/>
   </g>
  </g>
  <g id="text_21">
   <!-- Performance for a simulated engine -->
   <g transform="translate(122.72625 16.030125) scale(0.12 -0.12)">
    <defs>
     <path id="DejaVuSans-72" d="M 2631 2963 
Q 2534 3019 2420 3045 
Q 2306 3072 2169 3072 
Q 1681 3072 1420 2755 
Q 1159 2438 1159 1844 
L 1159 0 
L 581 0 
L 581 3500 
L 1159 3500 
L 1159 2956 
Q 1341 3275 1631 3429 
Q 1922 3584 2338 3584 
Q 2397 3584 2469 3576 
Q 2541 3569 2628 3553 
L 2631 2963 
z
" transform="scale(0.015625)"/>
     <path id="DejaVuSans-66" d="M 2375 4863 
L 2375 4384 
L 1825 4384 
Q 1516 4384 1395 4259 
Q 1275 4134 1275 3809 
L 1275 3500 
L 2222 3500 
L 2222 3053 
L 1275 3053 
L 1275 0 
L 697 0 
L 697 3053 
L 147 3053 
L 147 3500 
L 697 3500 
L 697 3744 
Q 697 4328 969 4595 
Q 1241 4863 1831 4863 
L 2375 4863 
z
" transform="scale(0.015625)"/>
     <path id="DejaVuSans-6f" d="M 1959 3097 
Q 1497 3097 1228 2736 
Q 959 2375 959 1747 
Q 959 1119 1226 758 
Q 1494 397 1959 397 
Q 2419 397 2687 759 
Q 2956 1122 2956 1747 
Q 2956 2369 2687 2733 
Q 2419 3097 1959 3097 
z
M 1959 3584 
Q 2709 3584 3137 3096 
Q 3566 2609 3566 1747 
Q 3566 888 3137 398 
Q 2709 -91 1959 -91 
Q 1206 -91 779 398 
Q 353 888 353 1747 
Q 353 2609 779 3096 
Q 1206 3584 1959 3584 
z
" transform="scale(0.015625)"/>
     <path id="DejaVuSans-61" d="M 2194 1759 
Q 1497 1759 1228 1600 
Q 959 1441 959 1056 
Q 959 750 1161 570 
Q 1363 391 1709 391 
Q 2188 391 2477 730 
Q 2766 1069 2766 1631 
L 2766 1759 
L 2194 1759 
z
M 3341 1997 
L 3341 0 
L 2766 0 
L 2766 531 
Q 2569 213 2275 61 
Q 1981 -91 1556 -91 
Q 1019 -91 701 211 
Q 384 513 384 1019 
Q 384 1609 779 1909 
Q 1175 2209 1959 2209 
L 2766 2209 
L 2766 2266 
Q 2766 2663 2505 2880 
Q 2244 3097 1772 3097 
Q 1472 3097 1187 3025 
Q 903 2953 641 2809 
L 641 3341 
Q 956 3463 1253 3523 
Q 1550 3584 1831 3584 
Q 2591 3584 2966 3190 
Q 3341 2797 3341 1997 
z
" transform="scale(0.015625)"/>
     <path id="DejaVuSans-6e" d="M 3513 2113 
L 3513 0 
L 2938 0 
L 2938 2094 
Q 2938 2591 2744 2837 
Q 2550 3084 2163 3084 
Q 1697 3084 1428 2787 
Q 1159 2491 1159 1978 
L 1159 0 
L 581 0 
L 581 3500 
L 1159 3500 
L 1159 2956 
Q 1366 3272 1645 3428 
Q 1925 3584 2291 3584 
Q 2894 3584 3203 3211 
Q 3513 2838 3513 2113 
z
" transform="scale(0.015625)"/>
     <path id="DejaVuSans-63" d="M 3122 3366 
L 3122 2828 
Q 2878 2963 2633 3030 
Q 2388 3097 2138 3097 
Q 1578 3097 1268 2742 
Q 959 2388 959 1747 
Q 959 1106 1268 751 
Q 1578 397 2138 397 
Q 2388 397 2633 464 
Q 2878 531 3122 666 
L 3122 134 
Q 2881 22 2623 -34 
Q 2366 -91 2075 -91 
Q 1284 -91 818 406 
Q 353 903 353 1747 
Q 353 2603 823 3093 
Q 1294 3584 2113 3584 
Q 2378 3584 2631 3529 
Q 2884 3475 3122 3366 
z
" transform="scale(0.015625)"/>
     <path id="DejaVuSans-75" d="M 544 1381 
L 544 3500 
L 1119 3500 
L 1119 1403 
Q 1119 906 1312 657 
Q 1506 409 1894 409 
Q 2359 409 2629 706 
Q 2900 1003 2900 1516 
L 2900 3500 
L 3475 3500 
L 3475 0 
L 2900 0 
L 2900 538 
Q 2691 219 2414 64 
Q 2138 -91 1772 -91 
Q 1169 -91 856 284 
Q 544 659 544 1381 
z
M 1991 3584 
L 1991 3584 
z
" transform="scale(0.015625)"/>
     <path id="DejaVuSans-6c" d="M 603 4863 
L 1178 4863 
L 1178 0 
L 603 0 
L 603 4863 
z
" transform="scale(0.015625)"/>
     <path id="DejaVuSans-74" d="M 1172 4494 
L 1172 3500 
L 2356 3500 
L 2356 3053 
L 1172 3053 
L 1172 1153 
Q 1172 725 1289 603 
Q 1406 481 1766 481 
L 2356 481 
L 2356 0 
L 1766 0 
Q 1100 0 847 248 
Q 594 497 594 1153 
L 594 3053 
L 172 3053 
L 172 3500 
L 594 3500 
L 594 4494 
L 1172 4494 
z
" transform="scale(0.015625)"/>
     <path id="DejaVuSans-67" d="M 2906 1791 
Q 2906 2416 2648 2759 
Q 2391 3103 1925 3103 
Q 1463 3103 1205 2759 
Q 947 2416 947 1791 
Q 947 1169 1205 825 
Q 1463 481 1925 481 
Q 2391 481 2648 825 
Q 2906 1169 2906 1791 
z
M 3481 434 
Q 3481 -459 3084 -895 
Q 2688 -1331 1869 -1331 
Q 1566 -1331 1297 -1286 
Q 1028 -1241 775 -1147 
L 775 -588 
Q 1028 -725 1275 -790 
Q 1522 -856 1778 -856 
Q 2344 -856 2625 -561 
Q 2906 -266 2906 331 
L 2906 616 
Q 2728 306 2450 153 
Q 2172 0 1784 0 
Q 1141 0 747 490 
Q 353 981 353 1791 
Q 353 2603 747 3093 
Q 1141 3584 1784 3584 
Q 2172 3584 2450 3431 
Q 2728 3278 2906 2969 
L 2906 3500 
L 3481 3500 
L 3481 434 
z
" transform="scale(0.015625)"/>
    </defs>
    <use xlink:href="#DejaVuSans-50"/>
    <use xlink:href="#DejaVuSans-65" x="56.677734"/>
    <use xlink:href="#DejaVuSans-72" x="118.201172"/>
    <use xlink:href="#DejaVuSans-66" x="159.314453"/>
    <use xlink:href="#DejaVuSans-6f" x="194.519531"/>
    <use xlink:href="#DejaVuSans-72" x="255.701172"/>
    <use xlink:href="#DejaVuSans-6d" x="295.064453"/>
    <use xlink:href="#DejaVuSans-61" x="392.476562"/>
    <use xlink:href="#DejaVuSans-6e" x="453.755859"/>
    <use xlink:href="#DejaVuSans-63" x="517.134766"/>
    <use xlink:href="#DejaVuSans-65" x="572.115234"/>
    <use xlink:href="#DejaVuSans-20" x="633.638672"/>
    <use xlink:href="#DejaVuSans-66" x="665.425781"/>
    <use xlink:href="#DejaVuSans-6f" x="700.630859"/>
    <use xlink:href="#DejaVuSans-72" x="761.8125"/>
    <use xlink:href="#DejaVuSans-20" x="802.925781"/>
    <use xlink:href="#DejaVuSans-61" x="834.712891"/>
    <use xlink:href="#DejaVuSans-20" x="895.992188"/>
    <use xlink:href="#DejaVuSans-73" x="927.779297"/>
    <use xlink:href="#DejaVuSans-69" x="979.878906"/>
    <use xlink:href="#DejaVuSans-6d" x="1007.662109"/>
    <use xlink:href="#DejaVuSans-75" x="1105.074219"/>
    <use xlink:href="#DejaVuSans-6c" x="1168.453125"/>
    <use xlink:href="#DejaVuSans-61" x="1196.236328"/>
    <use xlink:href="#DejaVuSans-74" x="1257.515625"/>
    <use xlink:href="#DejaVuSans-65" x="1296.724609"/>
    <use xlink:href="#DejaVuSans-64" x="1358.248047"/>
    <use xlink:href="#DejaVuSans-20" x="1421.724609"/>
    <use xlink:href="#DejaVuSans-65" x="1453.511719"/>
    <use xlink:href="#DejaVuSans-6e" x="1515.035156"/>
    <use xlink:href="#DejaVuSans-67" x="1578.414062"/>
    <use xlink:href="#DejaVuSans-69" x="1641.890625"/>
    <use xlink:href="#DejaVuSans-6e" x="1669.673828"/>
    <use xlink:href="#DejaVuSans-65" x="1733.052734"/>
   </g>
  </g>
  <g id="legend_1">
   <g id="patch_12">
    <path d="M 389.51875 96.06875 
L 453.8 96.06875 
Q 455.8 96.06875 455.8 94.06875 
L 455.8 7 
Q 455.8 5 453.8 5 
L 389.51875 5 
Q 387.51875 5 387.51875 7 
L 387.51875 94.06875 
Q 387.51875 96.06875 389.51875 96.06875 
z
" style="fill: #ffffff; opacity: 0.8; stroke: #cccccc; stroke-linejoin: miter"/>
   </g>
   <g id="line2d_36">
    <path d="M 391.51875 13.098437 
L 401.51875 13.098437 
L 411.51875 13.098437 
" style="fill: none; stroke: #1f77b4; stroke-width: 1.5; stroke-linecap: square"/>
   </g>
   <g id="text_22">
    <!-- gear 1 -->
    <g transform="translate(419.51875 16.598437) scale(0.1 -0.1)">
     <use xlink:href="#DejaVuSans-67"/>
     <use xlink:href="#DejaVuSans-65" x="63.476562"/>
     <use xlink:href="#DejaVuSans-61" x="125"/>
     <use xlink:href="#DejaVuSans-72" x="186.279297"/>
     <use xlink:href="#DejaVuSans-20" x="227.392578"/>
     <use xlink:href="#DejaVuSans-31" x="259.179688"/>
    </g>
   </g>
   <g id="line2d_37">
    <path d="M 391.51875 27.776563 
L 401.51875 27.776563 
L 411.51875 27.776563 
" style="fill: none; stroke: #ff7f0e; stroke-width: 1.5; stroke-linecap: square"/>
   </g>
   <g id="text_23">
    <!-- gear 2 -->
    <g transform="translate(419.51875 31.276563) scale(0.1 -0.1)">
     <use xlink:href="#DejaVuSans-67"/>
     <use xlink:href="#DejaVuSans-65" x="63.476562"/>
     <use xlink:href="#DejaVuSans-61" x="125"/>
     <use xlink:href="#DejaVuSans-72" x="186.279297"/>
     <use xlink:href="#DejaVuSans-20" x="227.392578"/>
     <use xlink:href="#DejaVuSans-32" x="259.179688"/>
    </g>
   </g>
   <g id="line2d_38">
    <path d="M 391.51875 42.454687 
L 401.51875 42.454687 
L 411.51875 42.454687 
" style="fill: none; stroke: #2ca02c; stroke-width: 1.5; stroke-linecap: square"/>
   </g>
   <g id="text_24">
    <!-- gear 3 -->
    <g transform="translate(419.51875 45.954687) scale(0.1 -0.1)">
     <defs>
      <path id="DejaVuSans-33" d="M 2597 2516 
Q 3050 2419 3304 2112 
Q 3559 1806 3559 1356 
Q 3559 666 3084 287 
Q 2609 -91 1734 -91 
Q 1441 -91 1130 -33 
Q 819 25 488 141 
L 488 750 
Q 750 597 1062 519 
Q 1375 441 1716 441 
Q 2309 441 2620 675 
Q 2931 909 2931 1356 
Q 2931 1769 2642 2001 
Q 2353 2234 1838 2234 
L 1294 2234 
L 1294 2753 
L 1863 2753 
Q 2328 2753 2575 2939 
Q 2822 3125 2822 3475 
Q 2822 3834 2567 4026 
Q 2313 4219 1838 4219 
Q 1578 4219 1281 4162 
Q 984 4106 628 3988 
L 628 4550 
Q 988 4650 1302 4700 
Q 1616 4750 1894 4750 
Q 2613 4750 3031 4423 
Q 3450 4097 3450 3541 
Q 3450 3153 3228 2886 
Q 3006 2619 2597 2516 
z
" transform="scale(0.015625)"/>
     </defs>
     <use xlink:href="#DejaVuSans-67"/>
     <use xlink:href="#DejaVuSans-65" x="63.476562"/>
     <use xlink:href="#DejaVuSans-61" x="125"/>
     <use xlink:href="#DejaVuSans-72" x="186.279297"/>
     <use xlink:href="#DejaVuSans-20" x="227.392578"/>
     <use xlink:href="#DejaVuSans-33" x="259.179688"/>
    </g>
   </g>
   <g id="line2d_39">
    <path d="M 391.51875 57.132812 
L 401.51875 57.132812 
L 411.51875 57.132812 
" style="fill: none; stroke: #d62728; stroke-width: 1.5; stroke-linecap: square"/>
   </g>
   <g id="text_25">
    <!-- gear 4 -->
    <g transform="translate(419.51875 60.632812) scale(0.1 -0.1)">
     <use xlink:href="#DejaVuSans-67"/>
     <use xlink:href="#DejaVuSans-65" x="63.476562"/>
     <use xlink:href="#DejaVuSans-61" x="125"/>
     <use xlink:href="#DejaVuSans-72" x="186.279297"/>
     <use xlink:href="#DejaVuSans-20" x="227.392578"/>
     <use xlink:href="#DejaVuSans-34" x="259.179688"/>
    </g>
   </g>
   <g id="line2d_40">
    <path d="M 391.51875 71.810937 
L 401.51875 71.810937 
L 411.51875 71.810937 
" style="fill: none; stroke: #9467bd; stroke-width: 1.5; stroke-linecap: square"/>
   </g>
   <g id="text_26">
    <!-- gear 5 -->
    <g transform="translate(419.51875 75.310937) scale(0.1 -0.1)">
     <use xlink:href="#DejaVuSans-67"/>
     <use xlink:href="#DejaVuSans-65" x="63.476562"/>
     <use xlink:href="#DejaVuSans-61" x="125"/>
     <use xlink:href="#DejaVuSans-72" x="186.279297"/>
     <use xlink:href="#DejaVuSans-20" x="227.392578"/>
     <use xlink:href="#DejaVuSans-35" x="259.179688"/>
    </g>
   </g>
   <g id="line2d_41">
    <path d="M 391.51875 86.489062 
L 401.51875 86.489062 
L 411.51875 86.489062 
" style="fill: none; stroke: #8c564b; stroke-width: 1.5; stroke-linecap: square"/>
   </g>
   <g id="text_27">
    <!-- gear 6 -->
    <g transform="translate(419.51875 89.989062) scale(0.1 -0.1)">
     <use xlink:href="#DejaVuSans-67"/>
     <use xlink:href="#DejaVuSans-65" x="63.476562"/>
     <use xlink:href="#DejaVuSans-61" x="125"/>
     <use xlink:href="#DejaVuSans-72" x="186.279297"/>
     <use xlink:href="#DejaVuSans-20" x="227.392578"/>
     <use xlink:href="#DejaVuSans-36" x="259.179688"/>
    </g>
   </g>
  </g>
 </g>
 <defs>
  <clipPath id="p6ebe5e71a6">
   <rect x="57.6" y="41.472" width="357.12" height="120.96"/>
  </clipPath>
  <clipPath id="p86e1ce37d2">
   <rect x="57.6" y="186.624" width="357.12" height="120.96"/>
  </clipPath>
 </defs>
</svg>
