<?xml version="1.0" encoding="utf-8" standalone="no"?>
<!DOCTYPE svg PUBLIC "-//W3C//DTD SVG 1.1//EN"
  "http://www.w3.org/Graphics/SVG/1.1/DTD/svg11.dtd">
<svg xmlns:xlink="http://www.w3.org/1999/xlink" width="460.8pt" height="345.6pt" viewBox="0 0 460.8 345.6" xmlns="http://www.w3.org/2000/svg" version="1.1">
 <metadata>
  <rdf:RDF xmlns:dc="http://purl.org/dc/elements/1.1/" xmlns:cc="http://creativecommons.org/ns#" xmlns:rdf="http://www.w3.org/1999/02/22-rdf-syntax-ns#">
   <cc:Work>
    <dc:type rdf:resource="http://purl.org/dc/dcmitype/StillImage"/>
    <dc:date>2023-10-01T15:20:56.509038</dc:date>
    <dc:format>image/svg+xml</dc:format>
    <dc:creator>
     <cc:Agent>
      <dc:title>Matplotlib v3.7.2, https://matplotlib.org/</dc:title>
     </cc:Agent>
    </dc:creator>
   </cc:Work>
  </rdf:RDF>
 </metadata>
 <defs>
  <style type="text/css">*{stroke-linejoin: round; stroke-linecap: butt}</style>
 </defs>
 <g id="figure_1">
  <g id="patch_1">
   <path d="M 0 345.6 
L 460.8 345.6 
L 460.8 0 
L 0 0 
z
" style="fill: #ffffff"/>
  </g>
  <g id="axes_1">
   <g id="patch_2">
    <path d="M 57.6 162.432 
L 414.72 162.432 
L 414.72 41.472 
L 57.6 41.472 
z
" style="fill: #ffffff"/>
   </g>
   <g id="matplotlib.axis_1">
    <g id="xtick_1">
     <g id="line2d_1">
      <defs>
       <path id="m5fe5582cdd" d="M 0 0 
L 0 3.5 
" style="stroke: #000000; stroke-width: 0.8"/>
      </defs>
      <g>
       <use xlink:href="#m5fe5582cdd" x="70.553388" y="162.432" style="stroke: #000000; stroke-width: 0.8"/>
      </g>
     </g>
    </g>
    <g id="xtick_2">
     <g id="line2d_2">
      <g>
       <use xlink:href="#m5fe5582cdd" x="136.140165" y="162.432" style="stroke: #000000; stroke-width: 0.8"/>
      </g>
     </g>
    </g>
    <g id="xtick_3">
     <g id="line2d_3">
      <g>
       <use xlink:href="#m5fe5582cdd" x="201.726942" y="162.432" style="stroke: #000000; stroke-width: 0.8"/>
      </g>
     </g>
    </g>
    <g id="xtick_4">
     <g id="line2d_4">
      <g>
       <use xlink:href="#m5fe5582cdd" x="267.313719" y="162.432" style="stroke: #000000; stroke-width: 0.8"/>
      </g>
     </g>
    </g>
    <g id="xtick_5">
     <g id="line2d_5">
      <g>
       <use xlink:href="#m5fe5582cdd" x="332.900496" y="162.432" style="stroke: #000000; stroke-width: 0.8"/>
      </g>
     </g>
    </g>
    <g id="xtick_6">
     <g id="line2d_6">
      <g>
       <use xlink:href="#m5fe5582cdd" x="398.487273" y="162.432" style="stroke: #000000; stroke-width: 0.8"/>
      </g>
     </g>
    </g>
   </g>
   <g id="matplotlib.axis_2">
    <g id="ytick_1">
     <g id="line2d_7">
      <defs>
       <path id="m2b6fe1637b" d="M 0 0 
L -3.5 0 
" style="stroke: #000000; stroke-width: 0.8"/>
      </defs>
      <g>
       <use xlink:href="#m2b6fe1637b" x="57.6" y="156.933818" style="stroke: #000000; stroke-width: 0.8"/>
      </g>
     </g>
     <g id="text_1">
      <!-- 0 -->
      <g transform="translate(44.2375 160.733037) scale(0.1 -0.1)">
       <defs>
        <path id="DejaVuSans-30" d="M 2034 4250 
Q 1547 4250 1301 3770 
Q 1056 3291 1056 2328 
Q 1056 1369 1301 889 
Q 1547 409 2034 409 
Q 2525 409 2770 889 
Q 3016 1369 3016 2328 
Q 3016 3291 2770 3770 
Q 2525 4250 2034 4250 
z
M 2034 4750 
Q 2819 4750 3233 4129 
Q 3647 3509 3647 2328 
Q 3647 1150 3233 529 
Q 2819 -91 2034 -91 
Q 1250 -91 836 529 
Q 422 1150 422 2328 
Q 422 3509 836 4129 
Q 1250 4750 2034 4750 
z
" transform="scale(0.015625)"/>
       </defs>
       <use xlink:href="#DejaVuSans-30"/>
      </g>
     </g>
    </g>
    <g id="ytick_2">
     <g id="line2d_8">
      <g>
       <use xlink:href="#m2b6fe1637b" x="57.6" y="121.627978" style="stroke: #000000; stroke-width: 0.8"/>
      </g>
     </g>
     <g id="text_2">
      <!-- 50 -->
      <g transform="translate(37.875 125.427197) scale(0.1 -0.1)">
       <defs>
        <path id="DejaVuSans-35" d="M 691 4666 
L 3169 4666 
L 3169 4134 
L 1269 4134 
L 1269 2991 
Q 1406 3038 1543 3061 
Q 1681 3084 1819 3084 
Q 2600 3084 3056 2656 
Q 3513 2228 3513 1497 
Q 3513 744 3044 326 
Q 2575 -91 1722 -91 
Q 1428 -91 1123 -41 
Q 819 9 494 109 
L 494 744 
Q 775 591 1075 516 
Q 1375 441 1709 441 
Q 2250 441 2565 725 
Q 2881 1009 2881 1497 
Q 2881 1984 2565 2268 
Q 2250 2553 1709 2553 
Q 1456 2553 1204 2497 
Q 953 2441 691 2322 
L 691 4666 
z
" transform="scale(0.015625)"/>
       </defs>
       <use xlink:href="#DejaVuSans-35"/>
       <use xlink:href="#DejaVuSans-30" x="63.623047"/>
      </g>
     </g>
    </g>
    <g id="ytick_3">
     <g id="line2d_9">
      <g>
       <use xlink:href="#m2b6fe1637b" x="57.6" y="86.322139" style="stroke: #000000; stroke-width: 0.8"/>
      </g>
     </g>
     <g id="text_3">
      <!-- 100 -->
      <g transform="translate(31.5125 90.121358) scale(0.1 -0.1)">
       <defs>
        <path id="DejaVuSans-31" d="M 794 531 
L 1825 531 
L 1825 4091 
L 703 3866 
L 703 4441 
L 1819 4666 
L 2450 4666 
L 2450 531 
L 3481 531 
L 3481 0 
L 794 0 
L 794 531 
z
" transform="scale(0.015625)"/>
       </defs>
       <use xlink:href="#DejaVuSans-31"/>
       <use xlink:href="#DejaVuSans-30" x="63.623047"/>
       <use xlink:href="#DejaVuSans-30" x="127.246094"/>
      </g>
     </g>
    </g>
    <g id="ytick_4">
     <g id="line2d_10">
      <g>
       <use xlink:href="#m2b6fe1637b" x="57.6" y="51.016299" style="stroke: #000000; stroke-width: 0.8"/>
      </g>
     </g>
     <g id="text_4">
      <!-- 150 -->
      <g transform="translate(31.5125 54.815518) scale(0.1 -0.1)">
       <use xlink:href="#DejaVuSans-31"/>
       <use xlink:href="#DejaVuSans-35" x="63.623047"/>
       <use xlink:href="#DejaVuSans-30" x="127.246094"/>
      </g>
     </g>
    </g>
    <g id="text_5">
     <!-- Speed (km/h) -->
     <g transform="translate(25.432812 135.737156) rotate(-90) scale(0.1 -0.1)">
      <defs>
       <path id="DejaVuSans-53" d="M 3425 4513 
L 3425 3897 
Q 3066 4069 2747 4153 
Q 2428 4238 2131 4238 
Q 1616 4238 1336 4038 
Q 1056 3838 1056 3469 
Q 1056 3159 1242 3001 
Q 1428 2844 1947 2747 
L 2328 2669 
Q 3034 2534 3370 2195 
Q 3706 1856 3706 1288 
Q 3706 609 3251 259 
Q 2797 -91 1919 -91 
Q 1588 -91 1214 -16 
Q 841 59 441 206 
L 441 856 
Q 825 641 1194 531 
Q 1563 422 1919 422 
Q 2459 422 2753 634 
Q 3047 847 3047 1241 
Q 3047 1584 2836 1778 
Q 2625 1972 2144 2069 
L 1759 2144 
Q 1053 2284 737 2584 
Q 422 2884 422 3419 
Q 422 4038 858 4394 
Q 1294 4750 2059 4750 
Q 2388 4750 2728 4690 
Q 3069 4631 3425 4513 
z
" transform="scale(0.015625)"/>
       <path id="DejaVuSans-70" d="M 1159 525 
L 1159 -1331 
L 581 -1331 
L 581 3500 
L 1159 3500 
L 1159 2969 
Q 1341 3281 1617 3432 
Q 1894 3584 2278 3584 
Q 2916 3584 3314 3078 
Q 3713 2572 3713 1747 
Q 3713 922 3314 415 
Q 2916 -91 2278 -91 
Q 1894 -91 1617 61 
Q 1341 213 1159 525 
z
M 3116 1747 
Q 3116 2381 2855 2742 
Q 2594 3103 2138 3103 
Q 1681 3103 1420 2742 
Q 1159 2381 1159 1747 
Q 1159 1113 1420 752 
Q 1681 391 2138 391 
Q 2594 391 2855 752 
Q 3116 1113 3116 1747 
z
" transform="scale(0.015625)"/>
       <path id="DejaVuSans-65" d="M 3597 1894 
L 3597 1613 
L 953 1613 
Q 991 1019 1311 708 
Q 1631 397 2203 397 
Q 2534 397 2845 478 
Q 3156 559 3463 722 
L 3463 178 
Q 3153 47 2828 -22 
Q 2503 -91 2169 -91 
Q 1331 -91 842 396 
Q 353 884 353 1716 
Q 353 2575 817 3079 
Q 1281 3584 2069 3584 
Q 2775 3584 3186 3129 
Q 3597 2675 3597 1894 
z
M 3022 2063 
Q 3016 2534 2758 2815 
Q 2500 3097 2075 3097 
Q 1594 3097 1305 2825 
Q 1016 2553 972 2059 
L 3022 2063 
z
" transform="scale(0.015625)"/>
       <path id="DejaVuSans-64" d="M 2906 2969 
L 2906 4863 
L 3481 4863 
L 3481 0 
L 2906 0 
L 2906 525 
Q 2725 213 2448 61 
Q 2172 -91 1784 -91 
Q 1150 -91 751 415 
Q 353 922 353 1747 
Q 353 2572 751 3078 
Q 1150 3584 1784 3584 
Q 2172 3584 2448 3432 
Q 2725 3281 2906 2969 
z
M 947 1747 
Q 947 1113 1208 752 
Q 1469 391 1925 391 
Q 2381 391 2643 752 
Q 2906 1113 2906 1747 
Q 2906 2381 2643 2742 
Q 2381 3103 1925 3103 
Q 1469 3103 1208 2742 
Q 947 2381 947 1747 
z
" transform="scale(0.015625)"/>
       <path id="DejaVuSans-20" transform="scale(0.015625)"/>
       <path id="DejaVuSans-28" d="M 1984 4856 
Q 1566 4138 1362 3434 
Q 1159 2731 1159 2009 
Q 1159 1288 1364 580 
Q 1569 -128 1984 -844 
L 1484 -844 
Q 1016 -109 783 600 
Q 550 1309 550 2009 
Q 550 2706 781 3412 
Q 1013 4119 1484 4856 
L 1984 4856 
z
" transform="scale(0.015625)"/>
       <path id="DejaVuSans-6b" d="M 581 4863 
L 1159 4863 
L 1159 1991 
L 2875 3500 
L 3609 3500 
L 1753 1863 
L 3688 0 
L 2938 0 
L 1159 1709 
L 1159 0 
L 581 0 
L 581 4863 
z
" transform="scale(0.015625)"/>
       <path id="DejaVuSans-6d" d="M 3328 2828 
Q 3544 3216 3844 3400 
Q 4144 3584 4550 3584 
Q 5097 3584 5394 3201 
Q 5691 2819 5691 2113 
L 5691 0 
L 5113 0 
L 5113 2094 
Q 5113 2597 4934 2840 
Q 4756 3084 4391 3084 
Q 3944 3084 3684 2787 
Q 3425 2491 3425 1978 
L 3425 0 
L 2847 0 
L 2847 2094 
Q 2847 2600 2669 2842 
Q 2491 3084 2119 3084 
Q 1678 3084 1418 2786 
Q 1159 2488 1159 1978 
L 1159 0 
L 581 0 
L 581 3500 
L 1159 3500 
L 1159 2956 
Q 1356 3278 1631 3431 
Q 1906 3584 2284 3584 
Q 2666 3584 2933 3390 
Q 3200 3197 3328 2828 
z
" transform="scale(0.015625)"/>
       <path id="DejaVuSans-2f" d="M 1625 4666 
L 2156 4666 
L 531 -594 
L 0 -594 
L 1625 4666 
z
" transform="scale(0.015625)"/>
       <path id="DejaVuSans-68" d="M 3513 2113 
L 3513 0 
L 2938 0 
L 2938 2094 
Q 2938 2591 2744 2837 
Q 2550 3084 2163 3084 
Q 1697 3084 1428 2787 
Q 1159 2491 1159 1978 
L 1159 0 
L 581 0 
L 581 4863 
L 1159 4863 
L 1159 2956 
Q 1366 3272 1645 3428 
Q 1925 3584 2291 3584 
Q 2894 3584 3203 3211 
Q 3513 2838 3513 2113 
z
" transform="scale(0.015625)"/>
       <path id="DejaVuSans-29" d="M 513 4856 
L 1013 4856 
Q 1481 4119 1714 3412 
Q 1947 2706 1947 2009 
Q 1947 1309 1714 600 
Q 1481 -109 1013 -844 
L 513 -844 
Q 928 -128 1133 580 
Q 1338 1288 1338 2009 
Q 1338 2731 1133 3434 
Q 928 4138 513 4856 
z
" transform="scale(0.015625)"/>
      </defs>
      <use xlink:href="#DejaVuSans-53"/>
      <use xlink:href="#DejaVuSans-70" x="63.476562"/>
      <use xlink:href="#DejaVuSans-65" x="126.953125"/>
      <use xlink:href="#DejaVuSans-65" x="188.476562"/>
      <use xlink:href="#DejaVuSans-64" x="250"/>
      <use xlink:href="#DejaVuSans-20" x="313.476562"/>
      <use xlink:href="#DejaVuSans-28" x="345.263672"/>
      <use xlink:href="#DejaVuSans-6b" x="384.277344"/>
      <use xlink:href="#DejaVuSans-6d" x="442.1875"/>
      <use xlink:href="#DejaVuSans-2f" x="539.599609"/>
      <use xlink:href="#DejaVuSans-68" x="573.291016"/>
      <use xlink:href="#DejaVuSans-29" x="636.669922"/>
     </g>
    </g>
   </g>
   <g id="line2d_11">
    <path d="M 73.832727 156.933818 
L 77.112066 155.469614 
L 80.391405 154.322528 
L 83.670744 153.175441 
L 86.950083 151.940582 
L 90.229421 150.592318 
L 93.50876 149.127357 
L 96.788099 147.544994 
L 100.067438 145.846748 
L 103.346777 144.036174 
L 106.626116 142.120152 
L 109.905455 140.108164 
L 113.184793 138.012872 
L 116.464132 135.850003 
L 119.743471 133.637713 
L 123.02281 131.396261 
L 126.302149 129.147378 
L 129.581488 126.913378 
L 132.860826 124.716377 
L 136.140165 122.57726 
L 139.419504 120.51505 
L 142.698843 118.546012 
L 145.978182 116.683895 
L 149.257521 114.938295 
L 152.53686 113.315993 
L 155.816198 111.82066 
L 159.095537 110.452369 
L 162.374876 109.45778 
L 165.654215 107.94915 
L 168.933554 106.497986 
L 172.212893 105.106703 
L 175.492231 103.777742 
L 178.77157 102.512017 
L 182.050909 101.310171 
L 185.330248 100.172685 
L 188.609587 99.098757 
L 191.888926 98.340603 
L 195.168264 97.12362 
L 198.447603 95.926719 
L 201.726942 94.750968 
L 205.006281 93.597373 
L 208.28562 92.466678 
L 211.564959 91.359738 
L 214.844298 90.277133 
L 218.123636 89.219576 
L 221.402975 88.187488 
L 224.682314 87.181446 
L 227.961653 86.201717 
L 231.240992 85.248488 
L 234.520331 84.321863 
L 237.799669 83.42215 
L 241.079008 82.54903 
L 244.358347 81.702676 
L 247.637686 80.882911 
L 250.917025 80.089491 
L 254.196364 79.468528 
L 257.475702 78.542964 
L 260.755041 77.629692 
L 264.03438 76.728984 
L 267.313719 75.840927 
L 270.593058 74.965926 
L 273.872397 74.104025 
L 277.151736 73.255608 
L 280.431074 72.420677 
L 283.710413 71.599401 
L 286.989752 70.791932 
L 290.269091 69.998409 
L 293.54843 69.218747 
L 296.827769 68.453259 
L 300.107107 67.701822 
L 303.386446 66.96451 
L 306.665785 66.241381 
L 309.945124 65.53225 
L 313.224463 64.837376 
L 316.503802 64.156541 
L 319.78314 63.489744 
L 323.062479 62.836971 
L 326.341818 62.348306 
L 329.621157 61.594561 
L 332.900496 60.845461 
L 336.179835 60.101135 
L 339.459174 59.361609 
L 342.738512 58.627007 
L 346.017851 57.897452 
L 349.29719 57.173067 
L 352.576529 56.453864 
L 355.855868 55.739961 
L 359.135207 55.031361 
L 362.414545 54.328175 
L 365.693884 53.630518 
L 368.973223 52.938379 
L 372.252562 52.251992 
L 375.531901 51.571213 
L 378.81124 50.896277 
L 382.090579 50.227158 
L 385.369917 49.563825 
L 388.649256 48.906376 
L 391.928595 48.254911 
L 395.207934 47.609528 
L 398.487273 46.970182 
" clip-path="url(#pc053aa7a64)" style="fill: none; stroke: #1f77b4; stroke-width: 1.5; stroke-linecap: square"/>
   </g>
   <g id="line2d_12">
    <path d="M 73.832727 156.933818 
L 77.112066 156.201716 
L 80.391405 155.628173 
L 83.670744 155.05463 
L 86.950083 154.481086 
L 90.229421 153.907543 
L 93.50876 153.3253 
L 96.788099 152.714922 
L 100.067438 152.075835 
L 103.346777 151.407581 
L 106.626116 150.709823 
L 109.905455 149.982349 
L 113.184793 149.224851 
L 116.464132 148.437626 
L 119.743471 147.620666 
L 123.02281 146.774138 
L 126.302149 145.898779 
L 129.581488 144.995095 
L 132.860826 144.064125 
L 136.140165 143.106889 
L 139.419504 142.124585 
L 142.698843 141.118721 
L 145.978182 140.090957 
L 149.257521 139.042995 
L 152.53686 137.977012 
L 155.816198 136.895106 
L 159.095537 135.799601 
L 162.374876 134.692995 
L 165.654215 133.577869 
L 168.933554 132.45691 
L 172.212893 131.33284 
L 175.492231 130.208455 
L 178.77157 129.086549 
L 182.050909 127.969917 
L 185.330248 126.861307 
L 188.609587 125.763361 
L 191.888926 124.678638 
L 195.168264 123.609705 
L 198.447603 122.558775 
L 201.726942 121.528019 
L 205.006281 120.519486 
L 208.28562 119.534967 
L 211.564959 118.575946 
L 214.844298 117.643886 
L 218.123636 116.740108 
L 221.402975 115.865407 
L 224.682314 115.020778 
L 227.961653 114.20666 
L 231.240992 113.423297 
L 234.520331 112.671216 
L 237.799669 111.95034 
L 241.079008 111.260421 
L 244.358347 110.733129 
L 247.637686 109.95657 
L 250.917025 109.193336 
L 254.196364 108.443849 
L 257.475702 107.708631 
L 260.755041 106.987898 
L 264.03438 106.281963 
L 267.313719 105.591102 
L 270.593058 104.91556 
L 273.872397 104.25538 
L 277.151736 103.610898 
L 280.431074 102.982084 
L 283.710413 102.36904 
L 286.989752 101.77184 
L 290.269091 101.190525 
L 293.54843 100.62511 
L 296.827769 100.07538 
L 300.107107 99.541284 
L 303.386446 99.152379 
L 306.665785 98.537611 
L 309.945124 97.92754 
L 313.224463 97.32242 
L 316.503802 96.722273 
L 319.78314 96.127272 
L 323.062479 95.537586 
L 326.341818 94.9533 
L 329.621157 94.374489 
L 332.900496 93.801313 
L 336.179835 93.233932 
L 339.459174 92.672311 
L 342.738512 92.116599 
L 346.017851 91.566947 
L 349.29719 91.023399 
L 352.576529 90.485991 
L 355.855868 89.954752 
L 359.135207 89.429817 
L 362.414545 88.911207 
L 365.693884 88.399051 
L 368.973223 87.89336 
L 372.252562 87.394137 
L 375.531901 86.901376 
L 378.81124 86.415196 
L 382.090579 85.935583 
L 385.369917 85.46265 
L 388.649256 84.996374 
L 391.928595 84.536727 
L 395.207934 84.083676 
L 398.487273 83.637318 
" clip-path="url(#pc053aa7a64)" style="fill: none; stroke: #ff7f0e; stroke-width: 1.5; stroke-linecap: square"/>
   </g>
   <g id="line2d_13">
    <path d="M 73.832727 156.933818 
L 77.112066 156.567767 
L 80.391405 156.280996 
L 83.670744 155.994224 
L 86.950083 155.707452 
L 90.229421 155.420681 
L 93.50876 155.133909 
L 96.788099 154.847137 
L 100.067438 154.560365 
L 103.346777 154.273594 
L 106.626116 153.986822 
L 109.905455 153.697661 
L 113.184793 153.401532 
L 116.464132 153.098251 
L 119.743471 152.787783 
L 123.02281 152.469961 
L 126.302149 152.144765 
L 129.581488 151.812179 
L 132.860826 151.472193 
L 136.140165 151.124805 
L 139.419504 150.769894 
L 142.698843 150.407354 
L 145.978182 150.03733 
L 149.257521 149.659732 
L 152.53686 149.274601 
L 155.816198 148.881872 
L 159.095537 148.481603 
L 162.374876 148.07386 
L 165.654215 147.658717 
L 168.933554 147.236155 
L 172.212893 146.806267 
L 175.492231 146.369157 
L 178.77157 145.924842 
L 182.050909 145.473446 
L 185.330248 145.015102 
L 188.609587 144.549951 
L 191.888926 144.078062 
L 195.168264 143.5996 
L 198.447603 143.114737 
L 201.726942 142.623657 
L 205.006281 142.12655 
L 208.28562 141.623618 
L 211.564959 141.115072 
L 214.844298 140.60113 
L 218.123636 140.082023 
L 221.402975 139.55799 
L 224.682314 139.02928 
L 227.961653 138.496151 
L 231.240992 137.958915 
L 234.520331 137.417844 
L 237.799669 136.873222 
L 241.079008 136.32534 
L 244.358347 135.774531 
L 247.637686 135.221126 
L 250.917025 134.665436 
L 254.196364 134.107781 
L 257.475702 133.548507 
L 260.755041 132.98796 
L 264.03438 132.426485 
L 267.313719 131.864429 
L 270.593058 131.302137 
L 273.872397 130.739958 
L 277.151736 130.178245 
L 280.431074 129.617342 
L 283.710413 129.057607 
L 286.989752 128.499376 
L 290.269091 127.942995 
L 293.54843 127.388787 
L 296.827769 126.837088 
L 300.107107 126.28824 
L 303.386446 125.742545 
L 306.665785 125.200335 
L 309.945124 124.661902 
L 313.224463 124.127525 
L 316.503802 123.597522 
L 319.78314 123.07216 
L 323.062479 122.551696 
L 326.341818 122.036376 
L 329.621157 121.526498 
L 332.900496 121.022232 
L 336.179835 120.523862 
L 339.459174 120.031531 
L 342.738512 119.545439 
L 346.017851 119.065774 
L 349.29719 118.592797 
L 352.576529 118.126518 
L 355.855868 117.667178 
L 359.135207 117.214933 
L 362.414545 116.769833 
L 365.693884 116.332008 
L 368.973223 115.901581 
L 372.252562 115.478565 
L 375.531901 115.063059 
L 378.81124 114.655155 
L 382.090579 114.254937 
L 385.369917 113.86237 
L 388.649256 113.477518 
L 391.928595 113.100321 
L 395.207934 112.730823 
L 398.487273 112.369061 
" clip-path="url(#pc053aa7a64)" style="fill: none; stroke: #2ca02c; stroke-width: 1.5; stroke-linecap: square"/>
   </g>
   <g id="patch_3">
    <path d="M 57.6 162.432 
L 57.6 41.472 
" style="fill: none; stroke: #000000; stroke-width: 0.8; stroke-linejoin: miter; stroke-linecap: square"/>
   </g>
   <g id="patch_4">
    <path d="M 414.72 162.432 
L 414.72 41.472 
" style="fill: none; stroke: #000000; stroke-width: 0.8; stroke-linejoin: miter; stroke-linecap: square"/>
   </g>
   <g id="patch_5">
    <path d="M 57.6 162.432 
L 414.72 162.432 
" style="fill: none; stroke: #000000; stroke-width: 0.8; stroke-linejoin: miter; stroke-linecap: square"/>
   </g>
   <g id="patch_6">
    <path d="M 57.6 41.472 
L 414.72 41.472 
" style="fill: none; stroke: #000000; stroke-width: 0.8; stroke-linejoin: miter; stroke-linecap: square"/>
   </g>
  </g>
  <g id="axes_2">
   <g id="patch_7">
    <path d="M 57.6 307.584 
L 414.72 307.584 
L 414.72 186.624 
L 57.6 186.624 
z
" style="fill: #ffffff"/>
   </g>
   <g id="matplotlib.axis_3">
    <g id="xtick_7">
     <g id="line2d_14">
      <g>
       <use xlink:href="#m5fe5582cdd" x="70.553388" y="307.584" style="stroke: #000000; stroke-width: 0.8"/>
      </g>
     </g>
     <g id="text_6">
      <!-- 0 -->
      <g transform="translate(67.372138 322.182437) scale(0.1 -0.1)">
       <use xlink:href="#DejaVuSans-30"/>
      </g>
     </g>
    </g>
    <g id="xtick_8">
     <g id="line2d_15">
      <g>
       <use xlink:href="#m5fe5582cdd" x="136.140165" y="307.584" style="stroke: #000000; stroke-width: 0.8"/>
      </g>
     </g>
     <g id="text_7">
      <!-- 2 -->
      <g transform="translate(132.958915 322.182437) scale(0.1 -0.1)">
       <defs>
        <path id="DejaVuSans-32" d="M 1228 531 
L 3431 531 
L 3431 0 
L 469 0 
L 469 531 
Q 828 903 1448 1529 
Q 2069 2156 2228 2338 
Q 2531 2678 2651 2914 
Q 2772 3150 2772 3378 
Q 2772 3750 2511 3984 
Q 2250 4219 1831 4219 
Q 1534 4219 1204 4116 
Q 875 4013 500 3803 
L 500 4441 
Q 881 4594 1212 4672 
Q 1544 4750 1819 4750 
Q 2544 4750 2975 4387 
Q 3406 4025 3406 3419 
Q 3406 3131 3298 2873 
Q 3191 2616 2906 2266 
Q 2828 2175 2409 1742 
Q 1991 1309 1228 531 
z
" transform="scale(0.015625)"/>
       </defs>
       <use xlink:href="#DejaVuSans-32"/>
      </g>
     </g>
    </g>
    <g id="xtick_9">
     <g id="line2d_16">
      <g>
       <use xlink:href="#m5fe5582cdd" x="201.726942" y="307.584" style="stroke: #000000; stroke-width: 0.8"/>
      </g>
     </g>
     <g id="text_8">
      <!-- 4 -->
      <g transform="translate(198.545692 322.182437) scale(0.1 -0.1)">
       <defs>
        <path id="DejaVuSans-34" d="M 2419 4116 
L 825 1625 
L 2419 1625 
L 2419 4116 
z
M 2253 4666 
L 3047 4666 
L 3047 1625 
L 3713 1625 
L 3713 1100 
L 3047 1100 
L 3047 0 
L 2419 0 
L 2419 1100 
L 313 1100 
L 313 1709 
L 2253 4666 
z
" transform="scale(0.015625)"/>
       </defs>
       <use xlink:href="#DejaVuSans-34"/>
      </g>
     </g>
    </g>
    <g id="xtick_10">
     <g id="line2d_17">
      <g>
       <use xlink:href="#m5fe5582cdd" x="267.313719" y="307.584" style="stroke: #000000; stroke-width: 0.8"/>
      </g>
     </g>
     <g id="text_9">
      <!-- 6 -->
      <g transform="translate(264.132469 322.182437) scale(0.1 -0.1)">
       <defs>
        <path id="DejaVuSans-36" d="M 2113 2584 
Q 1688 2584 1439 2293 
Q 1191 2003 1191 1497 
Q 1191 994 1439 701 
Q 1688 409 2113 409 
Q 2538 409 2786 701 
Q 3034 994 3034 1497 
Q 3034 2003 2786 2293 
Q 2538 2584 2113 2584 
z
M 3366 4563 
L 3366 3988 
Q 3128 4100 2886 4159 
Q 2644 4219 2406 4219 
Q 1781 4219 1451 3797 
Q 1122 3375 1075 2522 
Q 1259 2794 1537 2939 
Q 1816 3084 2150 3084 
Q 2853 3084 3261 2657 
Q 3669 2231 3669 1497 
Q 3669 778 3244 343 
Q 2819 -91 2113 -91 
Q 1303 -91 875 529 
Q 447 1150 447 2328 
Q 447 3434 972 4092 
Q 1497 4750 2381 4750 
Q 2619 4750 2861 4703 
Q 3103 4656 3366 4563 
z
" transform="scale(0.015625)"/>
       </defs>
       <use xlink:href="#DejaVuSans-36"/>
      </g>
     </g>
    </g>
    <g id="xtick_11">
     <g id="line2d_18">
      <g>
       <use xlink:href="#m5fe5582cdd" x="332.900496" y="307.584" style="stroke: #000000; stroke-width: 0.8"/>
      </g>
     </g>
     <g id="text_10">
      <!-- 8 -->
      <g transform="translate(329.719246 322.182437) scale(0.1 -0.1)">
       <defs>
        <path id="DejaVuSans-38" d="M 2034 2216 
Q 1584 2216 1326 1975 
Q 1069 1734 1069 1313 
Q 1069 891 1326 650 
Q 1584 409 2034 409 
Q 2484 409 2743 651 
Q 3003 894 3003 1313 
Q 3003 1734 2745 1975 
Q 2488 2216 2034 2216 
z
M 1403 2484 
Q 997 2584 770 2862 
Q 544 3141 544 3541 
Q 544 4100 942 4425 
Q 1341 4750 2034 4750 
Q 2731 4750 3128 4425 
Q 3525 4100 3525 3541 
Q 3525 3141 3298 2862 
Q 3072 2584 2669 2484 
Q 3125 2378 3379 2068 
Q 3634 1759 3634 1313 
Q 3634 634 3220 271 
Q 2806 -91 2034 -91 
Q 1263 -91 848 271 
Q 434 634 434 1313 
Q 434 1759 690 2068 
Q 947 2378 1403 2484 
z
M 1172 3481 
Q 1172 3119 1398 2916 
Q 1625 2713 2034 2713 
Q 2441 2713 2670 2916 
Q 2900 3119 2900 3481 
Q 2900 3844 2670 4047 
Q 2441 4250 2034 4250 
Q 1625 4250 1398 4047 
Q 1172 3844 1172 3481 
z
" transform="scale(0.015625)"/>
       </defs>
       <use xlink:href="#DejaVuSans-38"/>
      </g>
     </g>
    </g>
    <g id="xtick_12">
     <g id="line2d_19">
      <g>
       <use xlink:href="#m5fe5582cdd" x="398.487273" y="307.584" style="stroke: #000000; stroke-width: 0.8"/>
      </g>
     </g>
     <g id="text_11">
      <!-- 10 -->
      <g transform="translate(392.124773 322.182437) scale(0.1 -0.1)">
       <use xlink:href="#DejaVuSans-31"/>
       <use xlink:href="#DejaVuSans-30" x="63.623047"/>
      </g>
     </g>
    </g>
    <g id="text_12">
     <!-- Time (s) -->
     <g transform="translate(215.831094 335.860562) scale(0.1 -0.1)">
      <defs>
       <path id="DejaVuSans-54" d="M -19 4666 
L 3928 4666 
L 3928 4134 
L 2272 4134 
L 2272 0 
L 1638 0 
L 1638 4134 
L -19 4134 
L -19 4666 
z
" transform="scale(0.015625)"/>
       <path id="DejaVuSans-69" d="M 603 3500 
L 1178 3500 
L 1178 0 
L 603 0 
L 603 3500 
z
M 603 4863 
L 1178 4863 
L 1178 4134 
L 603 4134 
L 603 4863 
z
" transform="scale(0.015625)"/>
       <path id="DejaVuSans-73" d="M 2834 3397 
L 2834 2853 
Q 2591 2978 2328 3040 
Q 2066 3103 1784 3103 
Q 1356 3103 1142 2972 
Q 928 2841 928 2578 
Q 928 2378 1081 2264 
Q 1234 2150 1697 2047 
L 1894 2003 
Q 2506 1872 2764 1633 
Q 3022 1394 3022 966 
Q 3022 478 2636 193 
Q 2250 -91 1575 -91 
Q 1294 -91 989 -36 
Q 684 19 347 128 
L 347 722 
Q 666 556 975 473 
Q 1284 391 1588 391 
Q 1994 391 2212 530 
Q 2431 669 2431 922 
Q 2431 1156 2273 1281 
Q 2116 1406 1581 1522 
L 1381 1569 
Q 847 1681 609 1914 
Q 372 2147 372 2553 
Q 372 3047 722 3315 
Q 1072 3584 1716 3584 
Q 2034 3584 2315 3537 
Q 2597 3491 2834 3397 
z
" transform="scale(0.015625)"/>
      </defs>
      <use xlink:href="#DejaVuSans-54"/>
      <use xlink:href="#DejaVuSans-69" x="57.958984"/>
      <use xlink:href="#DejaVuSans-6d" x="85.742188"/>
      <use xlink:href="#DejaVuSans-65" x="183.154297"/>
      <use xlink:href="#DejaVuSans-20" x="244.677734"/>
      <use xlink:href="#DejaVuSans-28" x="276.464844"/>
      <use xlink:href="#DejaVuSans-73" x="315.478516"/>
      <use xlink:href="#DejaVuSans-29" x="367.578125"/>
     </g>
    </g>
   </g>
   <g id="matplotlib.axis_4">
    <g id="ytick_5">
     <g id="line2d_20">
      <g>
       <use xlink:href="#m2b6fe1637b" x="57.6" y="280.521502" style="stroke: #000000; stroke-width: 0.8"/>
      </g>
     </g>
     <g id="text_13">
      <!-- 2000 -->
      <g transform="translate(25.15 284.320721) scale(0.1 -0.1)">
       <use xlink:href="#DejaVuSans-32"/>
       <use xlink:href="#DejaVuSans-30" x="63.623047"/>
       <use xlink:href="#DejaVuSans-30" x="127.246094"/>
       <use xlink:href="#DejaVuSans-30" x="190.869141"/>
      </g>
     </g>
    </g>
    <g id="ytick_6">
     <g id="line2d_21">
      <g>
       <use xlink:href="#m2b6fe1637b" x="57.6" y="251.76908" style="stroke: #000000; stroke-width: 0.8"/>
      </g>
     </g>
     <g id="text_14">
      <!-- 4000 -->
      <g transform="translate(25.15 255.568299) scale(0.1 -0.1)">
       <use xlink:href="#DejaVuSans-34"/>
       <use xlink:href="#DejaVuSans-30" x="63.623047"/>
       <use xlink:href="#DejaVuSans-30" x="127.246094"/>
       <use xlink:href="#DejaVuSans-30" x="190.869141"/>
      </g>
     </g>
    </g>
    <g id="ytick_7">
     <g id="line2d_22">
      <g>
       <use xlink:href="#m2b6fe1637b" x="57.6" y="223.016659" style="stroke: #000000; stroke-width: 0.8"/>
      </g>
     </g>
     <g id="text_15">
      <!-- 6000 -->
      <g transform="translate(25.15 226.815878) scale(0.1 -0.1)">
       <use xlink:href="#DejaVuSans-36"/>
       <use xlink:href="#DejaVuSans-30" x="63.623047"/>
       <use xlink:href="#DejaVuSans-30" x="127.246094"/>
       <use xlink:href="#DejaVuSans-30" x="190.869141"/>
      </g>
     </g>
    </g>
    <g id="ytick_8">
     <g id="line2d_23">
      <g>
       <use xlink:href="#m2b6fe1637b" x="57.6" y="194.264237" style="stroke: #000000; stroke-width: 0.8"/>
      </g>
     </g>
     <g id="text_16">
      <!-- 8000 -->
      <g transform="translate(25.15 198.063456) scale(0.1 -0.1)">
       <use xlink:href="#DejaVuSans-38"/>
       <use xlink:href="#DejaVuSans-30" x="63.623047"/>
       <use xlink:href="#DejaVuSans-30" x="127.246094"/>
       <use xlink:href="#DejaVuSans-30" x="190.869141"/>
      </g>
     </g>
    </g>
    <g id="text_17">
     <!-- RPM -->
     <g transform="translate(19.070312 257.907125) rotate(-90) scale(0.1 -0.1)">
      <defs>
       <path id="DejaVuSans-52" d="M 2841 2188 
Q 3044 2119 3236 1894 
Q 3428 1669 3622 1275 
L 4263 0 
L 3584 0 
L 2988 1197 
Q 2756 1666 2539 1819 
Q 2322 1972 1947 1972 
L 1259 1972 
L 1259 0 
L 628 0 
L 628 4666 
L 2053 4666 
Q 2853 4666 3247 4331 
Q 3641 3997 3641 3322 
Q 3641 2881 3436 2590 
Q 3231 2300 2841 2188 
z
M 1259 4147 
L 1259 2491 
L 2053 2491 
Q 2509 2491 2742 2702 
Q 2975 2913 2975 3322 
Q 2975 3731 2742 3939 
Q 2509 4147 2053 4147 
L 1259 4147 
z
" transform="scale(0.015625)"/>
       <path id="DejaVuSans-50" d="M 1259 4147 
L 1259 2394 
L 2053 2394 
Q 2494 2394 2734 2622 
Q 2975 2850 2975 3272 
Q 2975 3691 2734 3919 
Q 2494 4147 2053 4147 
L 1259 4147 
z
M 628 4666 
L 2053 4666 
Q 2838 4666 3239 4311 
Q 3641 3956 3641 3272 
Q 3641 2581 3239 2228 
Q 2838 1875 2053 1875 
L 1259 1875 
L 1259 0 
L 628 0 
L 628 4666 
z
" transform="scale(0.015625)"/>
       <path id="DejaVuSans-4d" d="M 628 4666 
L 1569 4666 
L 2759 1491 
L 3956 4666 
L 4897 4666 
L 4897 0 
L 4281 0 
L 4281 4097 
L 3078 897 
L 2444 897 
L 1241 4097 
L 1241 0 
L 628 0 
L 628 4666 
z
" transform="scale(0.015625)"/>
      </defs>
      <use xlink:href="#DejaVuSans-52"/>
      <use xlink:href="#DejaVuSans-50" x="69.482422"/>
      <use xlink:href="#DejaVuSans-4d" x="129.785156"/>
     </g>
    </g>
   </g>
   <g id="line2d_24">
    <path d="M 73.832727 280.521502 
L 77.112066 302.085818 
L 80.391405 302.085818 
L 83.670744 299.800001 
L 86.950083 296.694739 
L 90.229421 293.287577 
L 93.50876 289.592891 
L 96.788099 285.610681 
L 100.067438 281.32657 
L 103.346777 276.769311 
L 106.626116 271.938904 
L 109.905455 266.864102 
L 113.184793 261.588032 
L 116.464132 256.139448 
L 119.743471 250.561479 
L 123.02281 244.911628 
L 126.302149 239.247401 
L 129.581488 233.611926 
L 132.860826 228.077085 
L 136.140165 222.686006 
L 139.419504 217.496194 
L 142.698843 212.522025 
L 145.978182 207.83538 
L 149.257521 203.43626 
L 152.53686 199.33904 
L 155.816198 195.572472 
L 159.095537 192.122182 
L 162.374876 213.557112 
L 165.654215 210.509355 
L 168.933554 207.590985 
L 172.212893 204.773247 
L 175.492231 202.099272 
L 178.77157 199.554683 
L 182.050909 197.125103 
L 185.330248 194.839286 
L 188.609587 192.668478 
L 191.888926 220.673336 
L 195.168264 218.833181 
L 198.447603 217.021779 
L 201.726942 215.239129 
L 205.006281 213.499607 
L 208.28562 211.788838 
L 211.564959 210.121198 
L 214.844298 208.48231 
L 218.123636 206.88655 
L 221.402975 205.319543 
L 224.682314 203.795665 
L 227.961653 202.314915 
L 231.240992 200.877294 
L 234.520331 199.468426 
L 237.799669 198.117062 
L 241.079008 196.79445 
L 244.358347 195.514968 
L 247.637686 194.278613 
L 250.917025 193.071012 
L 254.196364 214.448437 
L 257.475702 213.312717 
L 260.755041 212.191372 
L 264.03438 211.09878 
L 267.313719 210.006188 
L 270.593058 208.942348 
L 273.872397 207.878509 
L 277.151736 206.843422 
L 280.431074 205.822711 
L 283.710413 204.816376 
L 286.989752 203.824417 
L 290.269091 202.861211 
L 293.54843 201.898005 
L 296.827769 200.963551 
L 300.107107 200.043474 
L 303.386446 199.137773 
L 306.665785 198.260824 
L 309.945124 197.383875 
L 313.224463 196.535679 
L 316.503802 195.701858 
L 319.78314 194.882414 
L 323.062479 194.091723 
L 326.341818 220.730841 
L 329.621157 220.026407 
L 332.900496 219.321973 
L 336.179835 218.631915 
L 339.459174 217.941856 
L 342.738512 217.251798 
L 346.017851 216.56174 
L 349.29719 215.886058 
L 352.576529 215.210376 
L 355.855868 214.549071 
L 359.135207 213.887765 
L 362.414545 213.226459 
L 365.693884 212.57953 
L 368.973223 211.918224 
L 372.252562 211.285671 
L 375.531901 210.638741 
L 378.81124 210.006188 
L 382.090579 209.388011 
L 385.369917 208.769834 
L 388.649256 208.151657 
L 391.928595 207.53348 
L 395.207934 206.929679 
L 398.487273 206.340254 
" clip-path="url(#pf7eb76c9e4)" style="fill: none; stroke: #1f77b4; stroke-width: 1.5; stroke-linecap: square"/>
   </g>
   <g id="line2d_25">
    <path d="M 73.832727 280.521502 
L 77.112066 302.085818 
L 80.391405 302.085818 
L 83.670744 302.085818 
L 86.950083 302.085818 
L 90.229421 301.640156 
L 93.50876 300.173782 
L 96.788099 298.635528 
L 100.067438 297.025392 
L 103.346777 295.343375 
L 106.626116 293.589478 
L 109.905455 291.749323 
L 113.184793 289.851663 
L 116.464132 287.867746 
L 119.743471 285.797571 
L 123.02281 283.669892 
L 126.302149 281.455956 
L 129.581488 279.184514 
L 132.860826 276.841192 
L 136.140165 274.425989 
L 139.419504 271.95328 
L 142.698843 269.423067 
L 145.978182 266.820973 
L 149.257521 264.190127 
L 152.53686 261.501775 
L 155.816198 258.770295 
L 159.095537 256.010063 
L 162.374876 253.221078 
L 165.654215 250.417717 
L 168.933554 247.585603 
L 172.212893 244.75349 
L 175.492231 241.921376 
L 178.77157 239.089262 
L 182.050909 236.271525 
L 185.330248 233.48254 
L 188.609587 230.722308 
L 191.888926 227.976452 
L 195.168264 225.2881 
L 198.447603 222.642877 
L 201.726942 220.040783 
L 205.006281 217.496194 
L 208.28562 215.023486 
L 211.564959 212.608282 
L 214.844298 210.250584 
L 218.123636 207.979142 
L 221.402975 205.765206 
L 224.682314 203.637527 
L 227.961653 201.596105 
L 231.240992 199.612188 
L 234.520331 197.714528 
L 237.799669 195.903125 
L 241.079008 194.163604 
L 244.358347 216.130454 
L 247.637686 214.563447 
L 250.917025 213.025192 
L 254.196364 211.501314 
L 257.475702 210.020564 
L 260.755041 208.568567 
L 264.03438 207.145322 
L 267.313719 205.75083 
L 270.593058 204.399466 
L 273.872397 203.062478 
L 277.151736 201.768619 
L 280.431074 200.503513 
L 283.710413 199.267159 
L 286.989752 198.059557 
L 290.269091 196.880708 
L 293.54843 195.744987 
L 296.827769 194.638019 
L 300.107107 193.559803 
L 303.386446 221.895314 
L 306.665785 220.975237 
L 309.945124 220.040783 
L 313.224463 219.135082 
L 316.503802 218.229381 
L 319.78314 217.323679 
L 323.062479 216.432354 
L 326.341818 215.555405 
L 329.621157 214.678457 
L 332.900496 213.801508 
L 336.179835 212.953311 
L 339.459174 212.105115 
L 342.738512 211.256918 
L 346.017851 210.423098 
L 349.29719 209.603654 
L 352.576529 208.798586 
L 355.855868 207.993519 
L 359.135207 207.202827 
L 362.414545 206.412135 
L 365.693884 205.63582 
L 368.973223 204.873881 
L 372.252562 204.126318 
L 375.531901 203.378755 
L 378.81124 202.645568 
L 382.090579 201.912381 
L 385.369917 201.193571 
L 388.649256 200.489137 
L 391.928595 199.799078 
L 395.207934 199.10902 
L 398.487273 198.433338 
" clip-path="url(#pf7eb76c9e4)" style="fill: none; stroke: #ff7f0e; stroke-width: 1.5; stroke-linecap: square"/>
   </g>
   <g id="line2d_26">
    <path d="M 73.832727 280.521502 
L 77.112066 302.085818 
L 80.391405 302.085818 
L 83.670744 302.085818 
L 86.950083 302.085818 
L 90.229421 302.085818 
L 93.50876 302.085818 
L 96.788099 302.085818 
L 100.067438 302.085818 
L 103.346777 302.085818 
L 106.626116 301.841423 
L 109.905455 301.122612 
L 113.184793 300.375049 
L 116.464132 299.61311 
L 119.743471 298.822418 
L 123.02281 298.017351 
L 126.302149 297.197907 
L 129.581488 296.364086 
L 132.860826 295.51589 
L 136.140165 294.638941 
L 139.419504 293.73324 
L 142.698843 292.827538 
L 145.978182 291.893085 
L 149.257521 290.944255 
L 152.53686 289.966672 
L 155.816198 288.974714 
L 159.095537 287.968379 
L 162.374876 286.947668 
L 165.654215 285.898205 
L 168.933554 284.834365 
L 172.212893 283.756149 
L 175.492231 282.649181 
L 178.77157 281.527837 
L 182.050909 280.392116 
L 185.330248 279.242019 
L 188.609587 278.06317 
L 191.888926 276.869944 
L 195.168264 275.662343 
L 198.447603 274.440365 
L 201.726942 273.204011 
L 205.006281 271.95328 
L 208.28562 270.688174 
L 211.564959 269.408691 
L 214.844298 268.114832 
L 218.123636 266.806597 
L 221.402975 265.483986 
L 224.682314 264.146998 
L 227.961653 262.81001 
L 231.240992 261.458646 
L 234.520331 260.092906 
L 237.799669 258.71279 
L 241.079008 257.332674 
L 244.358347 255.952558 
L 247.637686 254.558065 
L 250.917025 253.149197 
L 254.196364 251.740328 
L 257.475702 250.331459 
L 260.755041 248.922591 
L 264.03438 247.513722 
L 267.313719 246.090477 
L 270.593058 244.681608 
L 273.872397 243.258364 
L 277.151736 241.849495 
L 280.431074 240.42625 
L 283.710413 239.017381 
L 286.989752 237.608513 
L 290.269091 236.21402 
L 293.54843 234.819528 
L 296.827769 233.425035 
L 300.107107 232.044919 
L 303.386446 230.664803 
L 306.665785 229.299063 
L 309.945124 227.947699 
L 313.224463 226.596335 
L 316.503802 225.259348 
L 319.78314 223.936736 
L 323.062479 222.628501 
L 326.341818 221.320266 
L 329.621157 220.040783 
L 332.900496 218.7613 
L 336.179835 217.51057 
L 339.459174 216.274216 
L 342.738512 215.052238 
L 346.017851 213.83026 
L 349.29719 212.651411 
L 352.576529 211.472562 
L 355.855868 210.308088 
L 359.135207 209.172368 
L 362.414545 208.051023 
L 365.693884 206.944055 
L 368.973223 205.865839 
L 372.252562 204.802 
L 375.531901 203.752536 
L 378.81124 202.717449 
L 382.090579 201.711114 
L 385.369917 200.719156 
L 388.649256 199.75595 
L 391.928595 198.80712 
L 395.207934 197.872666 
L 398.487273 196.952589 
" clip-path="url(#pf7eb76c9e4)" style="fill: none; stroke: #2ca02c; stroke-width: 1.5; stroke-linecap: square"/>
   </g>
   <g id="patch_8">
    <path d="M 57.6 307.584 
L 57.6 186.624 
" style="fill: none; stroke: #000000; stroke-width: 0.8; stroke-linejoin: miter; stroke-linecap: square"/>
   </g>
   <g id="patch_9">
    <path d="M 414.72 307.584 
L 414.72 186.624 
" style="fill: none; stroke: #000000; stroke-width: 0.8; stroke-linejoin: miter; stroke-linecap: square"/>
   </g>
   <g id="patch_10">
    <path d="M 57.6 307.584 
L 414.72 307.584 
" style="fill: none; stroke: #000000; stroke-width: 0.8; stroke-linejoin: miter; stroke-linecap: square"/>
   </g>
   <g id="patch_11">
    <path d="M 57.6 186.624 
L 414.72 186.624 
" style="fill: none; stroke: #000000; stroke-width: 0.8; stroke-linejoin: miter; stroke-linecap: square"/>
   </g>
  </g>
  <g id="text_18">
   <!-- Performance for a simulated engine with different throttle input -->
   <g transform="translate(39.14625 16.030125) scale(0.12 -0.12)">
    <defs>
     <path id="DejaVuSans-72" d="M 2631 2963 
Q 2534 3019 2420 3045 
Q 2306 3072 2169 3072 
Q 1681 3072 1420 2755 
Q 1159 2438 1159 1844 
L 1159 0 
L 581 0 
L 581 3500 
L 1159 3500 
L 1159 2956 
Q 1341 3275 1631 3429 
Q 1922 3584 2338 3584 
Q 2397 3584 2469 3576 
Q 2541 3569 2628 3553 
L 2631 2963 
z
" transform="scale(0.015625)"/>
     <path id="DejaVuSans-66" d="M 2375 4863 
L 2375 4384 
L 1825 4384 
Q 1516 4384 1395 4259 
Q 1275 4134 1275 3809 
L 1275 3500 
L 2222 3500 
L 2222 3053 
L 1275 3053 
L 1275 0 
L 697 0 
L 697 3053 
L 147 3053 
L 147 3500 
L 697 3500 
L 697 3744 
Q 697 4328 969 4595 
Q 1241 4863 1831 4863 
L 2375 4863 
z
" transform="scale(0.015625)"/>
     <path id="DejaVuSans-6f" d="M 1959 3097 
Q 1497 3097 1228 2736 
Q 959 2375 959 1747 
Q 959 1119 1226 758 
Q 1494 397 1959 397 
Q 2419 397 2687 759 
Q 2956 1122 2956 1747 
Q 2956 2369 2687 2733 
Q 2419 3097 1959 3097 
z
M 1959 3584 
Q 2709 3584 3137 3096 
Q 3566 2609 3566 1747 
Q 3566 888 3137 398 
Q 2709 -91 1959 -91 
Q 1206 -91 779 398 
Q 353 888 353 1747 
Q 353 2609 779 3096 
Q 1206 3584 1959 3584 
z
" transform="scale(0.015625)"/>
     <path id="DejaVuSans-61" d="M 2194 1759 
Q 1497 1759 1228 1600 
Q 959 1441 959 1056 
Q 959 750 1161 570 
Q 1363 391 1709 391 
Q 2188 391 2477 730 
Q 2766 1069 2766 1631 
L 2766 1759 
L 2194 1759 
z
M 3341 1997 
L 3341 0 
L 2766 0 
L 2766 531 
Q 2569 213 2275 61 
Q 1981 -91 1556 -91 
Q 1019 -91 701 211 
Q 384 513 384 1019 
Q 384 1609 779 1909 
Q 1175 2209 1959 2209 
L 2766 2209 
L 2766 2266 
Q 2766 2663 2505 2880 
Q 2244 3097 1772 3097 
Q 1472 3097 1187 3025 
Q 903 2953 641 2809 
L 641 3341 
Q 956 3463 1253 3523 
Q 1550 3584 1831 3584 
Q 2591 3584 2966 3190 
Q 3341 2797 3341 1997 
z
" transform="scale(0.015625)"/>
     <path id="DejaVuSans-6e" d="M 3513 2113 
L 3513 0 
L 2938 0 
L 2938 2094 
Q 2938 2591 2744 2837 
Q 2550 3084 2163 3084 
Q 1697 3084 1428 2787 
Q 1159 2491 1159 1978 
L 1159 0 
L 581 0 
L 581 3500 
L 1159 3500 
L 1159 2956 
Q 1366 3272 1645 3428 
Q 1925 3584 2291 3584 
Q 2894 3584 3203 3211 
Q 3513 2838 3513 2113 
z
" transform="scale(0.015625)"/>
     <path id="DejaVuSans-63" d="M 3122 3366 
L 3122 2828 
Q 2878 2963 2633 3030 
Q 2388 3097 2138 3097 
Q 1578 3097 1268 2742 
Q 959 2388 959 1747 
Q 959 1106 1268 751 
Q 1578 397 2138 397 
Q 2388 397 2633 464 
Q 2878 531 3122 666 
L 3122 134 
Q 2881 22 2623 -34 
Q 2366 -91 2075 -91 
Q 1284 -91 818 406 
Q 353 903 353 1747 
Q 353 2603 823 3093 
Q 1294 3584 2113 3584 
Q 2378 3584 2631 3529 
Q 2884 3475 3122 3366 
z
" transform="scale(0.015625)"/>
     <path id="DejaVuSans-75" d="M 544 1381 
L 544 3500 
L 1119 3500 
L 1119 1403 
Q 1119 906 1312 657 
Q 1506 409 1894 409 
Q 2359 409 2629 706 
Q 2900 1003 2900 1516 
L 2900 3500 
L 3475 3500 
L 3475 0 
L 2900 0 
L 2900 538 
Q 2691 219 2414 64 
Q 2138 -91 1772 -91 
Q 1169 -91 856 284 
Q 544 659 544 1381 
z
M 1991 3584 
L 1991 3584 
z
" transform="scale(0.015625)"/>
     <path id="DejaVuSans-6c" d="M 603 4863 
L 1178 4863 
L 1178 0 
L 603 0 
L 603 4863 
z
" transform="scale(0.015625)"/>
     <path id="DejaVuSans-74" d="M 1172 4494 
L 1172 3500 
L 2356 3500 
L 2356 3053 
L 1172 3053 
L 1172 1153 
Q 1172 725 1289 603 
Q 1406 481 1766 481 
L 2356 481 
L 2356 0 
L 1766 0 
Q 1100 0 847 248 
Q 594 497 594 1153 
L 594 3053 
L 172 3053 
L 172 3500 
L 594 3500 
L 594 4494 
L 1172 4494 
z
" transform="scale(0.015625)"/>
     <path id="DejaVuSans-67" d="M 2906 1791 
Q 2906 2416 2648 2759 
Q 2391 3103 1925 3103 
Q 1463 3103 1205 2759 
Q 947 2416 947 1791 
Q 947 1169 1205 825 
Q 1463 481 1925 481 
Q 2391 481 2648 825 
Q 2906 1169 2906 1791 
z
M 3481 434 
Q 3481 -459 3084 -895 
Q 2688 -1331 1869 -1331 
Q 1566 -1331 1297 -1286 
Q 1028 -1241 775 -1147 
L 775 -588 
Q 1028 -725 1275 -790 
Q 1522 -856 1778 -856 
Q 2344 -856 2625 -561 
Q 2906 -266 2906 331 
L 2906 616 
Q 2728 306 2450 153 
Q 2172 0 1784 0 
Q 1141 0 747 490 
Q 353 981 353 1791 
Q 353 2603 747 3093 
Q 1141 3584 1784 3584 
Q 2172 3584 2450 3431 
Q 2728 3278 2906 2969 
L 2906 3500 
L 3481 3500 
L 3481 434 
z
" transform="scale(0.015625)"/>
     <path id="DejaVuSans-77" d="M 269 3500 
L 844 3500 
L 1563 769 
L 2278 3500 
L 2956 3500 
L 3675 769 
L 4391 3500 
L 4966 3500 
L 4050 0 
L 3372 0 
L 2619 2869 
L 1863 0 
L 1184 0 
L 269 3500 
z
" transform="scale(0.015625)"/>
    </defs>
    <use xlink:href="#DejaVuSans-50"/>
    <use xlink:href="#DejaVuSans-65" x="56.677734"/>
    <use xlink:href="#DejaVuSans-72" x="118.201172"/>
    <use xlink:href="#DejaVuSans-66" x="159.314453"/>
    <use xlink:href="#DejaVuSans-6f" x="194.519531"/>
    <use xlink:href="#DejaVuSans-72" x="255.701172"/>
    <use xlink:href="#DejaVuSans-6d" x="295.064453"/>
    <use xlink:href="#DejaVuSans-61" x="392.476562"/>
    <use xlink:href="#DejaVuSans-6e" x="453.755859"/>
    <use xlink:href="#DejaVuSans-63" x="517.134766"/>
    <use xlink:href="#DejaVuSans-65" x="572.115234"/>
    <use xlink:href="#DejaVuSans-20" x="633.638672"/>
    <use xlink:href="#DejaVuSans-66" x="665.425781"/>
    <use xlink:href="#DejaVuSans-6f" x="700.630859"/>
    <use xlink:href="#DejaVuSans-72" x="761.8125"/>
    <use xlink:href="#DejaVuSans-20" x="802.925781"/>
    <use xlink:href="#DejaVuSans-61" x="834.712891"/>
    <use xlink:href="#DejaVuSans-20" x="895.992188"/>
    <use xlink:href="#DejaVuSans-73" x="927.779297"/>
    <use xlink:href="#DejaVuSans-69" x="979.878906"/>
    <use xlink:href="#DejaVuSans-6d" x="1007.662109"/>
    <use xlink:href="#DejaVuSans-75" x="1105.074219"/>
    <use xlink:href="#DejaVuSans-6c" x="1168.453125"/>
    <use xlink:href="#DejaVuSans-61" x="1196.236328"/>
    <use xlink:href="#DejaVuSans-74" x="1257.515625"/>
    <use xlink:href="#DejaVuSans-65" x="1296.724609"/>
    <use xlink:href="#DejaVuSans-64" x="1358.248047"/>
    <use xlink:href="#DejaVuSans-20" x="1421.724609"/>
    <use xlink:href="#DejaVuSans-65" x="1453.511719"/>
    <use xlink:href="#DejaVuSans-6e" x="1515.035156"/>
    <use xlink:href="#DejaVuSans-67" x="1578.414062"/>
    <use xlink:href="#DejaVuSans-69" x="1641.890625"/>
    <use xlink:href="#DejaVuSans-6e" x="1669.673828"/>
    <use xlink:href="#DejaVuSans-65" x="1733.052734"/>
    <use xlink:href="#DejaVuSans-20" x="1794.576172"/>
    <use xlink:href="#DejaVuSans-77" x="1826.363281"/>
    <use xlink:href="#DejaVuSans-69" x="1908.150391"/>
    <use xlink:href="#DejaVuSans-74" x="1935.933594"/>
    <use xlink:href="#DejaVuSans-68" x="1975.142578"/>
    <use xlink:href="#DejaVuSans-20" x="2038.521484"/>
    <use xlink:href="#DejaVuSans-64" x="2070.308594"/>
    <use xlink:href="#DejaVuSans-69" x="2133.785156"/>
    <use xlink:href="#DejaVuSans-66" x="2161.568359"/>
    <use xlink:href="#DejaVuSans-66" x="2196.773438"/>
    <use xlink:href="#DejaVuSans-65" x="2231.978516"/>
    <use xlink:href="#DejaVuSans-72" x="2293.501953"/>
    <use xlink:href="#DejaVuSans-65" x="2332.365234"/>
    <use xlink:href="#DejaVuSans-6e" x="2393.888672"/>
    <use xlink:href="#DejaVuSans-74" x="2457.267578"/>
    <use xlink:href="#DejaVuSans-20" x="2496.476562"/>
    <use xlink:href="#DejaVuSans-74" x="2528.263672"/>
    <use xlink:href="#DejaVuSans-68" x="2567.472656"/>
    <use xlink:href="#DejaVuSans-72" x="2630.851562"/>
    <use xlink:href="#DejaVuSans-6f" x="2669.714844"/>
    <use xlink:href="#DejaVuSans-74" x="2730.896484"/>
    <use xlink:href="#DejaVuSans-74" x="2770.105469"/>
    <use xlink:href="#DejaVuSans-6c" x="2809.314453"/>
    <use xlink:href="#DejaVuSans-65" x="2837.097656"/>
    <use xlink:href="#DejaVuSans-20" x="2898.621094"/>
    <use xlink:href="#DejaVuSans-69" x="2930.408203"/>
    <use xlink:href="#DejaVuSans-6e" x="2958.191406"/>
    <use xlink:href="#DejaVuSans-70" x="3021.570312"/>
    <use xlink:href="#DejaVuSans-75" x="3085.046875"/>
    <use xlink:href="#DejaVuSans-74" x="3148.425781"/>
   </g>
  </g>
  <g id="legend_1">
   <g id="patch_12">
    <path d="M 462.330937 86.594375 
L 522.92 86.594375 
Q 524.92 86.594375 524.92 84.594375 
L 524.92 41.56 
Q 524.92 39.56 522.92 39.56 
L 462.330937 39.56 
Q 460.330937 39.56 460.330937 41.56 
L 460.330937 84.594375 
Q 460.330937 86.594375 462.330937 86.594375 
z
" style="fill: #ffffff; opacity: 0.8; stroke: #cccccc; stroke-linejoin: miter"/>
   </g>
   <g id="line2d_27">
    <path style="fill: none; stroke: #1f77b4; stroke-width: 1.5; stroke-linecap: square"/>
   </g>
   <g id="text_19">
    <!-- 100% -->
    <g transform="translate(492.330937 51.158437) scale(0.1 -0.1)">
     <defs>
      <path id="DejaVuSans-25" d="M 4653 2053 
Q 4381 2053 4226 1822 
Q 4072 1591 4072 1178 
Q 4072 772 4226 539 
Q 4381 306 4653 306 
Q 4919 306 5073 539 
Q 5228 772 5228 1178 
Q 5228 1588 5073 1820 
Q 4919 2053 4653 2053 
z
M 4653 2450 
Q 5147 2450 5437 2106 
Q 5728 1763 5728 1178 
Q 5728 594 5436 251 
Q 5144 -91 4653 -91 
Q 4153 -91 3862 251 
Q 3572 594 3572 1178 
Q 3572 1766 3864 2108 
Q 4156 2450 4653 2450 
z
M 1428 4353 
Q 1159 4353 1004 4120 
Q 850 3888 850 3481 
Q 850 3069 1003 2837 
Q 1156 2606 1428 2606 
Q 1700 2606 1854 2837 
Q 2009 3069 2009 3481 
Q 2009 3884 1853 4118 
Q 1697 4353 1428 4353 
z
M 4250 4750 
L 4750 4750 
L 1831 -91 
L 1331 -91 
L 4250 4750 
z
M 1428 4750 
Q 1922 4750 2215 4408 
Q 2509 4066 2509 3481 
Q 2509 2891 2217 2550 
Q 1925 2209 1428 2209 
Q 931 2209 642 2551 
Q 353 2894 353 3481 
Q 353 4063 643 4406 
Q 934 4750 1428 4750 
z
" transform="scale(0.015625)"/>
     </defs>
     <use xlink:href="#DejaVuSans-31"/>
     <use xlink:href="#DejaVuSans-30" x="63.623047"/>
     <use xlink:href="#DejaVuSans-30" x="127.246094"/>
     <use xlink:href="#DejaVuSans-25" x="190.869141"/>
    </g>
   </g>
   <g id="line2d_28">
    <path style="fill: none; stroke: #ff7f0e; stroke-width: 1.5; stroke-linecap: square"/>
   </g>
   <g id="text_20">
    <!-- 50% -->
    <g transform="translate(492.330937 65.836563) scale(0.1 -0.1)">
     <use xlink:href="#DejaVuSans-35"/>
     <use xlink:href="#DejaVuSans-30" x="63.623047"/>
     <use xlink:href="#DejaVuSans-25" x="127.246094"/>
    </g>
   </g>
   <g id="line2d_29">
    <path style="fill: none; stroke: #2ca02c; stroke-width: 1.5; stroke-linecap: square"/>
   </g>
   <g id="text_21">
    <!-- 25% -->
    <g transform="translate(492.330937 80.514687) scale(0.1 -0.1)">
     <use xlink:href="#DejaVuSans-32"/>
     <use xlink:href="#DejaVuSans-35" x="63.623047"/>
     <use xlink:href="#DejaVuSans-25" x="127.246094"/>
    </g>
   </g>
  </g>
 </g>
 <defs>
  <clipPath id="pc053aa7a64">
   <rect x="57.6" y="41.472" width="357.12" height="120.96"/>
  </clipPath>
  <clipPath id="pf7eb76c9e4">
   <rect x="57.6" y="186.624" width="357.12" height="120.96"/>
  </clipPath>
 </defs>
</svg>
